Khand_1.ufo
<glyph name="quotedbl" format="1">
  <advance width="490"/>
  <unicode hex="0022"/>
  <outline>
    <contour>
      <point x="270" y="777" type="line"/>
      <point x="270" y="499" type="line"/>
      <point x="400" y="499" type="line"/>
      <point x="400" y="777" type="line"/>
    </contour>
    <contour>
      <point x="84" y="777" type="line"/>
      <point x="84" y="499" type="line"/>
      <point x="214" y="499" type="line"/>
      <point x="214" y="777" type="line"/>
    </contour>
  </outline>
</glyph>
<glyph name="percent" format="1">
  <advance width="721"/>
  <unicode hex="0025"/>
  <outline>
    <contour>
      <point x="472" y="693" type="line"/>
      <point x="149" y="0" type="line"/>
      <point x="249" y="0" type="line"/>
      <point x="572" y="693" type="line"/>
    </contour>
    <contour>
      <point x="220" y="528" type="curve" smooth="yes"/>
      <point x="220" y="484"/>
      <point x="213" y="449"/>
      <point x="178" y="449" type="curve" smooth="yes"/>
      <point x="143" y="449"/>
      <point x="136" y="484"/>
      <point x="136" y="528" type="curve" smooth="yes"/>
      <point x="136" y="570"/>
      <point x="143" y="605"/>
      <point x="178" y="605" type="curve" smooth="yes"/>
      <point x="213" y="605"/>
      <point x="220" y="571"/>
    </contour>
    <contour>
      <point x="35" y="528" type="curve" smooth="yes"/>
      <point x="35" y="430"/>
      <point x="71" y="355"/>
      <point x="179" y="355" type="curve" smooth="yes"/>
      <point x="287" y="355"/>
      <point x="323" y="430"/>
      <point x="323" y="528" type="curve" smooth="yes"/>
      <point x="323" y="625"/>
      <point x="287" y="699"/>
      <point x="179" y="699" type="curve" smooth="yes"/>
      <point x="71" y="699"/>
      <point x="35" y="625"/>
    </contour>
    <contour>
      <point x="583" y="167" type="curve" smooth="yes"/>
      <point x="583" y="123"/>
      <point x="576" y="88"/>
      <point x="541" y="88" type="curve" smooth="yes"/>
      <point x="506" y="88"/>
      <point x="499" y="123"/>
      <point x="499" y="167" type="curve" smooth="yes"/>
      <point x="499" y="209"/>
      <point x="506" y="244"/>
      <point x="541" y="244" type="curve" smooth="yes"/>
      <point x="576" y="244"/>
      <point x="583" y="210"/>
    </contour>
    <contour>
      <point x="398" y="167" type="curve" smooth="yes"/>
      <point x="398" y="69"/>
      <point x="434" y="-6"/>
      <point x="542" y="-6" type="curve" smooth="yes"/>
      <point x="650" y="-6"/>
      <point x="686" y="69"/>
      <point x="686" y="167" type="curve" smooth="yes"/>
      <point x="686" y="264"/>
      <point x="650" y="338"/>
      <point x="542" y="338" type="curve" smooth="yes"/>
      <point x="434" y="338"/>
      <point x="398" y="264"/>
    </contour>
  </outline>
</glyph>
<glyph name="quotesingle" format="1">
  <advance width="310"/>
  <unicode hex="0027"/>
  <outline>
    <contour>
      <point x="84" y="777" type="line"/>
      <point x="84" y="499" type="line"/>
      <point x="224" y="499" type="line"/>
      <point x="224" y="777" type="line"/>
    </contour>
  </outline>
</glyph>
<glyph name="parenleft" format="1">
  <advance width="356"/>
  <unicode hex="0028"/>
  <outline>
    <contour>
      <point x="173" y="852" type="line"/>
      <point x="121" y="742"/>
      <point x="63" y="554"/>
      <point x="63" y="336" type="curve"/>
      <point x="63" y="119"/>
      <point x="121" y="-69"/>
      <point x="173" y="-179" type="curve"/>
      <point x="303" y="-179" type="line"/>
      <point x="251" y="-69"/>
      <point x="193" y="119"/>
      <point x="193" y="336" type="curve"/>
      <point x="193" y="554"/>
      <point x="251" y="742"/>
      <point x="303" y="852" type="curve"/>
    </contour>
  </outline>
</glyph>
<glyph name="asterisk" format="1">
  <advance width="556"/>
  <unicode hex="002A"/>
  <outline>
    <contour>
      <point x="309" y="432" type="curve" smooth="yes"/>
      <point x="362" y="361" type="line"/>
      <point x="475" y="443" type="line"/>
      <point x="423" y="514" type="line"/>
      <point x="346" y="620"/>
      <point x="277" y="597"/>
      <point x="277" y="597" type="curve"/>
      <point x="277" y="597"/>
      <point x="233" y="538"/>
    </contour>
    <contour>
      <point x="131" y="515" type="curve" smooth="yes"/>
      <point x="79" y="443" type="line"/>
      <point x="192" y="361" type="line"/>
      <point x="244" y="432" type="line"/>
      <point x="321" y="538"/>
      <point x="277" y="597"/>
      <point x="277" y="597" type="curve"/>
      <point x="277" y="597"/>
      <point x="208" y="620"/>
    </contour>
    <contour>
      <point x="26" y="605" type="line"/>
      <point x="110" y="578" type="line"/>
      <point x="235" y="537"/>
      <point x="277" y="597"/>
      <point x="277" y="597" type="curve"/>
      <point x="277" y="597"/>
      <point x="278" y="670"/>
      <point x="154" y="711" type="curve" smooth="yes"/>
      <point x="69" y="738" type="line"/>
    </contour>
    <contour>
      <point x="207" y="838" type="line"/>
      <point x="207" y="749" type="line"/>
      <point x="207" y="618"/>
      <point x="277" y="597"/>
      <point x="277" y="597" type="curve"/>
      <point x="277" y="597"/>
      <point x="347" y="618"/>
      <point x="347" y="749" type="curve"/>
      <point x="347" y="838" type="line"/>
    </contour>
    <contour>
      <point x="401" y="710" type="line"/>
      <point x="276" y="670"/>
      <point x="277" y="597"/>
      <point x="277" y="597" type="curve"/>
      <point x="277" y="597"/>
      <point x="319" y="537"/>
      <point x="444" y="577" type="curve"/>
      <point x="528" y="605" type="line"/>
      <point x="485" y="738" type="line"/>
    </contour>
  </outline>
</glyph>
<glyph name="plus" format="1">
  <advance width="508"/>
  <unicode hex="002B"/>
  <outline>
    <contour>
      <point x="183" y="540" type="line"/>
      <point x="183" y="124" type="line"/>
      <point x="323" y="124" type="line"/>
      <point x="323" y="540" type="line"/>
    </contour>
    <contour>
      <point x="46" y="397" type="line"/>
      <point x="46" y="267" type="line"/>
      <point x="460" y="267" type="line"/>
      <point x="460" y="397" type="line"/>
    </contour>
  </outline>
</glyph>
<glyph name="seven" format="1">
  <advance width="386"/>
  <unicode hex="0037"/>
  <outline>
    <contour>
      <point x="5" y="693" type="line"/>
      <point x="5" y="554" type="line"/>
      <point x="202" y="554" type="line"/>
      <point x="134" y="336" type="line"/>
      <point x="116" y="288"/>
      <point x="101" y="203"/>
      <point x="101" y="117" type="curve"/>
      <point x="101" y="0" type="line"/>
      <point x="253" y="0" type="line"/>
      <point x="253" y="104" type="line"/>
      <point x="253" y="193"/>
      <point x="267" y="261"/>
      <point x="284" y="311" type="curve" smooth="yes"/>
      <point x="371" y="572" type="line"/>
      <point x="371" y="693" type="line"/>
    </contour>
  </outline>
</glyph>
<glyph name="colon" format="1">
  <advance width="257"/>
  <unicode hex="003A"/>
  <outline>
    <contour>
      <point x="38" y="419" type="curve" smooth="yes"/>
      <point x="38" y="374"/>
      <point x="58" y="341"/>
      <point x="122" y="341" type="curve" smooth="yes"/>
      <point x="184" y="341"/>
      <point x="205" y="374"/>
      <point x="205" y="419" type="curve" smooth="yes"/>
      <point x="205" y="465"/>
      <point x="184" y="498"/>
      <point x="122" y="498" type="curve" smooth="yes"/>
      <point x="58" y="498"/>
      <point x="38" y="465"/>
    </contour>
    <contour>
      <point x="38" y="68" type="curve" smooth="yes"/>
      <point x="38" y="23"/>
      <point x="58" y="-10"/>
      <point x="122" y="-10" type="curve" smooth="yes"/>
      <point x="184" y="-10"/>
      <point x="205" y="23"/>
      <point x="205" y="68" type="curve" smooth="yes"/>
      <point x="205" y="114"/>
      <point x="184" y="147"/>
      <point x="122" y="147" type="curve" smooth="yes"/>
      <point x="58" y="147"/>
      <point x="38" y="114"/>
    </contour>
  </outline>
</glyph>
<glyph name="equal" format="1">
  <advance width="499"/>
  <unicode hex="003D"/>
  <outline>
    <contour>
      <point x="33" y="499" type="line"/>
      <point x="33" y="369" type="line"/>
      <point x="459" y="369" type="line"/>
      <point x="459" y="499" type="line"/>
    </contour>
    <contour>
      <point x="33" y="295" type="line"/>
      <point x="33" y="165" type="line"/>
      <point x="459" y="165" type="line"/>
      <point x="459" y="295" type="line"/>
    </contour>
  </outline>
</glyph>
<glyph name="question" format="1">
  <advance width="424"/>
  <unicode hex="003F"/>
  <outline>
    <contour>
      <point x="26" y="684" type="curve"/>
      <point x="26" y="542" type="line"/>
      <point x="61" y="557"/>
      <point x="117" y="567"/>
      <point x="170" y="567" type="curve" smooth="yes"/>
      <point x="224" y="567"/>
      <point x="235" y="551"/>
      <point x="235" y="519" type="curve" smooth="yes"/>
      <point x="235" y="454" type="line"/>
      <point x="235" y="411"/>
      <point x="212" y="400"/>
      <point x="149" y="400" type="curve" smooth="yes"/>
      <point x="90" y="400" type="line"/>
      <point x="97" y="222" type="line"/>
      <point x="220" y="222" type="line"/>
      <point x="227" y="290" type="line"/>
      <point x="342" y="290"/>
      <point x="380" y="346"/>
      <point x="380" y="451" type="curve"/>
      <point x="380" y="535" type="line" smooth="yes"/>
      <point x="380" y="638"/>
      <point x="317" y="703"/>
      <point x="165" y="703" type="curve" smooth="yes"/>
      <point x="94" y="703"/>
      <point x="44" y="690"/>
    </contour>
    <contour>
      <point x="77" y="68" type="curve" smooth="yes"/>
      <point x="77" y="23"/>
      <point x="97" y="-10"/>
      <point x="161" y="-10" type="curve" smooth="yes"/>
      <point x="223" y="-10"/>
      <point x="244" y="23"/>
      <point x="244" y="68" type="curve" smooth="yes"/>
      <point x="244" y="114"/>
      <point x="223" y="147"/>
      <point x="161" y="147" type="curve" smooth="yes"/>
      <point x="97" y="147"/>
      <point x="77" y="114"/>
    </contour>
  </outline>
</glyph>
<glyph name="A" format="1">
  <advance width="489"/>
  <unicode hex="0041"/>
  <outline>
    <contour>
      <point x="217" y="693" type="line"/>
      <point x="341" y="0" type="line"/>
      <point x="484" y="0" type="line"/>
      <point x="350" y="693" type="line"/>
    </contour>
    <contour>
      <point x="158" y="287" type="line"/>
      <point x="158" y="160" type="line"/>
      <point x="334" y="160" type="line"/>
      <point x="334" y="287" type="line"/>
    </contour>
    <contour>
      <point x="141" y="693" type="line"/>
      <point x="5" y="0" type="line"/>
      <point x="148" y="0" type="line"/>
      <point x="265" y="693" type="line"/>
    </contour>
  </outline>
</glyph>
<glyph name="D" format="1">
  <advance width="493"/>
  <unicode hex="0044"/>
  <outline>
    <contour>
      <point x="45" y="693" type="line"/>
      <point x="45" y="0" type="line"/>
      <point x="297" y="0" type="line" smooth="yes"/>
      <point x="412" y="0"/>
      <point x="458" y="61"/>
      <point x="458" y="163" type="curve" smooth="yes"/>
      <point x="458" y="539" type="line" smooth="yes"/>
      <point x="458" y="642"/>
      <point x="394" y="693"/>
      <point x="288" y="693" type="curve"/>
    </contour>
    <contour>
      <point x="308" y="533" type="curve" smooth="yes"/>
      <point x="308" y="175" type="line" smooth="yes"/>
      <point x="308" y="151"/>
      <point x="302" y="129"/>
      <point x="267" y="129" type="curve" smooth="yes"/>
      <point x="195" y="129" type="line"/>
      <point x="195" y="570" type="line"/>
      <point x="267" y="570" type="line" smooth="yes"/>
      <point x="302" y="570"/>
      <point x="308" y="553"/>
    </contour>
  </outline>
</glyph>
<glyph name="L" format="1">
  <advance width="387"/>
  <unicode hex="004C"/>
  <outline>
    <contour>
      <point x="45" y="693" type="line"/>
      <point x="45" y="0" type="line"/>
      <point x="382" y="0" type="line"/>
      <point x="382" y="126" type="line"/>
      <point x="197" y="126" type="line"/>
      <point x="197" y="693" type="line"/>
    </contour>
  </outline>
</glyph>
<glyph name="N" format="1">
  <advance width="532"/>
  <unicode hex="004E"/>
  <outline>
    <contour>
      <point x="339" y="693" type="line"/>
      <point x="339" y="519" type="line" smooth="yes"/>
      <point x="339" y="316"/>
      <point x="364" y="227"/>
      <point x="364" y="227" type="curve"/>
      <point x="364" y="227"/>
      <point x="345" y="305"/>
      <point x="284" y="461" type="curve" smooth="yes"/>
      <point x="193" y="693" type="line"/>
      <point x="45" y="693" type="line"/>
      <point x="45" y="0" type="line"/>
      <point x="193" y="0" type="line"/>
      <point x="193" y="184" type="line" smooth="yes"/>
      <point x="193" y="387"/>
      <point x="168" y="472"/>
      <point x="168" y="472" type="curve"/>
      <point x="168" y="472"/>
      <point x="189" y="394"/>
      <point x="250" y="238" type="curve" smooth="yes"/>
      <point x="343" y="0" type="line"/>
      <point x="487" y="0" type="line"/>
      <point x="487" y="693" type="line"/>
    </contour>
  </outline>
</glyph>
<glyph name="O" format="1">
  <advance width="489"/>
  <unicode hex="004F"/>
  <outline>
    <contour>
      <point x="35" y="524" type="curve" smooth="yes"/>
      <point x="35" y="169" type="line" smooth="yes"/>
      <point x="35" y="63"/>
      <point x="103" y="-10"/>
      <point x="244" y="-10" type="curve" smooth="yes"/>
      <point x="385" y="-10"/>
      <point x="454" y="63"/>
      <point x="454" y="169" type="curve" smooth="yes"/>
      <point x="454" y="524" type="line"/>
      <point x="454" y="630"/>
      <point x="385" y="703"/>
      <point x="244" y="703" type="curve" smooth="yes"/>
      <point x="103" y="703"/>
      <point x="35" y="630"/>
    </contour>
    <contour>
      <point x="304" y="516" type="curve" smooth="yes"/>
      <point x="304" y="177" type="line" smooth="yes"/>
      <point x="304" y="146"/>
      <point x="286" y="127"/>
      <point x="244" y="127" type="curve" smooth="yes"/>
      <point x="202" y="127"/>
      <point x="185" y="147"/>
      <point x="185" y="177" type="curve" smooth="yes"/>
      <point x="185" y="516" type="line"/>
      <point x="185" y="547"/>
      <point x="202" y="566"/>
      <point x="244" y="566" type="curve" smooth="yes"/>
      <point x="286" y="566"/>
      <point x="304" y="546"/>
    </contour>
  </outline>
</glyph>
<glyph name="P" format="1">
  <advance width="470"/>
  <unicode hex="0050"/>
  <outline>
    <contour>
      <point x="45" y="693" type="line"/>
      <point x="45" y="0" type="line"/>
      <point x="196" y="0" type="line"/>
      <point x="196" y="200" type="line"/>
      <point x="271" y="200" type="line" smooth="yes"/>
      <point x="377" y="200"/>
      <point x="445" y="251"/>
      <point x="445" y="354" type="curve"/>
      <point x="445" y="539" type="line" smooth="yes"/>
      <point x="445" y="642"/>
      <point x="377" y="693"/>
      <point x="271" y="693" type="curve" smooth="yes"/>
    </contour>
    <contour>
      <point x="295" y="521" type="curve" smooth="yes"/>
      <point x="295" y="372" type="line" smooth="yes"/>
      <point x="295" y="342"/>
      <point x="282" y="330"/>
      <point x="252" y="330" type="curve" smooth="yes"/>
      <point x="196" y="330" type="line"/>
      <point x="196" y="563" type="line"/>
      <point x="252" y="563" type="line" smooth="yes"/>
      <point x="282" y="563"/>
      <point x="295" y="551"/>
    </contour>
  </outline>
</glyph>
<glyph name="X" format="1">
  <advance width="468"/>
  <unicode hex="0058"/>
  <outline>
    <contour>
      <point x="301" y="693" type="line"/>
      <point x="236" y="502" type="line"/>
      <point x="167" y="693" type="line"/>
      <point x="5" y="693" type="line"/>
      <point x="153" y="345" type="line"/>
      <point x="5" y="0" type="line"/>
      <point x="168" y="0" type="line"/>
      <point x="236" y="189" type="line"/>
      <point x="300" y="0" type="line"/>
      <point x="463" y="0" type="line"/>
      <point x="314" y="345" type="line"/>
      <point x="463" y="693" type="line"/>
    </contour>
  </outline>
</glyph>
<glyph name="Y" format="1">
  <advance width="482"/>
  <unicode hex="0059"/>
  <outline>
    <contour>
      <point x="332" y="693" type="line"/>
      <point x="300" y="590" type="line" smooth="yes"/>
      <point x="267" y="483"/>
      <point x="254" y="426"/>
      <point x="243" y="370" type="curve"/>
      <point x="233" y="426"/>
      <point x="221" y="481"/>
      <point x="187" y="588" type="curve"/>
      <point x="154" y="693" type="line"/>
      <point x="0" y="693" type="line"/>
      <point x="165" y="215" type="line"/>
      <point x="165" y="0" type="line"/>
      <point x="317" y="0" type="line"/>
      <point x="317" y="215" type="line"/>
      <point x="482" y="693" type="line"/>
    </contour>
  </outline>
</glyph>
<glyph name="Z" format="1">
  <advance width="425"/>
  <unicode hex="005A"/>
  <outline>
    <contour>
      <point x="24" y="693" type="line"/>
      <point x="24" y="566" type="line"/>
      <point x="238" y="566" type="line"/>
      <point x="20" y="127" type="line"/>
      <point x="20" y="0" type="line"/>
      <point x="405" y="0" type="line"/>
      <point x="405" y="127" type="line"/>
      <point x="177" y="127" type="line"/>
      <point x="401" y="572" type="line"/>
      <point x="401" y="693" type="line"/>
    </contour>
  </outline>
</glyph>
<glyph name="grave" format="1">
  <advance width="350"/>
  <unicode hex="0060"/>
  <outline>
    <contour>
      <point x="98" y="747" type="line"/>
      <point x="173" y="632" type="line"/>
      <point x="252" y="632" type="line"/>
      <point x="208" y="747" type="line"/>
    </contour>
  </outline>
</glyph>
<glyph name="a" format="1">
  <advance width="437"/>
  <unicode hex="0061"/>
  <outline>
    <contour>
      <point x="50" y="576" type="curve"/>
      <point x="50" y="443" type="line"/>
      <point x="68" y="450"/>
      <point x="127" y="464"/>
      <point x="187" y="464" type="curve" smooth="yes"/>
      <point x="238" y="464"/>
      <point x="252" y="450"/>
      <point x="253" y="417" type="curve"/>
      <point x="253" y="362" type="line"/>
      <point x="144" y="334" type="line" smooth="yes"/>
      <point x="57" y="310"/>
      <point x="19" y="267"/>
      <point x="19" y="177" type="curve" smooth="yes"/>
      <point x="19" y="143" type="line" smooth="yes"/>
      <point x="19" y="42"/>
      <point x="60" y="-2"/>
      <point x="154" y="-2" type="curve" smooth="yes"/>
      <point x="211" y="-2"/>
      <point x="242" y="21"/>
      <point x="256" y="43" type="curve"/>
      <point x="256" y="0" type="line"/>
      <point x="397" y="0" type="line"/>
      <point x="397" y="416" type="line" smooth="yes"/>
      <point x="397" y="531"/>
      <point x="349" y="595"/>
      <point x="203" y="595" type="curve" smooth="yes"/>
      <point x="132" y="595"/>
      <point x="76" y="585"/>
    </contour>
    <contour>
      <point x="252" y="120" type="line"/>
      <point x="239" y="113"/>
      <point x="219" y="109"/>
      <point x="202" y="109" type="curve" smooth="yes"/>
      <point x="176" y="109"/>
      <point x="167" y="122"/>
      <point x="167" y="143" type="curve"/>
      <point x="167" y="171" type="line" smooth="yes"/>
      <point x="167" y="209"/>
      <point x="172" y="220"/>
      <point x="206" y="229" type="curve" smooth="yes"/>
      <point x="252" y="241" type="line"/>
    </contour>
  </outline>
</glyph>
<glyph name="c" format="1">
  <advance width="376"/>
  <unicode hex="0063"/>
  <outline>
    <contour>
      <point x="35" y="421" type="curve" smooth="yes"/>
      <point x="35" y="169" type="line" smooth="yes"/>
      <point x="35" y="53"/>
      <point x="102" y="-5"/>
      <point x="231" y="-5" type="curve" smooth="yes"/>
      <point x="294" y="-5"/>
      <point x="323" y="1"/>
      <point x="356" y="10" type="curve"/>
      <point x="356" y="149" type="line"/>
      <point x="336" y="143"/>
      <point x="299" y="133"/>
      <point x="257" y="133" type="curve" smooth="yes"/>
      <point x="210" y="133"/>
      <point x="186" y="143"/>
      <point x="186" y="182" type="curve" smooth="yes"/>
      <point x="186" y="408" type="line"/>
      <point x="186" y="447"/>
      <point x="210" y="457"/>
      <point x="257" y="457" type="curve" smooth="yes"/>
      <point x="299" y="457"/>
      <point x="336" y="447"/>
      <point x="356" y="441" type="curve"/>
      <point x="356" y="580" type="line"/>
      <point x="323" y="589"/>
      <point x="294" y="595"/>
      <point x="231" y="595" type="curve" smooth="yes"/>
      <point x="102" y="595"/>
      <point x="35" y="537"/>
    </contour>
  </outline>
</glyph>
<glyph name="i" format="1">
  <advance width="241"/>
  <unicode hex="0069"/>
  <outline>
    <contour>
      <point x="45" y="574" type="line"/>
      <point x="45" y="0" type="line"/>
      <point x="196" y="0" type="line"/>
      <point x="196" y="574" type="line"/>
    </contour>
    <contour>
      <point x="37" y="685" type="curve" smooth="yes"/>
      <point x="37" y="640"/>
      <point x="57" y="607"/>
      <point x="121" y="607" type="curve" smooth="yes"/>
      <point x="183" y="607"/>
      <point x="204" y="640"/>
      <point x="204" y="685" type="curve" smooth="yes"/>
      <point x="204" y="731"/>
      <point x="183" y="764"/>
      <point x="121" y="764" type="curve" smooth="yes"/>
      <point x="57" y="764"/>
      <point x="37" y="731"/>
    </contour>
  </outline>
</glyph>
<glyph name="k" format="1">
  <advance width="434"/>
  <unicode hex="006B"/>
  <outline>
    <contour>
      <point x="265" y="590" type="line"/>
      <point x="183" y="319" type="line"/>
      <point x="271" y="0" type="line"/>
      <point x="429" y="0" type="line"/>
      <point x="329" y="311" type="line"/>
      <point x="414" y="590" type="line"/>
    </contour>
    <contour>
      <point x="45" y="747" type="line"/>
      <point x="45" y="0" type="line"/>
      <point x="191" y="0" type="line"/>
      <point x="191" y="747" type="line"/>
    </contour>
  </outline>
</glyph>
<glyph name="m" format="1">
  <advance width="690"/>
  <unicode hex="006D"/>
  <outline>
    <contour>
      <point x="391" y="559" type="curve"/>
      <point x="368" y="582"/>
      <point x="335" y="593"/>
      <point x="298" y="593" type="curve" smooth="yes"/>
      <point x="249" y="593"/>
      <point x="207" y="575"/>
      <point x="187" y="564" type="curve"/>
      <point x="187" y="590" type="line"/>
      <point x="45" y="590" type="line"/>
      <point x="45" y="0" type="line"/>
      <point x="196" y="0" type="line"/>
      <point x="196" y="441" type="line"/>
      <point x="206" y="447"/>
      <point x="224" y="454"/>
      <point x="244" y="454" type="curve" smooth="yes"/>
      <point x="263" y="454"/>
      <point x="270" y="446"/>
      <point x="270" y="430" type="curve" smooth="yes"/>
      <point x="270" y="0" type="line"/>
      <point x="423" y="0" type="line"/>
      <point x="423" y="431" type="line"/>
      <point x="423" y="434"/>
      <point x="423" y="439"/>
      <point x="422" y="441" type="curve"/>
      <point x="432" y="447"/>
      <point x="451" y="454"/>
      <point x="471" y="454" type="curve" smooth="yes"/>
      <point x="490" y="454"/>
      <point x="497" y="446"/>
      <point x="497" y="430" type="curve" smooth="yes"/>
      <point x="497" y="0" type="line"/>
      <point x="650" y="0" type="line"/>
      <point x="650" y="467" type="line" smooth="yes"/>
      <point x="650" y="555"/>
      <point x="596" y="593"/>
      <point x="525" y="593" type="curve" smooth="yes"/>
      <point x="479" y="593"/>
      <point x="431" y="580"/>
    </contour>
  </outline>
</glyph>
<glyph name="n" format="1">
  <advance width="463"/>
  <unicode hex="006E"/>
  <outline>
    <contour>
      <point x="187" y="564" type="curve"/>
      <point x="187" y="590" type="line"/>
      <point x="45" y="590" type="line"/>
      <point x="45" y="0" type="line"/>
      <point x="196" y="0" type="line"/>
      <point x="196" y="441" type="line"/>
      <point x="206" y="447"/>
      <point x="224" y="454"/>
      <point x="244" y="454" type="curve" smooth="yes"/>
      <point x="263" y="454"/>
      <point x="270" y="446"/>
      <point x="270" y="430" type="curve" smooth="yes"/>
      <point x="270" y="0" type="line"/>
      <point x="423" y="0" type="line"/>
      <point x="423" y="467" type="line" smooth="yes"/>
      <point x="423" y="555"/>
      <point x="369" y="593"/>
      <point x="298" y="593" type="curve" smooth="yes"/>
      <point x="249" y="593"/>
      <point x="207" y="575"/>
    </contour>
  </outline>
</glyph>
<glyph name="q" format="1">
  <advance width="462"/>
  <unicode hex="0071"/>
  <outline>
    <contour>
      <point x="221" y="590" type="line"/>
      <point x="91" y="590"/>
      <point x="35" y="518"/>
      <point x="35" y="411" type="curve" smooth="yes"/>
      <point x="35" y="149" type="line" smooth="yes"/>
      <point x="35" y="51"/>
      <point x="80" y="0"/>
      <point x="175" y="0" type="curve" smooth="yes"/>
      <point x="220" y="0"/>
      <point x="255" y="9"/>
      <point x="266" y="13" type="curve"/>
      <point x="266" y="-149" type="line"/>
      <point x="417" y="-149" type="line"/>
      <point x="417" y="590" type="line"/>
    </contour>
    <contour>
      <point x="266" y="145" type="line"/>
      <point x="256" y="141"/>
      <point x="239" y="135"/>
      <point x="219" y="135" type="curve" smooth="yes"/>
      <point x="197" y="135"/>
      <point x="186" y="146"/>
      <point x="186" y="166" type="curve" smooth="yes"/>
      <point x="186" y="405" type="line" smooth="yes"/>
      <point x="186" y="440"/>
      <point x="203" y="456"/>
      <point x="233" y="456" type="curve" smooth="yes"/>
      <point x="266" y="456" type="line"/>
    </contour>
  </outline>
</glyph>
<glyph name="r" format="1">
  <advance width="322"/>
  <unicode hex="0072"/>
  <outline>
    <contour>
      <point x="300" y="593" type="line"/>
      <point x="256" y="593"/>
      <point x="233" y="579"/>
      <point x="187" y="550" type="curve"/>
      <point x="187" y="590" type="line"/>
      <point x="45" y="590" type="line"/>
      <point x="45" y="0" type="line"/>
      <point x="196" y="0" type="line"/>
      <point x="196" y="434" type="line"/>
      <point x="217" y="444"/>
      <point x="253" y="454"/>
      <point x="294" y="454" type="curve"/>
      <point x="317" y="454" type="line"/>
      <point x="317" y="593" type="line"/>
    </contour>
  </outline>
</glyph>
<glyph name="v" format="1">
  <advance width="438"/>
  <unicode hex="0076"/>
  <outline>
    <contour>
      <point x="285" y="590" type="line"/>
      <point x="253" y="405" type="line" smooth="yes"/>
      <point x="224" y="240"/>
      <point x="222" y="119"/>
      <point x="222" y="119" type="curve"/>
      <point x="222" y="119"/>
      <point x="222" y="238"/>
      <point x="190" y="408" type="curve" smooth="yes"/>
      <point x="156" y="590" type="line"/>
      <point x="5" y="590" type="line"/>
      <point x="133" y="0" type="line"/>
      <point x="309" y="0" type="line"/>
      <point x="433" y="590" type="line"/>
    </contour>
  </outline>
</glyph>
<glyph name="z" format="1">
  <advance width="364"/>
  <unicode hex="007A"/>
  <outline>
    <contour>
      <point x="23" y="590" type="line"/>
      <point x="23" y="464" type="line"/>
      <point x="179" y="464" type="line"/>
      <point x="20" y="92" type="line"/>
      <point x="20" y="0" type="line"/>
      <point x="344" y="0" type="line"/>
      <point x="344" y="126" type="line"/>
      <point x="186" y="126" type="line"/>
      <point x="341" y="500" type="line"/>
      <point x="341" y="590" type="line"/>
    </contour>
  </outline>
</glyph>
<glyph name="braceleft" format="1">
  <advance width="412"/>
  <unicode hex="007B"/>
  <outline>
    <contour>
      <point x="258" y="684" type="line"/>
      <point x="258" y="708"/>
      <point x="270" y="723"/>
      <point x="297" y="723" type="curve" smooth="yes"/>
      <point x="342" y="723" type="line"/>
      <point x="342" y="852" type="line"/>
      <point x="286" y="852" type="line" smooth="yes"/>
      <point x="184" y="852"/>
      <point x="128" y="780"/>
      <point x="128" y="677" type="curve" smooth="yes"/>
      <point x="128" y="460" type="line" smooth="yes"/>
      <point x="128" y="420"/>
      <point x="102" y="401"/>
      <point x="59" y="401" type="curve" smooth="yes"/>
      <point x="54" y="401" type="line"/>
      <point x="54" y="272" type="line"/>
      <point x="59" y="272" type="line" smooth="yes"/>
      <point x="102" y="272"/>
      <point x="128" y="253"/>
      <point x="128" y="213" type="curve" smooth="yes"/>
      <point x="128" y="-5" type="line" smooth="yes"/>
      <point x="128" y="-108"/>
      <point x="184" y="-180"/>
      <point x="286" y="-180" type="curve" smooth="yes"/>
      <point x="342" y="-180" type="line"/>
      <point x="342" y="-51" type="line"/>
      <point x="297" y="-51" type="line" smooth="yes"/>
      <point x="270" y="-51"/>
      <point x="258" y="-36"/>
      <point x="258" y="-12" type="curve" smooth="yes"/>
      <point x="258" y="186" type="line" smooth="yes"/>
      <point x="258" y="272"/>
      <point x="240" y="323"/>
      <point x="165" y="337" type="curve"/>
      <point x="240" y="353"/>
      <point x="258" y="411"/>
      <point x="258" y="497" type="curve" smooth="yes"/>
    </contour>
  </outline>
</glyph>
<glyph name="asciitilde" format="1">
  <advance width="625"/>
  <unicode hex="007E"/>
  <outline>
    <contour>
      <point x="457" y="442" type="line"/>
      <point x="467" y="385"/>
      <point x="428" y="378"/>
      <point x="382" y="394" type="curve" smooth="yes"/>
      <point x="240" y="442" type="line" smooth="yes"/>
      <point x="131" y="479"/>
      <point x="25" y="452"/>
      <point x="25" y="320" type="curve"/>
      <point x="25" y="289"/>
      <point x="30" y="260"/>
      <point x="30" y="260" type="curve"/>
      <point x="165" y="260" type="line"/>
      <point x="155" y="317"/>
      <point x="194" y="324"/>
      <point x="240" y="308" type="curve"/>
      <point x="382" y="260" type="line"/>
      <point x="491" y="223"/>
      <point x="597" y="250"/>
      <point x="597" y="382" type="curve"/>
      <point x="597" y="416"/>
      <point x="591" y="442"/>
      <point x="591" y="442" type="curve"/>
    </contour>
  </outline>
</glyph>
<glyph name="cent" format="1">
  <advance width="379"/>
  <unicode hex="00A2"/>
  <outline>
    <contour>
      <point x="153" y="39" type="line"/>
      <point x="153" y="-67" type="line"/>
      <point x="293" y="-67" type="line"/>
      <point x="293" y="39" type="line"/>
    </contour>
    <contour>
      <point x="159" y="655" type="line"/>
      <point x="159" y="557" type="line"/>
      <point x="299" y="557" type="line"/>
      <point x="299" y="655" type="line"/>
    </contour>
    <component base="c" xOffset="2"/>
  </outline>
</glyph>
<glyph name="section" format="1">
  <advance width="404"/>
  <unicode hex="00A7"/>
  <outline>
    <contour>
      <point x="32" y="538" type="curve" smooth="yes"/>
      <point x="32" y="531" type="line" smooth="yes"/>
      <point x="32" y="465"/>
      <point x="63" y="430"/>
      <point x="103" y="403" type="curve" smooth="yes"/>
      <point x="171" y="358" type="line" smooth="yes"/>
      <point x="216" y="328"/>
      <point x="232" y="320"/>
      <point x="232" y="299" type="curve" smooth="yes"/>
      <point x="232" y="274" type="line"/>
      <point x="378" y="274" type="line"/>
      <point x="378" y="309" type="line" smooth="yes"/>
      <point x="378" y="373"/>
      <point x="346" y="410"/>
      <point x="299" y="439" type="curve" smooth="yes"/>
      <point x="217" y="490" type="line" smooth="yes"/>
      <point x="183" y="511"/>
      <point x="178" y="519"/>
      <point x="178" y="531" type="curve" smooth="yes"/>
      <point x="178" y="555"/>
      <point x="190" y="566"/>
      <point x="249" y="566" type="curve" smooth="yes"/>
      <point x="291" y="566"/>
      <point x="344" y="556"/>
      <point x="359" y="551" type="curve"/>
      <point x="359" y="684" type="line"/>
      <point x="330" y="693"/>
      <point x="278" y="699"/>
      <point x="237" y="699" type="curve" smooth="yes"/>
      <point x="88" y="699"/>
      <point x="32" y="641"/>
    </contour>
    <contour>
      <point x="182" y="281" type="line"/>
      <point x="39" y="281" type="line"/>
      <point x="39" y="246" type="line" smooth="yes"/>
      <point x="39" y="180"/>
      <point x="70" y="145"/>
      <point x="110" y="118" type="curve" smooth="yes"/>
      <point x="178" y="73" type="line" smooth="yes"/>
      <point x="228" y="40"/>
      <point x="235" y="31"/>
      <point x="235" y="18" type="curve" smooth="yes"/>
      <point x="235" y="-5"/>
      <point x="221" y="-16"/>
      <point x="144" y="-16" type="curve" smooth="yes"/>
      <point x="102" y="-16"/>
      <point x="57" y="-8"/>
      <point x="37" y="-2" type="curve"/>
      <point x="37" y="-137" type="line"/>
      <point x="70" y="-145"/>
      <point x="104" y="-150"/>
      <point x="167" y="-150" type="curve" smooth="yes"/>
      <point x="315" y="-150"/>
      <point x="385" y="-93"/>
      <point x="385" y="16" type="curve" smooth="yes"/>
      <point x="385" y="24" type="line" smooth="yes"/>
      <point x="385" y="88"/>
      <point x="352" y="124"/>
      <point x="306" y="154" type="curve" smooth="yes"/>
      <point x="225" y="208" type="line" smooth="yes"/>
      <point x="192" y="230"/>
      <point x="182" y="238"/>
      <point x="182" y="254" type="curve" smooth="yes"/>
    </contour>
  </outline>
</glyph>
<glyph name="ordfeminine" format="1">
  <advance width="332"/>
  <unicode hex="00AA"/>
  <outline>
    <contour>
      <point x="55" y="730" type="curve"/>
      <point x="55" y="644" type="line"/>
      <point x="95" y="655"/>
      <point x="143" y="658"/>
      <point x="160" y="658" type="curve" smooth="yes"/>
      <point x="196" y="658"/>
      <point x="212" y="646"/>
      <point x="212" y="628" type="curve" smooth="yes"/>
      <point x="212" y="568" type="line"/>
      <point x="150" y="547" type="line" smooth="yes"/>
      <point x="74" y="521"/>
      <point x="35" y="494"/>
      <point x="35" y="431" type="curve" smooth="yes"/>
      <point x="35" y="399" type="line" smooth="yes"/>
      <point x="35" y="325"/>
      <point x="69" y="289"/>
      <point x="135" y="289" type="curve" smooth="yes"/>
      <point x="168" y="289"/>
      <point x="195" y="302"/>
      <point x="212" y="321" type="curve"/>
      <point x="212" y="284" type="line"/>
      <point x="307" y="284" type="line"/>
      <point x="307" y="631" type="line" smooth="yes"/>
      <point x="307" y="699"/>
      <point x="265" y="744"/>
      <point x="165" y="744" type="curve" smooth="yes"/>
      <point x="138" y="744"/>
      <point x="91" y="741"/>
    </contour>
    <contour>
      <point x="212" y="376" type="line"/>
      <point x="200" y="370"/>
      <point x="184" y="366"/>
      <point x="167" y="366" type="curve" smooth="yes"/>
      <point x="138" y="366"/>
      <point x="130" y="378"/>
      <point x="130" y="401" type="curve" smooth="yes"/>
      <point x="130" y="421" type="line" smooth="yes"/>
      <point x="130" y="442"/>
      <point x="137" y="457"/>
      <point x="168" y="468" type="curve" smooth="yes"/>
      <point x="212" y="484" type="line"/>
    </contour>
  </outline>
</glyph>
<glyph name="logicalnot" format="1">
  <advance width="532"/>
  <unicode hex="00AC"/>
  <outline>
    <contour>
      <point x="44" y="408" type="line"/>
      <point x="44" y="274" type="line"/>
      <point x="335" y="274" type="line"/>
      <point x="335" y="160" type="line"/>
      <point x="487" y="160" type="line"/>
      <point x="487" y="408" type="line"/>
    </contour>
  </outline>
</glyph>
<glyph name="registered" format="1">
  <advance width="606"/>
  <unicode hex="00AE"/>
  <outline>
    <contour>
      <point x="95" y="528" type="curve" smooth="yes"/>
      <point x="95" y="384"/>
      <point x="138" y="279"/>
      <point x="330" y="279" type="curve" smooth="yes"/>
      <point x="520" y="279"/>
      <point x="564" y="386"/>
      <point x="564" y="528" type="curve" smooth="yes"/>
      <point x="564" y="674"/>
      <point x="522" y="777"/>
      <point x="330" y="777" type="curve" smooth="yes"/>
      <point x="140" y="777"/>
      <point x="95" y="671"/>
    </contour>
    <contour>
      <point x="331" y="509" type="line"/>
      <point x="370" y="389" type="line"/>
      <point x="441" y="389" type="line"/>
      <point x="394" y="509" type="line"/>
    </contour>
    <contour>
      <point x="497" y="528" type="curve" smooth="yes"/>
      <point x="497" y="421"/>
      <point x="488" y="343"/>
      <point x="330" y="343" type="curve" smooth="yes"/>
      <point x="170" y="343"/>
      <point x="162" y="419"/>
      <point x="162" y="528" type="curve" smooth="yes"/>
      <point x="162" y="637"/>
      <point x="167" y="714"/>
      <point x="330" y="714" type="curve" smooth="yes"/>
      <point x="492" y="714"/>
      <point x="497" y="639"/>
    </contour>
    <contour>
      <point x="241" y="671" type="line"/>
      <point x="241" y="389" type="line"/>
      <point x="307" y="389" type="line"/>
      <point x="307" y="488" type="line"/>
      <point x="326" y="488" type="line"/>
      <point x="384" y="488"/>
      <point x="429" y="510"/>
      <point x="429" y="581" type="curve" smooth="yes"/>
      <point x="429" y="652"/>
      <point x="384" y="671"/>
      <point x="326" y="671" type="curve" smooth="yes"/>
    </contour>
    <contour>
      <point x="364" y="581" type="curve" smooth="yes"/>
      <point x="364" y="548"/>
      <point x="354" y="542"/>
      <point x="320" y="542" type="curve" smooth="yes"/>
      <point x="307" y="542" type="line"/>
      <point x="307" y="617" type="line"/>
      <point x="325" y="617" type="line" smooth="yes"/>
      <point x="350" y="617"/>
      <point x="364" y="614"/>
    </contour>
  </outline>
</glyph>
<glyph name="macron" format="1">
  <advance width="350"/>
  <unicode hex="00AF"/>
  <outline>
    <contour>
      <point x="41" y="728" type="line"/>
      <point x="41" y="651" type="line"/>
      <point x="308" y="651" type="line"/>
      <point x="308" y="728" type="line"/>
    </contour>
  </outline>
</glyph>
<glyph name="plusminus" format="1">
  <advance width="498"/>
  <unicode hex="00B1"/>
  <outline>
    <contour>
      <point x="46" y="130" type="line"/>
      <point x="47" y="0" type="line"/>
      <point x="461" y="0" type="line"/>
      <point x="460" y="130" type="line"/>
    </contour>
    <contour>
      <point x="46" y="397" type="line"/>
      <point x="46" y="267" type="line"/>
      <point x="460" y="267" type="line"/>
      <point x="460" y="397" type="line"/>
    </contour>
    <contour>
      <point x="183" y="490" type="line"/>
      <point x="183" y="174" type="line"/>
      <point x="323" y="174" type="line"/>
      <point x="323" y="490" type="line"/>
    </contour>
  </outline>
</glyph>
<glyph name="twosuperior" format="1">
  <advance width="300"/>
  <unicode hex="00B2"/>
  <outline>
    <contour>
      <point x="44" y="732" type="curve"/>
      <point x="44" y="645" type="line"/>
      <point x="81" y="654"/>
      <point x="104" y="658"/>
      <point x="151" y="658" type="curve" smooth="yes"/>
      <point x="174" y="658"/>
      <point x="181" y="649"/>
      <point x="181" y="631" type="curve" smooth="yes"/>
      <point x="181" y="603" type="line" smooth="yes"/>
      <point x="181" y="578"/>
      <point x="180" y="571"/>
      <point x="160" y="556" type="curve" smooth="yes"/>
      <point x="82" y="500" type="line" smooth="yes"/>
      <point x="53" y="479"/>
      <point x="35" y="456"/>
      <point x="35" y="405" type="curve" smooth="yes"/>
      <point x="35" y="289" type="line"/>
      <point x="274" y="289" type="line"/>
      <point x="274" y="376" type="line"/>
      <point x="131" y="376" type="line"/>
      <point x="131" y="397" type="line" smooth="yes"/>
      <point x="131" y="424"/>
      <point x="134" y="428"/>
      <point x="162" y="448" type="curve" smooth="yes"/>
      <point x="233" y="501" type="line" smooth="yes"/>
      <point x="260" y="521"/>
      <point x="276" y="547"/>
      <point x="276" y="586" type="curve" smooth="yes"/>
      <point x="276" y="634" type="line" smooth="yes"/>
      <point x="276" y="704"/>
      <point x="238" y="744"/>
      <point x="155" y="744" type="curve" smooth="yes"/>
      <point x="85" y="744"/>
      <point x="59" y="737"/>
    </contour>
  </outline>
</glyph>
<glyph name="cedilla" format="1">
  <advance width="350"/>
  <unicode hex="00B8"/>
  <outline>
    <contour>
      <point x="139" y="6" type="line"/>
      <point x="121" y="-77" type="line"/>
      <point x="132" y="-77" type="line" smooth="yes"/>
      <point x="153" y="-78"/>
      <point x="164" y="-86"/>
      <point x="164" y="-101" type="curve" smooth="yes"/>
      <point x="164" y="-115"/>
      <point x="152" y="-124"/>
      <point x="132" y="-124" type="curve" smooth="yes"/>
      <point x="120" y="-124"/>
      <point x="105" y="-122"/>
      <point x="98" y="-119" type="curve"/>
      <point x="98" y="-185" type="line"/>
      <point x="116" y="-189"/>
      <point x="133" y="-191"/>
      <point x="150" y="-191" type="curve" smooth="yes"/>
      <point x="211" y="-191"/>
      <point x="251" y="-159"/>
      <point x="251" y="-106" type="curve" smooth="yes"/>
      <point x="251" y="-57"/>
      <point x="213" y="-41"/>
      <point x="193" y="-39" type="curve"/>
      <point x="203" y="6" type="line"/>
    </contour>
  </outline>
</glyph>
<glyph name="ordmasculine" format="1">
  <advance width="320"/>
  <unicode hex="00BA"/>
  <outline>
    <contour>
      <point x="42" y="629" type="curve" smooth="yes"/>
      <point x="42" y="401" type="line" smooth="yes"/>
      <point x="42" y="325"/>
      <point x="82" y="284"/>
      <point x="174" y="284" type="curve" smooth="yes"/>
      <point x="266" y="284"/>
      <point x="306" y="325"/>
      <point x="306" y="401" type="curve" smooth="yes"/>
      <point x="306" y="629" type="line" smooth="yes"/>
      <point x="306" y="705"/>
      <point x="266" y="746"/>
      <point x="174" y="746" type="curve" smooth="yes"/>
      <point x="82" y="746"/>
      <point x="42" y="705"/>
    </contour>
    <contour>
      <point x="211" y="631" type="curve" smooth="yes"/>
      <point x="211" y="399" type="line" smooth="yes"/>
      <point x="211" y="381"/>
      <point x="197" y="372"/>
      <point x="174" y="372" type="curve" smooth="yes"/>
      <point x="151" y="372"/>
      <point x="137" y="381"/>
      <point x="137" y="399" type="curve" smooth="yes"/>
      <point x="137" y="631" type="line" smooth="yes"/>
      <point x="137" y="649"/>
      <point x="151" y="658"/>
      <point x="174" y="658" type="curve" smooth="yes"/>
      <point x="197" y="658"/>
      <point x="211" y="649"/>
    </contour>
  </outline>
</glyph>
<glyph name="AE" format="1">
  <advance width="725"/>
  <unicode hex="00C6"/>
  <outline>
    <contour>
      <point x="266" y="693" type="line"/>
      <point x="0" y="0" type="line"/>
      <point x="145" y="0" type="line"/>
      <point x="392" y="693" type="line"/>
    </contour>
    <contour>
      <point x="153" y="287" type="line"/>
      <point x="153" y="160" type="line"/>
      <point x="391" y="160" type="line"/>
      <point x="391" y="287" type="line"/>
    </contour>
    <contour>
      <point x="355" y="693" type="line"/>
      <point x="355" y="0" type="line"/>
      <point x="696" y="0" type="line"/>
      <point x="696" y="130" type="line"/>
      <point x="495" y="130" type="line"/>
      <point x="495" y="286" type="line"/>
      <point x="669" y="286" type="line"/>
      <point x="669" y="416" type="line"/>
      <point x="495" y="416" type="line"/>
      <point x="495" y="563" type="line"/>
      <point x="696" y="563" type="line"/>
      <point x="696" y="693" type="line"/>
    </contour>
  </outline>
</glyph>
<glyph name="Eth" format="1">
  <advance width="499"/>
  <unicode hex="00D0"/>
  <outline>
    <contour>
      <point x="-9" y="403" type="line"/>
      <point x="-9" y="279" type="line"/>
      <point x="261" y="279" type="line"/>
      <point x="261" y="403" type="line"/>
    </contour>
    <component base="D" xOffset="10"/>
  </outline>
</glyph>
<glyph name="Thorn" format="1">
  <advance width="453"/>
  <unicode hex="00DE"/>
  <outline>
    <contour>
      <point x="179" y="590" type="line"/>
      <point x="179" y="462" type="line"/>
      <point x="256" y="462" type="line" smooth="yes"/>
      <point x="286" y="462"/>
      <point x="299" y="450"/>
      <point x="299" y="420" type="curve"/>
      <point x="299" y="274" type="line" smooth="yes"/>
      <point x="299" y="244"/>
      <point x="286" y="232"/>
      <point x="256" y="232" type="curve" smooth="yes"/>
      <point x="179" y="232" type="line"/>
      <point x="179" y="104" type="line"/>
      <point x="269" y="104" type="line" smooth="yes"/>
      <point x="375" y="104"/>
      <point x="443" y="155"/>
      <point x="443" y="258" type="curve" smooth="yes"/>
      <point x="443" y="436" type="line" smooth="yes"/>
      <point x="443" y="539"/>
      <point x="375" y="590"/>
      <point x="269" y="590" type="curve" smooth="yes"/>
    </contour>
    <contour>
      <point x="55" y="693" type="line"/>
      <point x="55" y="0" type="line"/>
      <point x="199" y="0" type="line"/>
      <point x="199" y="693" type="line"/>
    </contour>
  </outline>
</glyph>
<glyph name="germandbls" format="1">
  <advance width="569"/>
  <unicode hex="00DF"/>
  <outline>
    <contour>
      <point x="45" y="522" type="curve" smooth="yes"/>
      <point x="45" y="0" type="line"/>
      <point x="186" y="0" type="line"/>
      <point x="186" y="509" type="line" smooth="yes"/>
      <point x="186" y="570"/>
      <point x="209" y="595"/>
      <point x="256" y="595" type="curve" smooth="yes"/>
      <point x="298" y="595"/>
      <point x="318" y="575"/>
      <point x="318" y="539" type="curve" smooth="yes"/>
      <point x="318" y="488"/>
      <point x="266" y="439"/>
      <point x="266" y="380" type="curve" smooth="yes"/>
      <point x="266" y="360" type="line"/>
      <point x="266" y="314"/>
      <point x="302" y="279"/>
      <point x="337" y="250" type="curve" smooth="yes"/>
      <point x="373" y="221"/>
      <point x="408" y="198"/>
      <point x="408" y="174" type="curve" smooth="yes"/>
      <point x="408" y="166" type="line" smooth="yes"/>
      <point x="408" y="139"/>
      <point x="398" y="127"/>
      <point x="332" y="127" type="curve" smooth="yes"/>
      <point x="292" y="127"/>
      <point x="259" y="136"/>
      <point x="240" y="142" type="curve"/>
      <point x="240" y="9" type="line"/>
      <point x="271" y="3"/>
      <point x="290" y="-3"/>
      <point x="351" y="-3" type="curve" smooth="yes"/>
      <point x="493" y="-3"/>
      <point x="552" y="53"/>
      <point x="552" y="153" type="curve" smooth="yes"/>
      <point x="552" y="186" type="line" smooth="yes"/>
      <point x="552" y="240"/>
      <point x="519" y="276"/>
      <point x="486" y="304" type="curve" smooth="yes"/>
      <point x="452" y="332"/>
      <point x="419" y="353"/>
      <point x="419" y="377" type="curve" smooth="yes"/>
      <point x="419" y="388" type="line" smooth="yes"/>
      <point x="419" y="421"/>
      <point x="467" y="466"/>
      <point x="467" y="547" type="curve" smooth="yes"/>
      <point x="467" y="661"/>
      <point x="383" y="727"/>
      <point x="256" y="727" type="curve" smooth="yes"/>
      <point x="119" y="727"/>
      <point x="45" y="654"/>
    </contour>
  </outline>
</glyph>
<glyph name="eth" format="1">
  <advance width="453"/>
  <unicode hex="00F0"/>
  <outline>
    <contour>
      <point x="94" y="693" type="line"/>
      <point x="187" y="586"/>
      <point x="235" y="504"/>
      <point x="257" y="427" type="curve"/>
      <point x="245" y="445"/>
      <point x="217" y="465"/>
      <point x="181" y="465" type="curve" smooth="yes"/>
      <point x="82" y="465"/>
      <point x="40" y="415"/>
      <point x="40" y="319" type="curve" smooth="yes"/>
      <point x="40" y="159" type="line" smooth="yes"/>
      <point x="40" y="56"/>
      <point x="102" y="-5"/>
      <point x="228" y="-5" type="curve" smooth="yes"/>
      <point x="355" y="-5"/>
      <point x="418" y="57"/>
      <point x="418" y="160" type="curve"/>
      <point x="418" y="310" type="line"/>
      <point x="418" y="468"/>
      <point x="335" y="610"/>
      <point x="263" y="693" type="curve"/>
    </contour>
    <contour>
      <point x="274" y="346" type="curve"/>
      <point x="274" y="163" type="line"/>
      <point x="274" y="143"/>
      <point x="266" y="125"/>
      <point x="229" y="125" type="curve" smooth="yes"/>
      <point x="192" y="125"/>
      <point x="184" y="145"/>
      <point x="184" y="165" type="curve" smooth="yes"/>
      <point x="184" y="314" type="line" smooth="yes"/>
      <point x="184" y="346"/>
      <point x="197" y="353"/>
      <point x="229" y="353" type="curve" smooth="yes"/>
      <point x="255" y="353"/>
      <point x="274" y="346"/>
    </contour>
    <contour>
      <point x="97" y="575" type="line"/>
      <point x="97" y="501" type="line"/>
      <point x="391" y="624" type="line"/>
      <point x="391" y="699" type="line"/>
    </contour>
  </outline>
</glyph>
<glyph name="divide" format="1">
  <advance width="498"/>
  <unicode hex="00F7"/>
  <outline>
    <contour>
      <point x="41" y="396" type="line"/>
      <point x="41" y="266" type="line"/>
      <point x="455" y="266" type="line"/>
      <point x="455" y="396" type="line"/>
    </contour>
    <contour>
      <point x="172" y="160" type="curve" smooth="yes"/>
      <point x="172" y="118"/>
      <point x="189" y="85"/>
      <point x="248" y="85" type="curve" smooth="yes"/>
      <point x="306" y="85"/>
      <point x="322" y="118"/>
      <point x="322" y="160" type="curve" smooth="yes"/>
      <point x="322" y="202"/>
      <point x="305" y="235"/>
      <point x="247" y="235" type="curve" smooth="yes"/>
      <point x="188" y="235"/>
      <point x="172" y="202"/>
    </contour>
    <contour>
      <point x="172" y="503" type="curve" smooth="yes"/>
      <point x="172" y="461"/>
      <point x="188" y="428"/>
      <point x="247" y="428" type="curve" smooth="yes"/>
      <point x="305" y="428"/>
      <point x="322" y="461"/>
      <point x="322" y="503" type="curve" smooth="yes"/>
      <point x="322" y="545"/>
      <point x="305" y="578"/>
      <point x="247" y="578" type="curve" smooth="yes"/>
      <point x="188" y="578"/>
      <point x="172" y="545"/>
    </contour>
  </outline>
</glyph>
<glyph name="oslash" format="1">
  <advance width="450"/>
  <unicode hex="00F8"/>
  <outline>
    <contour>
      <point x="371" y="590" type="line"/>
      <point x="15" y="0" type="line"/>
      <point x="79" y="0" type="line"/>
      <point x="435" y="590" type="line"/>
    </contour>
    <component base="o"/>
  </outline>
</glyph>
<glyph name="dcroat" format="1">
  <advance width="465"/>
  <unicode hex="0111"/>
  <outline>
    <contour>
      <point x="140" y="700" type="line"/>
      <point x="140" y="636" type="line"/>
      <point x="460" y="636" type="line"/>
      <point x="460" y="700" type="line"/>
    </contour>
    <component base="d" xOffset="3"/>
  </outline>
</glyph>
<glyph name="imacron" format="1">
  <advance width="241"/>
  <unicode hex="012B"/>
  <outline>
    <contour>
      <point x="45" y="574" type="line"/>
      <point x="45" y="0" type="line"/>
      <point x="196" y="0" type="line"/>
      <point x="196" y="574" type="line"/>
    </contour>
    <component base="macron" xOffset="-54"/>
  </outline>
</glyph>
<glyph name="dotlessi" format="1">
  <advance width="241"/>
  <unicode hex="0131"/>
  <outline>
    <contour>
      <point x="45" y="574" type="line"/>
      <point x="45" y="0" type="line"/>
      <point x="196" y="0" type="line"/>
      <point x="196" y="574" type="line"/>
    </contour>
  </outline>
</glyph>
<glyph name="kcommaaccent" format="1">
  <advance width="434"/>
  <unicode hex="0137"/>
  <outline>
    <contour>
      <point x="265" y="590" type="line"/>
      <point x="183" y="319" type="line"/>
      <point x="271" y="0" type="line"/>
      <point x="429" y="0" type="line"/>
      <point x="329" y="311" type="line"/>
      <point x="414" y="590" type="line"/>
    </contour>
    <contour>
      <point x="45" y="747" type="line"/>
      <point x="45" y="0" type="line"/>
      <point x="191" y="0" type="line"/>
      <point x="191" y="747" type="line"/>
    </contour>
    <contour>
      <point x="184" y="-61" type="line"/>
      <point x="159" y="-216" type="line"/>
      <point x="207" y="-216" type="line"/>
      <point x="225" y="-193"/>
      <point x="265" y="-130"/>
      <point x="265" y="-93" type="curve" smooth="yes"/>
      <point x="265" y="-73"/>
      <point x="255" y="-61"/>
      <point x="230" y="-61" type="curve" smooth="yes"/>
    </contour>
  </outline>
</glyph>
<glyph name="Lcommaaccent" format="1">
  <advance width="387"/>
  <unicode hex="013B"/>
  <outline>
    <contour>
      <point x="45" y="693" type="line"/>
      <point x="45" y="0" type="line"/>
      <point x="382" y="0" type="line"/>
      <point x="382" y="126" type="line"/>
      <point x="197" y="126" type="line"/>
      <point x="197" y="693" type="line"/>
    </contour>
    <contour>
      <point x="167" y="-61" type="line"/>
      <point x="142" y="-216" type="line"/>
      <point x="190" y="-216" type="line"/>
      <point x="208" y="-193"/>
      <point x="248" y="-130"/>
      <point x="248" y="-93" type="curve" smooth="yes"/>
      <point x="248" y="-73"/>
      <point x="238" y="-61"/>
      <point x="213" y="-61" type="curve" smooth="yes"/>
    </contour>
  </outline>
</glyph>
<glyph name="lcommaaccent" format="1">
  <advance width="241"/>
  <unicode hex="013C"/>
  <outline>
    <contour>
      <point x="45" y="747" type="line"/>
      <point x="45" y="0" type="line"/>
      <point x="196" y="0" type="line"/>
      <point x="196" y="747" type="line"/>
    </contour>
    <contour>
      <point x="82" y="-61" type="line"/>
      <point x="57" y="-216" type="line"/>
      <point x="105" y="-216" type="line"/>
      <point x="123" y="-193"/>
      <point x="163" y="-130"/>
      <point x="163" y="-93" type="curve" smooth="yes"/>
      <point x="163" y="-73"/>
      <point x="153" y="-61"/>
      <point x="128" y="-61" type="curve" smooth="yes"/>
    </contour>
  </outline>
</glyph>
<glyph name="Lcaron" format="1">
  <advance width="387"/>
  <unicode hex="013D"/>
  <outline>
    <contour>
      <point x="257" y="747" type="line"/>
      <point x="232" y="592" type="line"/>
      <point x="280" y="592" type="line"/>
      <point x="298" y="615"/>
      <point x="338" y="678"/>
      <point x="338" y="715" type="curve" smooth="yes"/>
      <point x="338" y="735"/>
      <point x="328" y="747"/>
      <point x="303" y="747" type="curve" smooth="yes"/>
    </contour>
    <component base="L"/>
  </outline>
</glyph>
<glyph name="Lslash" format="1">
  <advance width="389"/>
  <unicode hex="0141"/>
  <outline>
    <contour>
      <point x="0" y="341" type="line"/>
      <point x="0" y="241" type="line"/>
      <point x="293" y="361" type="line"/>
      <point x="293" y="461" type="line"/>
    </contour>
    <component base="L" xOffset="10"/>
  </outline>
</glyph>
<glyph name="lslash" format="1">
  <advance width="245"/>
  <unicode hex="0142"/>
  <outline>
    <contour>
      <point x="2" y="471" type="line"/>
      <point x="2" y="371" type="line"/>
      <point x="243" y="468" type="line"/>
      <point x="243" y="568" type="line"/>
    </contour>
    <component base="l" xOffset="2"/>
  </outline>
</glyph>
<glyph name="ncommaaccent" format="1">
  <advance width="463"/>
  <unicode hex="0146"/>
  <outline>
    <contour>
      <point x="187" y="564" type="curve"/>
      <point x="187" y="590" type="line"/>
      <point x="45" y="590" type="line"/>
      <point x="45" y="0" type="line"/>
      <point x="196" y="0" type="line"/>
      <point x="196" y="441" type="line"/>
      <point x="206" y="447"/>
      <point x="224" y="454"/>
      <point x="244" y="454" type="curve" smooth="yes"/>
      <point x="263" y="454"/>
      <point x="270" y="446"/>
      <point x="270" y="430" type="curve" smooth="yes"/>
      <point x="270" y="0" type="line"/>
      <point x="423" y="0" type="line"/>
      <point x="423" y="467" type="line" smooth="yes"/>
      <point x="423" y="555"/>
      <point x="369" y="593"/>
      <point x="298" y="593" type="curve" smooth="yes"/>
      <point x="249" y="593"/>
      <point x="207" y="575"/>
    </contour>
    <contour>
      <point x="196" y="-61" type="line"/>
      <point x="171" y="-216" type="line"/>
      <point x="219" y="-216" type="line"/>
      <point x="237" y="-193"/>
      <point x="277" y="-130"/>
      <point x="277" y="-93" type="curve" smooth="yes"/>
      <point x="277" y="-73"/>
      <point x="267" y="-61"/>
      <point x="242" y="-61" type="curve" smooth="yes"/>
    </contour>
  </outline>
</glyph>
<glyph name="OE" format="1">
  <advance width="712"/>
  <unicode hex="0152"/>
  <outline>
    <contour>
      <point x="225" y="693" type="line"/>
      <point x="119" y="693"/>
      <point x="55" y="642"/>
      <point x="55" y="539" type="curve" smooth="yes"/>
      <point x="55" y="163" type="line" smooth="yes"/>
      <point x="55" y="61"/>
      <point x="101" y="0"/>
      <point x="216" y="0" type="curve" smooth="yes"/>
      <point x="381" y="0" type="line"/>
      <point x="381" y="129" type="line"/>
      <point x="246" y="129" type="line" smooth="yes"/>
      <point x="211" y="129"/>
      <point x="205" y="151"/>
      <point x="205" y="175" type="curve" smooth="yes"/>
      <point x="205" y="533" type="line" smooth="yes"/>
      <point x="205" y="553"/>
      <point x="211" y="570"/>
      <point x="246" y="570" type="curve" smooth="yes"/>
      <point x="391" y="570" type="line"/>
      <point x="391" y="693" type="line"/>
    </contour>
    <component base="E" xOffset="289"/>
  </outline>
</glyph>
<glyph name="oe" format="1">
  <advance width="682"/>
  <unicode hex="0153"/>
  <outline>
    <contour>
      <point x="35" y="439" type="curve" smooth="yes"/>
      <point x="35" y="151" type="line" smooth="yes"/>
      <point x="35" y="53"/>
      <point x="94" y="-10"/>
      <point x="225" y="-10" type="curve" smooth="yes"/>
      <point x="356" y="-10"/>
      <point x="415" y="53"/>
      <point x="415" y="151" type="curve" smooth="yes"/>
      <point x="415" y="439" type="line"/>
      <point x="415" y="537"/>
      <point x="356" y="600"/>
      <point x="225" y="600" type="curve" smooth="yes"/>
      <point x="94" y="600"/>
      <point x="35" y="537"/>
    </contour>
    <contour>
      <point x="267" y="434" type="curve"/>
      <point x="267" y="156" type="line" smooth="yes"/>
      <point x="267" y="133"/>
      <point x="252" y="118"/>
      <point x="225" y="118" type="curve" smooth="yes"/>
      <point x="198" y="118"/>
      <point x="183" y="133"/>
      <point x="183" y="156" type="curve" smooth="yes"/>
      <point x="183" y="434" type="line" smooth="yes"/>
      <point x="183" y="457"/>
      <point x="198" y="472"/>
      <point x="225" y="472" type="curve" smooth="yes"/>
      <point x="252" y="472"/>
      <point x="267" y="457"/>
    </contour>
    <component base="e" xOffset="235"/>
  </outline>
</glyph>
<glyph name="rcommaaccent" format="1">
  <advance width="322"/>
  <unicode hex="0157"/>
  <outline>
    <contour>
      <point x="300" y="593" type="line"/>
      <point x="256" y="593"/>
      <point x="233" y="579"/>
      <point x="187" y="550" type="curve"/>
      <point x="187" y="590" type="line"/>
      <point x="45" y="590" type="line"/>
      <point x="45" y="0" type="line"/>
      <point x="196" y="0" type="line"/>
      <point x="196" y="434" type="line"/>
      <point x="217" y="444"/>
      <point x="253" y="454"/>
      <point x="294" y="454" type="curve"/>
      <point x="317" y="454" type="line"/>
      <point x="317" y="593" type="line"/>
    </contour>
    <contour>
      <point x="82" y="-61" type="line"/>
      <point x="57" y="-216" type="line"/>
      <point x="105" y="-216" type="line"/>
      <point x="123" y="-193"/>
      <point x="163" y="-130"/>
      <point x="163" y="-93" type="curve" smooth="yes"/>
      <point x="163" y="-73"/>
      <point x="153" y="-61"/>
      <point x="128" y="-61" type="curve" smooth="yes"/>
    </contour>
  </outline>
</glyph>
<glyph name="florin" format="1">
  <advance width="394"/>
  <unicode hex="0192"/>
  <outline>
    <contour>
      <point x="161" y="578" type="curve" smooth="yes"/>
      <point x="106" y="163" type="line" smooth="yes"/>
      <point x="102" y="131"/>
      <point x="92" y="115"/>
      <point x="55" y="115" type="curve" smooth="yes"/>
      <point x="45" y="115"/>
      <point x="33" y="116"/>
      <point x="25" y="117" type="curve"/>
      <point x="25" y="1" type="line"/>
      <point x="44" y="-2"/>
      <point x="63" y="-4"/>
      <point x="80" y="-4" type="curve" smooth="yes"/>
      <point x="205" y="-4"/>
      <point x="245" y="62"/>
      <point x="258" y="165" type="curve"/>
      <point x="313" y="580" type="line" smooth="yes"/>
      <point x="317" y="612"/>
      <point x="327" y="628"/>
      <point x="364" y="628" type="curve" smooth="yes"/>
      <point x="374" y="628"/>
      <point x="386" y="627"/>
      <point x="394" y="626" type="curve"/>
      <point x="394" y="742" type="line"/>
      <point x="375" y="745"/>
      <point x="356" y="747"/>
      <point x="339" y="747" type="curve" smooth="yes"/>
      <point x="214" y="747"/>
      <point x="174" y="681"/>
    </contour>
    <contour>
      <point x="61" y="531" type="line"/>
      <point x="61" y="413" type="line"/>
      <point x="365" y="413" type="line"/>
      <point x="365" y="531" type="line"/>
    </contour>
  </outline>
</glyph>
<glyph name="tcommaaccent" format="1">
  <advance width="319"/>
  <unicode hex="021B"/>
  <outline>
    <contour>
      <point x="111" y="692" type="line"/>
      <point x="65" y="590" type="line"/>
      <point x="5" y="590" type="line"/>
      <point x="5" y="463" type="line"/>
      <point x="58" y="463" type="line"/>
      <point x="58" y="147" type="line" smooth="yes"/>
      <point x="58" y="52"/>
      <point x="96" y="-9"/>
      <point x="215" y="-9" type="curve"/>
      <point x="270" y="-9"/>
      <point x="304" y="7"/>
      <point x="304" y="7" type="curve"/>
      <point x="304" y="141" type="line"/>
      <point x="304" y="141"/>
      <point x="282" y="127"/>
      <point x="247" y="127" type="curve"/>
      <point x="220" y="127"/>
      <point x="209" y="141"/>
      <point x="209" y="163" type="curve" smooth="yes"/>
      <point x="209" y="463" type="line"/>
      <point x="298" y="463" type="line"/>
      <point x="298" y="590" type="line"/>
      <point x="209" y="590" type="line"/>
      <point x="209" y="692" type="line"/>
    </contour>
    <contour>
      <point x="152" y="-61" type="line"/>
      <point x="127" y="-216" type="line"/>
      <point x="175" y="-216" type="line"/>
      <point x="193" y="-193"/>
      <point x="233" y="-130"/>
      <point x="233" y="-93" type="curve" smooth="yes"/>
      <point x="233" y="-73"/>
      <point x="223" y="-61"/>
      <point x="198" y="-61" type="curve" smooth="yes"/>
    </contour>
  </outline>
</glyph>
<glyph name="macronmod" format="1">
  <advance width="350"/>
  <unicode hex="02C9"/>
  <outline>
    <contour>
      <point x="41" y="728" type="line"/>
      <point x="41" y="651" type="line"/>
      <point x="308" y="651" type="line"/>
      <point x="308" y="728" type="line"/>
    </contour>
  </outline>
</glyph>
<glyph name="tilde" format="1">
  <advance width="350"/>
  <unicode hex="02DC"/>
  <outline>
    <contour>
      <point x="242" y="744" type="line"/>
      <point x="242" y="740" type="line"/>
      <point x="242" y="715"/>
      <point x="237" y="704"/>
      <point x="221" y="704" type="curve" smooth="yes"/>
      <point x="197" y="704"/>
      <point x="169" y="743"/>
      <point x="117" y="743" type="curve" smooth="yes"/>
      <point x="57" y="743"/>
      <point x="29" y="700"/>
      <point x="28" y="635" type="curve"/>
      <point x="28" y="633" type="line"/>
      <point x="107" y="633" type="line"/>
      <point x="107" y="636" type="line"/>
      <point x="107" y="662"/>
      <point x="112" y="673"/>
      <point x="128" y="673" type="curve" smooth="yes"/>
      <point x="152" y="673"/>
      <point x="184" y="634"/>
      <point x="232" y="634" type="curve" smooth="yes"/>
      <point x="292" y="634"/>
      <point x="320" y="676"/>
      <point x="321" y="739" type="curve"/>
      <point x="321" y="744" type="line"/>
    </contour>
  </outline>
</glyph>
<glyph name="hungarumlaut" format="1">
  <advance width="350"/>
  <unicode hex="02DD"/>
  <outline>
    <contour>
      <point x="209" y="747" type="line"/>
      <point x="160" y="632" type="line"/>
      <point x="229" y="632" type="line"/>
      <point x="309" y="747" type="line"/>
    </contour>
    <contour>
      <point x="89" y="747" type="line"/>
      <point x="40" y="632" type="line"/>
      <point x="109" y="632" type="line"/>
      <point x="189" y="747" type="line"/>
    </contour>
  </outline>
</glyph>
<glyph name="pi" format="1">
  <advance width="457"/>
  <unicode hex="03C0"/>
  <outline>
    <contour>
      <point x="-20" y="590" type="line"/>
      <point x="-20" y="463" type="line"/>
      <point x="40" y="463" type="line"/>
      <point x="40" y="0" type="line"/>
      <point x="190" y="0" type="line"/>
      <point x="190" y="463" type="line"/>
      <point x="264" y="463" type="line"/>
      <point x="264" y="0" type="line"/>
      <point x="417" y="0" type="line"/>
      <point x="417" y="463" type="line"/>
      <point x="477" y="463" type="line"/>
      <point x="477" y="590" type="line"/>
    </contour>
  </outline>
</glyph>
<glyph name="dvCandrabindu" format="1">
  <advance width="0"/>
  <unicode hex="0901"/>
  <outline>
    <contour>
      <point x="-42" y="671" type="move" name="_abvm.bindu"/>
    </contour>
    <contour>
      <point x="-181" y="980" type="curve" smooth="yes"/>
      <point x="-181" y="940"/>
      <point x="-167" y="910"/>
      <point x="-111" y="910" type="curve" smooth="yes"/>
      <point x="-55" y="910"/>
      <point x="-41" y="940"/>
      <point x="-41" y="980" type="curve" smooth="yes"/>
      <point x="-41" y="1020"/>
      <point x="-55" y="1050"/>
      <point x="-111" y="1050" type="curve" smooth="yes"/>
      <point x="-167" y="1050"/>
      <point x="-181" y="1020"/>
    </contour>
    <contour>
      <point x="-41" y="906" type="line"/>
      <point x="-41" y="870"/>
      <point x="-63" y="855"/>
      <point x="-111" y="855" type="curve" smooth="yes"/>
      <point x="-162" y="855"/>
      <point x="-182" y="870"/>
      <point x="-182" y="906" type="curve"/>
      <point x="-322" y="906" type="line"/>
      <point x="-322" y="901" type="line" smooth="yes"/>
      <point x="-322" y="788"/>
      <point x="-249" y="734"/>
      <point x="-111" y="734" type="curve" smooth="yes"/>
      <point x="27" y="734"/>
      <point x="98" y="788"/>
      <point x="98" y="901" type="curve" smooth="yes"/>
      <point x="98" y="906" type="line"/>
    </contour>
  </outline>
</glyph>
<glyph name="dvVisarga" format="1">
  <advance width="249"/>
  <unicode hex="0903"/>
  <outline>
    <contour>
      <point x="49" y="418" type="curve" smooth="yes"/>
      <point x="49" y="376"/>
      <point x="65" y="343"/>
      <point x="124" y="343" type="curve" smooth="yes"/>
      <point x="182" y="343"/>
      <point x="199" y="376"/>
      <point x="199" y="418" type="curve" smooth="yes"/>
      <point x="199" y="460"/>
      <point x="182" y="493"/>
      <point x="124" y="493" type="curve" smooth="yes"/>
      <point x="65" y="493"/>
      <point x="49" y="460"/>
    </contour>
    <contour>
      <point x="49" y="75" type="curve" smooth="yes"/>
      <point x="49" y="33"/>
      <point x="66" y="0"/>
      <point x="125" y="0" type="curve" smooth="yes"/>
      <point x="183" y="0"/>
      <point x="199" y="33"/>
      <point x="199" y="75" type="curve" smooth="yes"/>
      <point x="199" y="117"/>
      <point x="182" y="150"/>
      <point x="124" y="150" type="curve" smooth="yes"/>
      <point x="65" y="150"/>
      <point x="49" y="117"/>
    </contour>
  </outline>
</glyph>
<glyph name="dvUU" format="1">
  <advance width="600"/>
  <unicode hex="090A"/>
  <outline>
    <contour>
      <point x="359" y="671" type="move" name="abvm.bindu"/>
    </contour>
    <contour>
      <point x="404" y="0" type="line"/>
      <point x="404" y="0"/>
      <point x="421" y="-2"/>
      <point x="433" y="-2" type="curve"/>
      <point x="531" y="-2"/>
      <point x="583" y="56"/>
      <point x="583" y="163" type="curve" smooth="yes"/>
      <point x="583" y="244" type="line" smooth="yes"/>
      <point x="583" y="347"/>
      <point x="527" y="392"/>
      <point x="426" y="392" type="curve" smooth="yes"/>
      <point x="356" y="392"/>
      <point x="296" y="358"/>
      <point x="296" y="358" type="curve"/>
      <point x="296" y="263" type="line"/>
      <point x="296" y="263"/>
      <point x="358" y="263"/>
      <point x="400" y="263" type="curve" smooth="yes"/>
      <point x="433" y="263"/>
      <point x="443" y="249"/>
      <point x="443" y="216" type="curve" smooth="yes"/>
      <point x="443" y="168" type="line" smooth="yes"/>
      <point x="443" y="138"/>
      <point x="438" y="130"/>
      <point x="413" y="129" type="curve"/>
      <point x="404" y="129" type="line"/>
    </contour>
    <contour>
      <point x="365" y="228" type="line"/>
      <point x="365" y="279"/>
      <point x="351" y="311"/>
      <point x="324" y="330" type="curve"/>
      <point x="351" y="348"/>
      <point x="365" y="378"/>
      <point x="365" y="430" type="curve" smooth="yes"/>
      <point x="365" y="507" type="line" smooth="yes"/>
      <point x="365" y="537"/>
      <point x="354" y="554"/>
      <point x="354" y="554" type="curve"/>
      <point x="640" y="554" type="line"/>
      <point x="640" y="671" type="line"/>
      <point x="-40" y="671" type="line"/>
      <point x="-40" y="554" type="line"/>
      <point x="214" y="554" type="line"/>
      <point x="214" y="554"/>
      <point x="225" y="541"/>
      <point x="225" y="507" type="curve" smooth="yes"/>
      <point x="225" y="435" type="line" smooth="yes"/>
      <point x="225" y="412"/>
      <point x="219" y="396"/>
      <point x="186" y="396" type="curve" smooth="yes"/>
      <point x="115" y="396" type="line"/>
      <point x="115" y="267" type="line"/>
      <point x="176" y="267" type="line" smooth="yes"/>
      <point x="213" y="267"/>
      <point x="225" y="246"/>
      <point x="225" y="218" type="curve" smooth="yes"/>
      <point x="225" y="171" type="line" smooth="yes"/>
      <point x="225" y="133"/>
      <point x="196" y="122"/>
      <point x="158" y="122" type="curve" smooth="yes"/>
      <point x="116" y="122"/>
      <point x="76" y="128"/>
      <point x="39" y="135" type="curve"/>
      <point x="39" y="8" type="line"/>
      <point x="85" y="0"/>
      <point x="120" y="-5"/>
      <point x="160" y="-5" type="curve" smooth="yes"/>
      <point x="296" y="-5"/>
      <point x="365" y="52"/>
      <point x="365" y="168" type="curve" smooth="yes"/>
    </contour>
  </outline>
</glyph>
<glyph name="dvvL" format="1">
  <advance width="649"/>
  <unicode hex="090C"/>
  <outline>
    <contour>
      <point x="606" y="63" type="curve"/>
      <point x="606" y="190" type="line"/>
      <point x="606" y="190"/>
      <point x="544" y="200"/>
      <point x="501" y="200" type="curve"/>
      <point x="378" y="200"/>
      <point x="314" y="140"/>
      <point x="314" y="32" type="curve" smooth="yes"/>
      <point x="314" y="-76"/>
      <point x="378" y="-136"/>
      <point x="501" y="-136" type="curve"/>
      <point x="546" y="-136"/>
      <point x="580" y="-131"/>
      <point x="607" y="-126" type="curve"/>
      <point x="607" y="1" type="line"/>
      <point x="566" y="-5"/>
      <point x="540" y="-8"/>
      <point x="504" y="-8" type="curve" smooth="yes"/>
      <point x="474" y="-8"/>
      <point x="452" y="1"/>
      <point x="452" y="32" type="curve"/>
      <point x="452" y="63"/>
      <point x="474" y="72"/>
      <point x="504" y="72" type="curve"/>
      <point x="540" y="72"/>
      <point x="566" y="69"/>
    </contour>
    <contour>
      <point x="30" y="182" type="line"/>
      <point x="30" y="59"/>
      <point x="90" y="0"/>
      <point x="229" y="0" type="curve"/>
      <point x="243" y="0"/>
      <point x="262" y="2"/>
      <point x="270" y="3" type="curve"/>
      <point x="270" y="131" type="line"/>
      <point x="260" y="130"/>
      <point x="245" y="129"/>
      <point x="233" y="129" type="curve"/>
      <point x="180" y="129"/>
      <point x="170" y="155"/>
      <point x="170" y="188" type="curve" smooth="yes"/>
      <point x="170" y="326" type="line" smooth="yes"/>
      <point x="170" y="349"/>
      <point x="176" y="365"/>
      <point x="209" y="365" type="curve" smooth="yes"/>
      <point x="242" y="365"/>
      <point x="248" y="349"/>
      <point x="248" y="326" type="curve" smooth="yes"/>
      <point x="248" y="222" type="line"/>
      <point x="388" y="222" type="line"/>
      <point x="388" y="326" type="line" smooth="yes"/>
      <point x="388" y="349"/>
      <point x="398" y="365"/>
      <point x="431" y="365" type="curve"/>
      <point x="445" y="365"/>
      <point x="457" y="363"/>
      <point x="466" y="360" type="curve"/>
      <point x="466" y="160" type="line"/>
      <point x="606" y="160" type="line"/>
      <point x="606" y="554" type="line"/>
      <point x="689" y="554" type="line"/>
      <point x="689" y="671" type="line"/>
      <point x="-40" y="671" type="line"/>
      <point x="-40" y="554" type="line"/>
      <point x="466" y="554" type="line"/>
      <point x="466" y="488" type="line"/>
      <point x="452" y="491"/>
      <point x="434" y="493"/>
      <point x="418" y="493" type="curve"/>
      <point x="360" y="493"/>
      <point x="335" y="469"/>
      <point x="315" y="439" type="curve"/>
      <point x="303" y="463"/>
      <point x="270" y="494"/>
      <point x="204" y="494" type="curve" smooth="yes"/>
      <point x="91" y="494"/>
      <point x="30" y="434"/>
      <point x="30" y="331" type="curve" smooth="yes"/>
    </contour>
  </outline>
</glyph>
<glyph name="dvNGA" format="1">
  <advance width="554"/>
  <unicode hex="0919"/>
  <outline>
    <contour>
      <point x="301" y="-56" type="move" name="blwm.u"/>
    </contour>
    <contour>
      <point x="292" y="-5" type="move" name="blwm.virama"/>
    </contour>
    <contour>
      <point x="378" y="671" type="move" name="abvm.e"/>
    </contour>
    <contour>
      <point x="378" y="671" type="move" name="abvm.bindu"/>
    </contour>
    <contour>
      <point x="408" y="163" type="line"/>
      <point x="408" y="266"/>
      <point x="352" y="312"/>
      <point x="229" y="312" type="curve" smooth="yes"/>
      <point x="204" y="312" type="line" smooth="yes"/>
      <point x="181" y="312"/>
      <point x="175" y="324"/>
      <point x="175" y="343" type="curve" smooth="yes"/>
      <point x="175" y="353" type="line" smooth="yes"/>
      <point x="175" y="372"/>
      <point x="182" y="384"/>
      <point x="204" y="384" type="curve" smooth="yes"/>
      <point x="378" y="384" type="line"/>
      <point x="378" y="554" type="line"/>
      <point x="594" y="554" type="line"/>
      <point x="594" y="671" type="line"/>
      <point x="-40" y="671" type="line"/>
      <point x="-40" y="554" type="line"/>
      <point x="238" y="554" type="line"/>
      <point x="238" y="504" type="line"/>
      <point x="204" y="504" type="line" smooth="yes"/>
      <point x="91" y="504"/>
      <point x="35" y="465"/>
      <point x="35" y="362" type="curve" smooth="yes"/>
      <point x="35" y="336" type="line" smooth="yes"/>
      <point x="35" y="233"/>
      <point x="96" y="195"/>
      <point x="204" y="195" type="curve" smooth="yes"/>
      <point x="229" y="195" type="line" smooth="yes"/>
      <point x="262" y="195"/>
      <point x="268" y="180"/>
      <point x="268" y="160" type="curve" smooth="yes"/>
      <point x="268" y="156" type="line" smooth="yes"/>
      <point x="268" y="118"/>
      <point x="239" y="116"/>
      <point x="194" y="116" type="curve" smooth="yes"/>
      <point x="146" y="116"/>
      <point x="93" y="124"/>
      <point x="51" y="133" type="curve"/>
      <point x="51" y="6" type="line"/>
      <point x="93" y="-3"/>
      <point x="135" y="-11"/>
      <point x="194" y="-11" type="curve" smooth="yes"/>
      <point x="339" y="-11"/>
      <point x="408" y="42"/>
      <point x="408" y="156" type="curve" smooth="yes"/>
    </contour>
    <contour>
      <point x="396" y="318" type="curve" smooth="yes"/>
      <point x="396" y="276"/>
      <point x="412" y="243"/>
      <point x="471" y="243" type="curve" smooth="yes"/>
      <point x="529" y="243"/>
      <point x="546" y="276"/>
      <point x="546" y="318" type="curve" smooth="yes"/>
      <point x="546" y="360"/>
      <point x="529" y="393"/>
      <point x="471" y="393" type="curve" smooth="yes"/>
      <point x="412" y="393"/>
      <point x="396" y="360"/>
    </contour>
  </outline>
</glyph>
<glyph name="dvCA" format="1">
  <advance width="489"/>
  <unicode hex="091A"/>
  <outline>
    <contour>
      <point x="207" y="315" type="line"/>
      <point x="207" y="357"/>
      <point x="218" y="371"/>
      <point x="218" y="371" type="curve"/>
      <point x="271" y="371" type="line"/>
      <point x="271" y="491" type="line"/>
      <point x="13" y="491" type="line"/>
      <point x="13" y="365" type="line"/>
      <point x="73" y="365" type="line"/>
      <point x="73" y="365"/>
      <point x="67" y="346"/>
      <point x="67" y="316" type="curve"/>
      <point x="67" y="219" type="line" smooth="yes"/>
      <point x="67" y="106"/>
      <point x="119" y="53"/>
      <point x="234" y="53" type="curve"/>
      <point x="260" y="53"/>
      <point x="287" y="56"/>
      <point x="307" y="61" type="curve"/>
      <point x="307" y="0" type="line"/>
      <point x="447" y="0" type="line"/>
      <point x="447" y="554" type="line"/>
      <point x="528" y="554" type="line"/>
      <point x="528" y="671" type="line"/>
      <point x="-40" y="671" type="line"/>
      <point x="-40" y="554" type="line"/>
      <point x="307" y="554" type="line"/>
      <point x="307" y="183" type="line"/>
      <point x="295" y="179"/>
      <point x="280" y="176"/>
      <point x="261" y="176" type="curve"/>
      <point x="228" y="176"/>
      <point x="207" y="189"/>
      <point x="207" y="224" type="curve" smooth="yes"/>
    </contour>
  </outline>
</glyph>
<glyph name="dvNYA" format="1">
  <advance width="605"/>
  <unicode hex="091E"/>
  <outline>
    <contour>
      <point x="210" y="332" type="line"/>
      <point x="210" y="367"/>
      <point x="194" y="388"/>
      <point x="140" y="388" type="curve" smooth="yes"/>
      <point x="108" y="388"/>
      <point x="83" y="384"/>
      <point x="60" y="378" type="curve"/>
      <point x="60" y="502" type="line"/>
      <point x="84" y="510"/>
      <point x="111" y="515"/>
      <point x="143" y="515" type="curve" smooth="yes"/>
      <point x="296" y="515"/>
      <point x="350" y="448"/>
      <point x="350" y="343" type="curve" smooth="yes"/>
      <point x="350" y="338" type="line"/>
      <point x="423" y="338" type="line"/>
      <point x="423" y="554" type="line"/>
      <point x="-40" y="554" type="line"/>
      <point x="-40" y="671" type="line"/>
      <point x="644" y="671" type="line"/>
      <point x="644" y="554" type="line"/>
      <point x="563" y="554" type="line"/>
      <point x="563" y="0" type="line"/>
      <point x="423" y="0" type="line"/>
      <point x="423" y="218" type="line"/>
      <point x="350" y="218" type="line"/>
      <point x="350" y="213" type="line"/>
      <point x="350" y="108"/>
      <point x="296" y="43"/>
      <point x="143" y="43" type="curve" smooth="yes"/>
      <point x="109" y="43"/>
      <point x="84" y="49"/>
      <point x="60" y="56" type="curve"/>
      <point x="60" y="180" type="line"/>
      <point x="85" y="174"/>
      <point x="105" y="170"/>
      <point x="140" y="170" type="curve" smooth="yes"/>
      <point x="194" y="170"/>
      <point x="210" y="191"/>
      <point x="210" y="226" type="curve"/>
    </contour>
  </outline>
</glyph>
<glyph name="dvTTHA" format="1">
  <advance width="428"/>
  <unicode hex="0920"/>
  <outline>
    <contour>
      <point x="284" y="-56" type="move" name="blwm.u"/>
    </contour>
    <contour>
      <point x="283" y="-5" type="move" name="blwm.virama"/>
    </contour>
    <contour>
      <point x="284" y="671" type="move" name="abvm.e"/>
    </contour>
    <contour>
      <point x="284" y="671" type="move" name="abvm.bindu"/>
    </contour>
    <contour>
      <point x="393" y="354" type="line"/>
      <point x="393" y="435"/>
      <point x="358" y="485"/>
      <point x="284" y="502" type="curve"/>
      <point x="284" y="554" type="line"/>
      <point x="467" y="554" type="line"/>
      <point x="467" y="671" type="line"/>
      <point x="-40" y="671" type="line"/>
      <point x="-40" y="554" type="line"/>
      <point x="144" y="554" type="line"/>
      <point x="144" y="502" type="line"/>
      <point x="69" y="485"/>
      <point x="35" y="435"/>
      <point x="35" y="354" type="curve" smooth="yes"/>
      <point x="35" y="158" type="line" smooth="yes"/>
      <point x="35" y="55"/>
      <point x="91" y="-5"/>
      <point x="214" y="-5" type="curve" smooth="yes"/>
      <point x="337" y="-5"/>
      <point x="393" y="55"/>
      <point x="393" y="158" type="curve" smooth="yes"/>
    </contour>
    <contour>
      <point x="258" y="156" type="line"/>
      <point x="258" y="132"/>
      <point x="249" y="114"/>
      <point x="214" y="114" type="curve" smooth="yes"/>
      <point x="179" y="114"/>
      <point x="170" y="132"/>
      <point x="170" y="156" type="curve" smooth="yes"/>
      <point x="170" y="349" type="line" smooth="yes"/>
      <point x="170" y="373"/>
      <point x="179" y="391"/>
      <point x="214" y="391" type="curve" smooth="yes"/>
      <point x="249" y="391"/>
      <point x="258" y="373"/>
      <point x="258" y="349" type="curve" smooth="yes"/>
    </contour>
  </outline>
</glyph>
<glyph name="dvDDA" format="1">
  <advance width="429"/>
  <unicode hex="0921"/>
  <outline>
    <contour>
      <point x="295" y="-56" type="move" name="blwm.u"/>
    </contour>
    <contour>
      <point x="276" y="-5" type="move" name="blwm.virama"/>
    </contour>
    <contour>
      <point x="377" y="671" type="move" name="abvm.e"/>
    </contour>
    <contour>
      <point x="377" y="671" type="move" name="abvm.bindu"/>
    </contour>
    <contour>
      <point x="408" y="163" type="line"/>
      <point x="408" y="266"/>
      <point x="352" y="312"/>
      <point x="229" y="312" type="curve" smooth="yes"/>
      <point x="204" y="312" type="line" smooth="yes"/>
      <point x="181" y="312"/>
      <point x="175" y="324"/>
      <point x="175" y="343" type="curve" smooth="yes"/>
      <point x="175" y="353" type="line" smooth="yes"/>
      <point x="175" y="372"/>
      <point x="182" y="384"/>
      <point x="204" y="384" type="curve" smooth="yes"/>
      <point x="378" y="384" type="line"/>
      <point x="378" y="554" type="line"/>
      <point x="469" y="554" type="line"/>
      <point x="469" y="671" type="line"/>
      <point x="-40" y="671" type="line"/>
      <point x="-40" y="554" type="line"/>
      <point x="238" y="554" type="line"/>
      <point x="238" y="504" type="line"/>
      <point x="204" y="504" type="line" smooth="yes"/>
      <point x="91" y="504"/>
      <point x="35" y="465"/>
      <point x="35" y="362" type="curve" smooth="yes"/>
      <point x="35" y="336" type="line" smooth="yes"/>
      <point x="35" y="233"/>
      <point x="96" y="195"/>
      <point x="204" y="195" type="curve" smooth="yes"/>
      <point x="229" y="195" type="line" smooth="yes"/>
      <point x="262" y="195"/>
      <point x="268" y="178"/>
      <point x="268" y="158" type="curve" smooth="yes"/>
      <point x="268" y="159" type="line" smooth="yes"/>
      <point x="268" y="121"/>
      <point x="239" y="116"/>
      <point x="194" y="116" type="curve" smooth="yes"/>
      <point x="141" y="116"/>
      <point x="90" y="125"/>
      <point x="51" y="133" type="curve"/>
      <point x="51" y="6" type="line"/>
      <point x="96" y="-4"/>
      <point x="138" y="-11"/>
      <point x="194" y="-11" type="curve" smooth="yes"/>
      <point x="339" y="-11"/>
      <point x="408" y="42"/>
      <point x="408" y="156" type="curve" smooth="yes"/>
    </contour>
  </outline>
</glyph>
<glyph name="dvDA" format="1">
  <advance width="430"/>
  <unicode hex="0926"/>
  <outline>
    <contour>
      <point x="392" y="0" type="move" name="blwm.u"/>
    </contour>
    <contour>
      <point x="392" y="0" type="move" name="blwm.virama"/>
    </contour>
    <contour>
      <point x="383" y="671" type="move" name="abvm.e"/>
    </contour>
    <contour>
      <point x="383" y="671" type="move" name="abvm.bindu"/>
    </contour>
    <contour>
      <point x="30" y="217" type="line"/>
      <point x="30" y="114"/>
      <point x="78" y="61"/>
      <point x="191" y="61" type="curve"/>
      <point x="218" y="61"/>
      <point x="240" y="64"/>
      <point x="252" y="67" type="curve"/>
      <point x="252" y="0" type="line"/>
      <point x="392" y="0" type="line"/>
      <point x="392" y="278" type="line"/>
      <point x="252" y="278" type="line"/>
      <point x="252" y="190" type="line"/>
      <point x="242" y="187"/>
      <point x="230" y="184"/>
      <point x="213" y="184" type="curve"/>
      <point x="178" y="184"/>
      <point x="170" y="198"/>
      <point x="170" y="222" type="curve" smooth="yes"/>
      <point x="170" y="331" type="line" smooth="yes"/>
      <point x="170" y="355"/>
      <point x="176" y="368"/>
      <point x="211" y="368" type="curve" smooth="yes"/>
      <point x="383" y="368" type="line"/>
      <point x="383" y="554" type="line"/>
      <point x="470" y="554" type="line"/>
      <point x="470" y="671" type="line"/>
      <point x="-40" y="671" type="line"/>
      <point x="-40" y="554" type="line"/>
      <point x="243" y="554" type="line"/>
      <point x="243" y="495" type="line"/>
      <point x="211" y="495" type="line" smooth="yes"/>
      <point x="88" y="495"/>
      <point x="30" y="456"/>
      <point x="30" y="336" type="curve" smooth="yes"/>
    </contour>
  </outline>
</glyph>
<glyph name="dvDHA" format="1">
  <advance width="505"/>
  <unicode hex="0927"/>
  <outline>
    <contour>
      <point x="52" y="554" type="line"/>
      <point x="52" y="554"/>
      <point x="41" y="537"/>
      <point x="41" y="507" type="curve"/>
      <point x="41" y="465" type="line" smooth="yes"/>
      <point x="41" y="419"/>
      <point x="54" y="389"/>
      <point x="79" y="370" type="curve"/>
      <point x="50" y="353"/>
      <point x="35" y="322"/>
      <point x="35" y="268" type="curve" smooth="yes"/>
      <point x="35" y="217" type="line" smooth="yes"/>
      <point x="35" y="120"/>
      <point x="98" y="57"/>
      <point x="229" y="57" type="curve"/>
      <point x="272" y="57"/>
      <point x="303" y="62"/>
      <point x="323" y="67" type="curve"/>
      <point x="323" y="0" type="line"/>
      <point x="463" y="0" type="line"/>
      <point x="463" y="554" type="line"/>
      <point x="545" y="554" type="line"/>
      <point x="545" y="671" type="line"/>
      <point x="323" y="671" type="line"/>
      <point x="323" y="192" type="line"/>
      <point x="299" y="186"/>
      <point x="279" y="182"/>
      <point x="249" y="182" type="curve"/>
      <point x="204" y="182"/>
      <point x="175" y="194"/>
      <point x="175" y="235" type="curve" smooth="yes"/>
      <point x="175" y="263" type="line" smooth="yes"/>
      <point x="175" y="286"/>
      <point x="181" y="302"/>
      <point x="214" y="302" type="curve" smooth="yes"/>
      <point x="264" y="302" type="line"/>
      <point x="264" y="431" type="line"/>
      <point x="220" y="431" type="line" smooth="yes"/>
      <point x="187" y="431"/>
      <point x="181" y="447"/>
      <point x="181" y="470" type="curve" smooth="yes"/>
      <point x="181" y="507" type="line"/>
      <point x="181" y="541"/>
      <point x="197" y="554"/>
      <point x="197" y="554" type="curve"/>
      <point x="253" y="554" type="line"/>
      <point x="253" y="671" type="line"/>
      <point x="-40" y="671" type="line"/>
      <point x="-40" y="554" type="line"/>
    </contour>
  </outline>
</glyph>
<glyph name="dvNA" format="1">
  <advance width="608"/>
  <unicode hex="0928"/>
  <outline>
    <contour>
      <point x="426" y="362" type="line"/>
      <point x="426" y="0" type="line"/>
      <point x="566" y="0" type="line"/>
      <point x="566" y="554" type="line"/>
      <point x="648" y="554" type="line"/>
      <point x="648" y="671" type="line"/>
      <point x="-40" y="671" type="line"/>
      <point x="-40" y="554" type="line"/>
      <point x="426" y="554" type="line"/>
      <point x="426" y="491" type="line"/>
      <point x="199" y="491" type="line" smooth="yes"/>
      <point x="76" y="491"/>
      <point x="30" y="431"/>
      <point x="30" y="328" type="curve" smooth="yes"/>
      <point x="30" y="215" type="line" smooth="yes"/>
      <point x="30" y="112"/>
      <point x="76" y="52"/>
      <point x="199" y="52" type="curve" smooth="yes"/>
      <point x="322" y="52"/>
      <point x="366" y="112"/>
      <point x="366" y="215" type="curve"/>
      <point x="366" y="306" type="line"/>
      <point x="366" y="326"/>
      <point x="362" y="355"/>
      <point x="360" y="362" type="curve"/>
    </contour>
    <contour>
      <point x="228" y="362" type="line"/>
      <point x="232" y="352"/>
      <point x="235" y="327"/>
      <point x="235" y="301" type="curve"/>
      <point x="235" y="216" type="line" smooth="yes"/>
      <point x="235" y="193"/>
      <point x="230" y="177"/>
      <point x="199" y="177" type="curve" smooth="yes"/>
      <point x="168" y="177"/>
      <point x="163" y="193"/>
      <point x="163" y="216" type="curve" smooth="yes"/>
      <point x="163" y="323" type="line" smooth="yes"/>
      <point x="163" y="346"/>
      <point x="168" y="362"/>
      <point x="199" y="362" type="curve"/>
    </contour>
  </outline>
</glyph>
<glyph name="dvPHA" format="1">
  <advance width="644"/>
  <unicode hex="092B"/>
  <outline>
    <contour>
      <point x="396" y="0" type="move" name="blwm.u"/>
    </contour>
    <contour>
      <point x="396" y="0" type="move" name="blwm.virama"/>
    </contour>
    <contour>
      <point x="396" y="671" type="move" name="abvm.e"/>
    </contour>
    <contour>
      <point x="396" y="671" type="move" name="abvm.bindu"/>
    </contour>
    <contour>
      <point x="256" y="0" type="line"/>
      <point x="396" y="0" type="line"/>
      <point x="396" y="366" type="line"/>
      <point x="396" y="366"/>
      <point x="411" y="372"/>
      <point x="432" y="372" type="curve"/>
      <point x="465" y="372"/>
      <point x="474" y="356"/>
      <point x="474" y="333" type="curve" smooth="yes"/>
      <point x="474" y="228" type="line" smooth="yes"/>
      <point x="474" y="198"/>
      <point x="468" y="189"/>
      <point x="438" y="189" type="curve"/>
      <point x="438" y="59" type="line"/>
      <point x="444" y="58"/>
      <point x="449" y="58"/>
      <point x="455" y="58" type="curve" smooth="yes"/>
      <point x="568" y="58"/>
      <point x="614" y="111"/>
      <point x="614" y="214" type="curve" smooth="yes"/>
      <point x="614" y="338" type="line" smooth="yes"/>
      <point x="614" y="441"/>
      <point x="565" y="501"/>
      <point x="452" y="501" type="curve"/>
      <point x="418" y="501"/>
      <point x="396" y="493"/>
      <point x="396" y="493" type="curve"/>
      <point x="396" y="554" type="line"/>
      <point x="684" y="554" type="line"/>
      <point x="684" y="671" type="line"/>
      <point x="-40" y="671" type="line"/>
      <point x="-40" y="554" type="line"/>
      <point x="38" y="554" type="line"/>
      <point x="38" y="258" type="line"/>
      <point x="38" y="155"/>
      <point x="81" y="100"/>
      <point x="199" y="100" type="curve" smooth="yes"/>
      <point x="226" y="100"/>
      <point x="246" y="104"/>
      <point x="256" y="106" type="curve"/>
    </contour>
    <contour>
      <point x="256" y="228" type="line"/>
      <point x="249" y="226"/>
      <point x="237" y="224"/>
      <point x="223" y="224" type="curve" smooth="yes"/>
      <point x="187" y="224"/>
      <point x="178" y="241"/>
      <point x="178" y="264" type="curve"/>
      <point x="178" y="554" type="line"/>
      <point x="256" y="554" type="line"/>
    </contour>
  </outline>
</glyph>
<glyph name="dvYA" format="1">
  <advance width="527"/>
  <unicode hex="092F"/>
  <outline>
    <contour>
      <point x="279" y="507" type="line"/>
      <point x="279" y="534"/>
      <point x="273" y="554"/>
      <point x="273" y="554" type="curve"/>
      <point x="345" y="554" type="line"/>
      <point x="345" y="224" type="line"/>
      <point x="322" y="218"/>
      <point x="298" y="216"/>
      <point x="270" y="216" type="curve"/>
      <point x="199" y="216"/>
      <point x="167" y="243"/>
      <point x="167" y="290" type="curve" smooth="yes"/>
      <point x="167" y="308" type="line"/>
      <point x="244" y="312"/>
      <point x="279" y="353"/>
      <point x="279" y="430" type="curve" smooth="yes"/>
    </contour>
    <contour>
      <point x="136" y="554" type="line"/>
      <point x="136" y="554"/>
      <point x="143" y="541"/>
      <point x="143" y="507" type="curve" smooth="yes"/>
      <point x="143" y="459" type="line"/>
      <point x="143" y="409"/>
      <point x="122" y="396"/>
      <point x="54" y="396" type="curve" smooth="yes"/>
      <point x="30" y="396" type="line"/>
      <point x="30" y="270" type="line" smooth="yes"/>
      <point x="30" y="153"/>
      <point x="123" y="86"/>
      <point x="262" y="86" type="curve"/>
      <point x="295" y="86"/>
      <point x="324" y="89"/>
      <point x="345" y="95" type="curve"/>
      <point x="345" y="0" type="line"/>
      <point x="485" y="0" type="line"/>
      <point x="485" y="554" type="line"/>
      <point x="567" y="554" type="line"/>
      <point x="567" y="671" type="line"/>
      <point x="-40" y="671" type="line"/>
      <point x="-40" y="554" type="line"/>
    </contour>
  </outline>
</glyph>
<glyph name="dvRA" format="1">
  <advance width="438"/>
  <unicode hex="0930"/>
  <outline>
    <contour>
      <point x="294" y="0" type="move" name="blwm.virama"/>
    </contour>
    <contour>
      <point x="381" y="671" type="move" name="abvm.bindu"/>
    </contour>
    <contour>
      <point x="381" y="671" type="move" name="abvm.e"/>
    </contour>
    <contour>
      <point x="404" y="147" type="line"/>
      <point x="368" y="132"/>
      <point x="328" y="121"/>
      <point x="272" y="121" type="curve" smooth="yes"/>
      <point x="210" y="121"/>
      <point x="180" y="138"/>
      <point x="180" y="179" type="curve" smooth="yes"/>
      <point x="180" y="249" type="line"/>
      <point x="180" y="249"/>
      <point x="211" y="242"/>
      <point x="240" y="242" type="curve" smooth="yes"/>
      <point x="353" y="242"/>
      <point x="398" y="299"/>
      <point x="398" y="402" type="curve" smooth="yes"/>
      <point x="398" y="507" type="line" smooth="yes"/>
      <point x="398" y="538"/>
      <point x="392" y="554"/>
      <point x="392" y="554" type="curve"/>
      <point x="477" y="554" type="line"/>
      <point x="477" y="671" type="line"/>
      <point x="-40" y="671" type="line"/>
      <point x="-40" y="554" type="line"/>
      <point x="248" y="554" type="line"/>
      <point x="248" y="554"/>
      <point x="258" y="541"/>
      <point x="258" y="507" type="curve" smooth="yes"/>
      <point x="258" y="404" type="line" smooth="yes"/>
      <point x="258" y="381"/>
      <point x="252" y="365"/>
      <point x="219" y="365" type="curve" smooth="yes"/>
      <point x="198" y="365"/>
      <point x="180" y="370"/>
      <point x="180" y="370" type="curve"/>
      <point x="180" y="451" type="line"/>
      <point x="40" y="451" type="line"/>
      <point x="40" y="174" type="line" smooth="yes"/>
      <point x="40" y="71"/>
      <point x="106" y="-5"/>
      <point x="249" y="-5" type="curve" smooth="yes"/>
      <point x="311" y="-5"/>
      <point x="367" y="4"/>
      <point x="404" y="17" type="curve"/>
    </contour>
  </outline>
</glyph>
<glyph name="dvNukta" format="1">
  <advance width="0"/>
  <unicode hex="093C"/>
  <outline>
    <contour>
      <point x="-279" y="-124" type="curve" smooth="yes"/>
      <point x="-279" y="-166"/>
      <point x="-263" y="-199"/>
      <point x="-204" y="-199" type="curve" smooth="yes"/>
      <point x="-146" y="-199"/>
      <point x="-129" y="-166"/>
      <point x="-129" y="-124" type="curve" smooth="yes"/>
      <point x="-129" y="-82"/>
      <point x="-146" y="-49"/>
      <point x="-204" y="-49" type="curve" smooth="yes"/>
      <point x="-263" y="-49"/>
      <point x="-279" y="-82"/>
    </contour>
  </outline>
</glyph>
<glyph name="dvmAA" format="1">
  <advance width="224"/>
  <unicode hex="093E"/>
  <outline>
    <contour>
      <point x="42" y="554" type="line"/>
      <point x="42" y="0" type="line"/>
      <point x="182" y="0" type="line"/>
      <point x="182" y="554" type="line"/>
      <point x="264" y="554" type="line"/>
      <point x="264" y="671" type="line"/>
      <point x="-40" y="671" type="line"/>
      <point x="-40" y="554" type="line"/>
    </contour>
  </outline>
</glyph>
<glyph name="dvmI" format="1">
  <advance width="224"/>
  <unicode hex="093F"/>
  <outline>
    <contour>
      <point x="45" y="671" type="line"/>
      <point x="-40" y="671" type="line"/>
      <point x="-40" y="554" type="line"/>
      <point x="42" y="554" type="line"/>
      <point x="42" y="0" type="line"/>
      <point x="182" y="0" type="line"/>
      <point x="182" y="554" type="line"/>
      <point x="264" y="554" type="line"/>
      <point x="264" y="671" type="line"/>
      <point x="185" y="671" type="line"/>
      <point x="185" y="684" type="line" smooth="yes"/>
      <point x="185" y="750"/>
      <point x="215" y="774"/>
      <point x="314" y="774" type="curve"/>
      <point x="450" y="774"/>
      <point x="592" y="734"/>
      <point x="592" y="734" type="curve"/>
      <point x="592" y="858" type="line"/>
      <point x="592" y="858"/>
      <point x="469" y="903"/>
      <point x="302" y="903" type="curve"/>
      <point x="148" y="903"/>
      <point x="45" y="837"/>
      <point x="45" y="687" type="curve"/>
    </contour>
  </outline>
</glyph>
<glyph name="dvmII" format="1">
  <advance width="224"/>
  <unicode hex="0940"/>
  <outline>
    <contour>
      <point x="42" y="671" type="line"/>
      <point x="-40" y="671" type="line"/>
      <point x="-40" y="554" type="line"/>
      <point x="42" y="554" type="line"/>
      <point x="42" y="0" type="line"/>
      <point x="182" y="0" type="line"/>
      <point x="182" y="554" type="line"/>
      <point x="264" y="554" type="line"/>
      <point x="264" y="671" type="line"/>
      <point x="182" y="671" type="line"/>
      <point x="182" y="743" type="line" smooth="yes"/>
      <point x="182" y="856"/>
      <point x="112" y="906"/>
      <point x="0" y="906" type="curve" smooth="yes"/>
      <point x="-112" y="906"/>
      <point x="-183" y="856"/>
      <point x="-183" y="743" type="curve" smooth="yes"/>
      <point x="-183" y="723" type="line"/>
      <point x="-44" y="723" type="line"/>
      <point x="-44" y="741" type="line" smooth="yes"/>
      <point x="-44" y="766"/>
      <point x="-31" y="780"/>
      <point x="0" y="780" type="curve" smooth="yes"/>
      <point x="29" y="780"/>
      <point x="42" y="766"/>
      <point x="42" y="741" type="curve"/>
    </contour>
  </outline>
</glyph>
<glyph name="dvmUU" format="1">
  <advance width="0"/>
  <unicode hex="0942"/>
  <outline>
    <contour>
      <point x="-42" y="0" type="move" name="_blwm.u"/>
    </contour>
    <contour>
      <point x="-55" y="-156" type="line"/>
      <point x="-69" y="-158"/>
      <point x="-91" y="-161"/>
      <point x="-118" y="-161" type="curve" smooth="yes"/>
      <point x="-146" y="-161"/>
      <point x="-161" y="-154"/>
      <point x="-161" y="-129" type="curve" smooth="yes"/>
      <point x="-161" y="-103"/>
      <point x="-148" y="-96"/>
      <point x="-120" y="-96" type="curve" smooth="yes"/>
      <point x="-106" y="-96" type="line" smooth="yes"/>
      <point x="-63" y="-96"/>
      <point x="-51" y="-104"/>
      <point x="-17" y="-148" type="curve" smooth="yes"/>
      <point x="56" y="-243" type="line"/>
      <point x="205" y="-243" type="line"/>
      <point x="90" y="-86" type="line"/>
      <point x="31" y="-6"/>
      <point x="-22" y="10"/>
      <point x="-88" y="10" type="curve" smooth="yes"/>
      <point x="-148" y="10" type="line" smooth="yes"/>
      <point x="-242" y="10"/>
      <point x="-283" y="-31"/>
      <point x="-283" y="-130" type="curve" smooth="yes"/>
      <point x="-283" y="-232"/>
      <point x="-225" y="-269"/>
      <point x="-128" y="-269" type="curve" smooth="yes"/>
      <point x="-98" y="-269"/>
      <point x="-71" y="-266"/>
      <point x="-55" y="-264" type="curve"/>
    </contour>
  </outline>
</glyph>
<glyph name="dvmvR" format="1">
  <advance width="0"/>
  <unicode hex="0943"/>
  <outline>
    <contour>
      <point x="-42" y="0" type="move" name="_blwm.u"/>
    </contour>
    <contour>
      <point x="-146" y="-127" type="curve"/>
      <point x="-96" y="-127"/>
      <point x="-42" y="-136"/>
      <point x="-42" y="-136" type="curve"/>
      <point x="-42" y="-9" type="line"/>
      <point x="-42" y="-9"/>
      <point x="-104" y="1"/>
      <point x="-147" y="1" type="curve"/>
      <point x="-270" y="1"/>
      <point x="-334" y="-59"/>
      <point x="-334" y="-167" type="curve" smooth="yes"/>
      <point x="-334" y="-275"/>
      <point x="-270" y="-335"/>
      <point x="-147" y="-335" type="curve"/>
      <point x="-91" y="-335"/>
      <point x="-41" y="-325"/>
      <point x="-41" y="-325" type="curve"/>
      <point x="-41" y="-198" type="line"/>
      <point x="-41" y="-198"/>
      <point x="-95" y="-207"/>
      <point x="-145" y="-207" type="curve"/>
      <point x="-174" y="-207"/>
      <point x="-196" y="-199"/>
      <point x="-196" y="-167" type="curve" smooth="yes"/>
      <point x="-196" y="-136"/>
      <point x="-174" y="-127"/>
    </contour>
  </outline>
</glyph>
<glyph name="dvmEcandra" format="1">
  <advance width="0"/>
  <unicode hex="0945"/>
  <outline>
    <contour>
      <point x="-42" y="671" type="move" name="_abvm.bindu"/>
    </contour>
    <contour>
      <point x="-41" y="906" type="line"/>
      <point x="-41" y="870"/>
      <point x="-63" y="855"/>
      <point x="-111" y="855" type="curve" smooth="yes"/>
      <point x="-162" y="855"/>
      <point x="-182" y="870"/>
      <point x="-182" y="906" type="curve"/>
      <point x="-322" y="906" type="line"/>
      <point x="-322" y="901" type="line" smooth="yes"/>
      <point x="-322" y="788"/>
      <point x="-249" y="734"/>
      <point x="-111" y="734" type="curve" smooth="yes"/>
      <point x="27" y="734"/>
      <point x="98" y="788"/>
      <point x="98" y="901" type="curve" smooth="yes"/>
      <point x="98" y="906" type="line"/>
    </contour>
  </outline>
</glyph>
<glyph name="dvmE" format="1">
  <advance width="0"/>
  <unicode hex="0947"/>
  <outline>
    <contour>
      <point x="-42" y="0" type="move" name="_blwm.u"/>
    </contour>
    <contour>
      <point x="-338" y="784" type="line"/>
      <point x="-328" y="785"/>
      <point x="-320" y="785"/>
      <point x="-312" y="785" type="curve" smooth="yes"/>
      <point x="-281" y="785"/>
      <point x="-258" y="774"/>
      <point x="-236" y="743" type="curve" smooth="yes"/>
      <point x="-184" y="671" type="line"/>
      <point x="-42" y="671" type="line"/>
      <point x="-136" y="813" type="line" smooth="yes"/>
      <point x="-183" y="884"/>
      <point x="-229" y="901"/>
      <point x="-293" y="901" type="curve" smooth="yes"/>
      <point x="-310" y="901"/>
      <point x="-323" y="900"/>
      <point x="-338" y="898" type="curve"/>
    </contour>
  </outline>
</glyph>
<glyph name="dvmAI" format="1">
  <advance width="0"/>
  <unicode hex="0948"/>
  <outline>
    <contour>
      <point x="-42" y="671" type="move" name="_abvm.e"/>
    </contour>
    <contour>
      <point x="-470" y="784" type="line"/>
      <point x="-460" y="785"/>
      <point x="-452" y="785"/>
      <point x="-444" y="785" type="curve" smooth="yes"/>
      <point x="-413" y="785"/>
      <point x="-392" y="772"/>
      <point x="-368" y="743" type="curve"/>
      <point x="-309" y="671" type="line"/>
      <point x="-173" y="671" type="line"/>
      <point x="-271" y="802" type="line"/>
      <point x="-322" y="870"/>
      <point x="-361" y="901"/>
      <point x="-425" y="901" type="curve" smooth="yes"/>
      <point x="-442" y="901"/>
      <point x="-455" y="900"/>
      <point x="-470" y="898" type="curve"/>
    </contour>
    <contour>
      <point x="-239" y="783" type="line"/>
      <point x="-234" y="784"/>
      <point x="-230" y="784"/>
      <point x="-227" y="784" type="curve" smooth="yes"/>
      <point x="-207" y="784"/>
      <point x="-198" y="773"/>
      <point x="-187" y="743" type="curve" smooth="yes"/>
      <point x="-161" y="671" type="line"/>
      <point x="-42" y="671" type="line"/>
      <point x="-83" y="802" type="line" smooth="yes"/>
      <point x="-107" y="878"/>
      <point x="-153" y="901"/>
      <point x="-205" y="901" type="curve" smooth="yes"/>
      <point x="-216" y="901"/>
      <point x="-227" y="900"/>
      <point x="-239" y="898" type="curve"/>
    </contour>
  </outline>
</glyph>
<glyph name="dvmO" format="1">
  <advance width="224"/>
  <unicode hex="094B"/>
  <outline>
    <contour>
      <point x="42" y="554" type="line"/>
      <point x="42" y="0" type="line"/>
      <point x="182" y="0" type="line"/>
      <point x="182" y="554" type="line"/>
      <point x="264" y="554" type="line"/>
      <point x="264" y="671" type="line"/>
      <point x="-40" y="671" type="line"/>
      <point x="-40" y="554" type="line"/>
    </contour>
    <contour>
      <point x="-114" y="784" type="line"/>
      <point x="-104" y="785"/>
      <point x="-96" y="785"/>
      <point x="-88" y="785" type="curve" smooth="yes"/>
      <point x="-57" y="785"/>
      <point x="-34" y="774"/>
      <point x="-12" y="743" type="curve"/>
      <point x="40" y="671" type="line"/>
      <point x="182" y="671" type="line"/>
      <point x="88" y="813" type="line" smooth="yes"/>
      <point x="41" y="884"/>
      <point x="-5" y="901"/>
      <point x="-69" y="901" type="curve" smooth="yes"/>
      <point x="-86" y="901"/>
      <point x="-99" y="900"/>
      <point x="-114" y="898" type="curve"/>
    </contour>
  </outline>
</glyph>
<glyph name="dvmAU" format="1">
  <advance width="224"/>
  <unicode hex="094C"/>
  <outline>
    <contour>
      <point x="42" y="554" type="line"/>
      <point x="42" y="0" type="line"/>
      <point x="182" y="0" type="line"/>
      <point x="182" y="554" type="line"/>
      <point x="264" y="554" type="line"/>
      <point x="264" y="671" type="line"/>
      <point x="-136" y="671" type="line"/>
      <point x="-136" y="554" type="line"/>
    </contour>
    <contour>
      <point x="-252" y="784" type="line"/>
      <point x="-242" y="785"/>
      <point x="-234" y="785"/>
      <point x="-226" y="785" type="curve" smooth="yes"/>
      <point x="-195" y="785"/>
      <point x="-174" y="772"/>
      <point x="-150" y="743" type="curve" smooth="yes"/>
      <point x="-91" y="671" type="line"/>
      <point x="45" y="671" type="line"/>
      <point x="-53" y="802" type="line" smooth="yes"/>
      <point x="-104" y="870"/>
      <point x="-143" y="901"/>
      <point x="-207" y="901" type="curve" smooth="yes"/>
      <point x="-224" y="901"/>
      <point x="-237" y="900"/>
      <point x="-252" y="898" type="curve"/>
    </contour>
    <contour>
      <point x="-21" y="783" type="line"/>
      <point x="-16" y="784"/>
      <point x="-12" y="784"/>
      <point x="-9" y="784" type="curve" smooth="yes"/>
      <point x="11" y="784"/>
      <point x="20" y="773"/>
      <point x="31" y="743" type="curve" smooth="yes"/>
      <point x="57" y="671" type="line"/>
      <point x="176" y="671" type="line"/>
      <point x="135" y="802" type="line" smooth="yes"/>
      <point x="111" y="878"/>
      <point x="65" y="901"/>
      <point x="13" y="901" type="curve" smooth="yes"/>
      <point x="2" y="901"/>
      <point x="-9" y="900"/>
      <point x="-21" y="898" type="curve"/>
    </contour>
  </outline>
</glyph>
<glyph name="dvVirama" format="1">
  <advance width="0"/>
  <unicode hex="094D"/>
  <outline>
    <contour>
      <point x="-42" y="0" type="move" name="_blwm.virama"/>
    </contour>
    <contour>
      <point x="83" y="-229" type="line"/>
      <point x="-46" y="-58" type="line"/>
      <point x="-172" y="-58" type="line"/>
      <point x="-61" y="-229" type="line"/>
    </contour>
  </outline>
</glyph>
<glyph name="dvOm" format="1">
  <advance width="827"/>
  <unicode hex="0950"/>
  <outline>
    <contour>
      <point x="456" y="851" type="line"/>
      <point x="456" y="815"/>
      <point x="434" y="800"/>
      <point x="386" y="800" type="curve" smooth="yes"/>
      <point x="335" y="800"/>
      <point x="315" y="815"/>
      <point x="315" y="851" type="curve"/>
      <point x="175" y="851" type="line"/>
      <point x="175" y="846" type="line" smooth="yes"/>
      <point x="175" y="733"/>
      <point x="248" y="679"/>
      <point x="386" y="679" type="curve" smooth="yes"/>
      <point x="524" y="679"/>
      <point x="596" y="733"/>
      <point x="596" y="846" type="curve" smooth="yes"/>
      <point x="596" y="851" type="line"/>
    </contour>
    <contour>
      <point x="316" y="925" type="curve" smooth="yes"/>
      <point x="316" y="885"/>
      <point x="330" y="855"/>
      <point x="386" y="855" type="curve" smooth="yes"/>
      <point x="442" y="855"/>
      <point x="456" y="885"/>
      <point x="456" y="925" type="curve" smooth="yes"/>
      <point x="456" y="965"/>
      <point x="442" y="995"/>
      <point x="386" y="995" type="curve" smooth="yes"/>
      <point x="330" y="995"/>
      <point x="316" y="965"/>
    </contour>
    <contour>
      <point x="319" y="189" type="line"/>
      <point x="503" y="189" type="line" smooth="yes"/>
      <point x="554" y="189"/>
      <point x="561" y="212"/>
      <point x="561" y="253" type="curve" smooth="yes"/>
      <point x="561" y="508" type="line" smooth="yes"/>
      <point x="561" y="531"/>
      <point x="566" y="547"/>
      <point x="599" y="547" type="curve" smooth="yes"/>
      <point x="632" y="547"/>
      <point x="637" y="531"/>
      <point x="637" y="508" type="curve" smooth="yes"/>
      <point x="637" y="197" type="line" smooth="yes"/>
      <point x="637" y="143"/>
      <point x="619" y="124"/>
      <point x="556" y="124" type="curve" smooth="yes"/>
      <point x="503" y="124"/>
      <point x="457" y="133"/>
      <point x="457" y="133" type="curve"/>
      <point x="457" y="6" type="line"/>
      <point x="457" y="6"/>
      <point x="494" y="-5"/>
      <point x="557" y="-5" type="curve" smooth="yes"/>
      <point x="704" y="-5"/>
      <point x="772" y="58"/>
      <point x="772" y="186" type="curve" smooth="yes"/>
      <point x="772" y="515" type="line" smooth="yes"/>
      <point x="772" y="618"/>
      <point x="722" y="676"/>
      <point x="599" y="676" type="curve" smooth="yes"/>
      <point x="476" y="676"/>
      <point x="426" y="616"/>
      <point x="426" y="513" type="curve" smooth="yes"/>
      <point x="426" y="309" type="line"/>
      <point x="319" y="309" type="line"/>
    </contour>
    <contour>
      <point x="219" y="172" type="line"/>
      <point x="218" y="137"/>
      <point x="199" y="122"/>
      <point x="145" y="122" type="curve" smooth="yes"/>
      <point x="120" y="122"/>
      <point x="75" y="126"/>
      <point x="42" y="135" type="curve"/>
      <point x="42" y="8" type="line"/>
      <point x="65" y="0"/>
      <point x="110" y="-5"/>
      <point x="146" y="-5" type="curve" smooth="yes"/>
      <point x="299" y="-5"/>
      <point x="355" y="61"/>
      <point x="356" y="166" type="curve"/>
      <point x="356" y="224" type="line" smooth="yes"/>
      <point x="356" y="277"/>
      <point x="341" y="319"/>
      <point x="313" y="338" type="curve"/>
      <point x="345" y="360"/>
      <point x="356" y="402"/>
      <point x="356" y="448" type="curve" smooth="yes"/>
      <point x="356" y="505" type="line" smooth="yes"/>
      <point x="356" y="610"/>
      <point x="300" y="676"/>
      <point x="147" y="676" type="curve" smooth="yes"/>
      <point x="111" y="676"/>
      <point x="79" y="672"/>
      <point x="56" y="664" type="curve"/>
      <point x="56" y="537" type="line"/>
      <point x="89" y="546"/>
      <point x="121" y="549"/>
      <point x="146" y="549" type="curve" smooth="yes"/>
      <point x="200" y="549"/>
      <point x="219" y="534"/>
      <point x="219" y="499" type="curve" smooth="yes"/>
      <point x="219" y="448" type="line" smooth="yes"/>
      <point x="219" y="416"/>
      <point x="204" y="402"/>
      <point x="166" y="402" type="curve" smooth="yes"/>
      <point x="107" y="402" type="line"/>
      <point x="107" y="273" type="line"/>
      <point x="166" y="273" type="line" smooth="yes"/>
      <point x="204" y="273"/>
      <point x="219" y="257"/>
      <point x="219" y="224" type="curve" smooth="yes"/>
    </contour>
  </outline>
</glyph>
<glyph name="dvKxA" format="1">
  <advance width="630"/>
  <unicode hex="0958"/>
  <outline>
    <contour>
      <point x="444" y="-59" type="move" name="blwm.u"/>
    </contour>
    <contour>
      <point x="383" y="0" type="move" name="blwm.virama"/>
    </contour>
    <contour>
      <point x="383" y="671" type="move" name="abvm.e"/>
    </contour>
    <contour>
      <point x="383" y="671" type="move" name="abvm.bindu"/>
    </contour>
    <contour>
      <point x="61" y="-55" type="curve" smooth="yes"/>
      <point x="61" y="-97"/>
      <point x="77" y="-130"/>
      <point x="136" y="-130" type="curve" smooth="yes"/>
      <point x="194" y="-130"/>
      <point x="211" y="-97"/>
      <point x="211" y="-55" type="curve" smooth="yes"/>
      <point x="211" y="-13"/>
      <point x="194" y="20"/>
      <point x="136" y="20" type="curve" smooth="yes"/>
      <point x="77" y="20"/>
      <point x="61" y="-13"/>
    </contour>
    <component base="dvKA"/>
  </outline>
</glyph>
<glyph name="dvDDxA" format="1">
  <advance width="430"/>
  <unicode hex="095C"/>
  <outline>
    <contour>
      <point x="290" y="-249" type="move" name="blwm.u"/>
    </contour>
    <contour>
      <point x="283" y="-199" type="move" name="blwm.virama"/>
    </contour>
    <contour>
      <point x="377" y="671" type="move" name="abvm.e"/>
    </contour>
    <contour>
      <point x="377" y="671" type="move" name="abvm.bindu"/>
    </contour>
    <contour>
      <point x="150" y="-124" type="curve" smooth="yes"/>
      <point x="150" y="-166"/>
      <point x="166" y="-199"/>
      <point x="225" y="-199" type="curve" smooth="yes"/>
      <point x="283" y="-199"/>
      <point x="300" y="-166"/>
      <point x="300" y="-124" type="curve" smooth="yes"/>
      <point x="300" y="-82"/>
      <point x="283" y="-49"/>
      <point x="225" y="-49" type="curve" smooth="yes"/>
      <point x="166" y="-49"/>
      <point x="150" y="-82"/>
    </contour>
    <component base="dvDDA"/>
  </outline>
</glyph>
<glyph name="dvvLL" format="1">
  <advance width="653"/>
  <unicode hex="0961"/>
  <outline>
    <contour>
      <point x="35" y="182" type="line"/>
      <point x="35" y="59"/>
      <point x="95" y="0"/>
      <point x="238" y="0" type="curve" smooth="yes"/>
      <point x="261" y="0" type="line"/>
      <point x="261" y="129" type="line"/>
      <point x="246" y="129" type="line" smooth="yes"/>
      <point x="185" y="129"/>
      <point x="175" y="154"/>
      <point x="175" y="188" type="curve" smooth="yes"/>
      <point x="175" y="326" type="line" smooth="yes"/>
      <point x="175" y="349"/>
      <point x="181" y="365"/>
      <point x="214" y="365" type="curve" smooth="yes"/>
      <point x="247" y="365"/>
      <point x="253" y="349"/>
      <point x="253" y="326" type="curve" smooth="yes"/>
      <point x="253" y="262" type="line"/>
      <point x="393" y="262" type="line"/>
      <point x="393" y="326" type="line" smooth="yes"/>
      <point x="393" y="349"/>
      <point x="403" y="365"/>
      <point x="436" y="365" type="curve" smooth="yes"/>
      <point x="456" y="365"/>
      <point x="471" y="360"/>
      <point x="471" y="360" type="curve"/>
      <point x="471" y="170" type="line"/>
      <point x="611" y="170" type="line"/>
      <point x="611" y="554" type="line"/>
      <point x="693" y="554" type="line"/>
      <point x="693" y="671" type="line"/>
      <point x="-40" y="671" type="line"/>
      <point x="-40" y="554" type="line"/>
      <point x="471" y="554" type="line"/>
      <point x="471" y="488" type="line"/>
      <point x="471" y="488"/>
      <point x="450" y="493"/>
      <point x="423" y="493" type="curve" smooth="yes"/>
      <point x="365" y="493"/>
      <point x="340" y="469"/>
      <point x="320" y="439" type="curve"/>
      <point x="308" y="463"/>
      <point x="275" y="494"/>
      <point x="209" y="494" type="curve" smooth="yes"/>
      <point x="96" y="494"/>
      <point x="35" y="434"/>
      <point x="35" y="331" type="curve" smooth="yes"/>
    </contour>
    <contour>
      <point x="611" y="124" type="line"/>
      <point x="611" y="243" type="line"/>
      <point x="501" y="243" type="line" smooth="yes"/>
      <point x="378" y="243"/>
      <point x="322" y="197"/>
      <point x="322" y="94" type="curve" smooth="yes"/>
      <point x="322" y="1"/>
      <point x="378" y="-45"/>
      <point x="501" y="-45" type="curve" smooth="yes"/>
      <point x="582" y="-45" type="line"/>
      <point x="582" y="-45"/>
      <point x="582" y="64"/>
      <point x="582" y="64" type="curve"/>
      <point x="501" y="64" type="line" smooth="yes"/>
      <point x="478" y="64"/>
      <point x="462" y="65"/>
      <point x="462" y="93" type="curve" smooth="yes"/>
      <point x="462" y="123"/>
      <point x="478" y="124"/>
      <point x="501" y="124" type="curve" smooth="yes"/>
    </contour>
    <contour>
      <point x="582" y="-55" type="line"/>
      <point x="582" y="54" type="line"/>
      <point x="502" y="54" type="line" smooth="yes"/>
      <point x="379" y="54"/>
      <point x="323" y="8"/>
      <point x="323" y="-85" type="curve" smooth="yes"/>
      <point x="323" y="-188"/>
      <point x="381" y="-243"/>
      <point x="504" y="-243" type="curve"/>
      <point x="547" y="-243"/>
      <point x="582" y="-241"/>
      <point x="613" y="-236" type="curve"/>
      <point x="613" y="-236"/>
      <point x="613" y="-110"/>
      <point x="613" y="-110" type="curve"/>
      <point x="573" y="-115"/>
      <point x="552" y="-115"/>
      <point x="509" y="-115" type="curve"/>
      <point x="481" y="-115"/>
      <point x="463" y="-113"/>
      <point x="463" y="-88" type="curve" smooth="yes"/>
      <point x="463" y="-56"/>
      <point x="479" y="-55"/>
      <point x="502" y="-55" type="curve" smooth="yes"/>
    </contour>
  </outline>
</glyph>
<glyph name="danda" format="1">
  <advance width="322"/>
  <unicode hex="0964"/>
  <outline>
    <contour>
      <point x="140" y="0" type="line"/>
      <point x="280" y="0" type="line"/>
      <point x="280" y="671" type="line"/>
      <point x="140" y="671" type="line"/>
    </contour>
  </outline>
</glyph>
<glyph name="doubledanda" format="1">
  <advance width="442"/>
  <unicode hex="0965"/>
  <outline>
    <contour>
      <point x="42" y="0" type="line"/>
      <point x="182" y="0" type="line"/>
      <point x="182" y="671" type="line"/>
      <point x="42" y="671" type="line"/>
    </contour>
    <contour>
      <point x="260" y="0" type="line"/>
      <point x="400" y="0" type="line"/>
      <point x="400" y="671" type="line"/>
      <point x="260" y="671" type="line"/>
    </contour>
  </outline>
</glyph>
<glyph name="emdash" format="1">
  <advance width="865"/>
  <unicode hex="2014"/>
  <outline>
    <contour>
      <point x="41" y="397" type="line"/>
      <point x="41" y="267" type="line"/>
      <point x="817" y="267" type="line"/>
      <point x="817" y="397" type="line"/>
    </contour>
  </outline>
</glyph>
<glyph name="quoteright" format="1">
  <advance width="205"/>
  <unicode hex="2019"/>
  <outline>
    <contour>
      <point x="67" y="733" type="line"/>
      <point x="25" y="485" type="line"/>
      <point x="89" y="485" type="line"/>
      <point x="119" y="525"/>
      <point x="180" y="618"/>
      <point x="180" y="676" type="curve" smooth="yes"/>
      <point x="180" y="712"/>
      <point x="163" y="733"/>
      <point x="119" y="733" type="curve" smooth="yes"/>
    </contour>
  </outline>
</glyph>
<glyph name="quotedblleft" format="1">
  <advance width="369"/>
  <unicode hex="201C"/>
  <outline>
    <contour>
      <point x="286" y="733" type="line"/>
      <point x="256" y="693"/>
      <point x="195" y="600"/>
      <point x="195" y="542" type="curve" smooth="yes"/>
      <point x="195" y="506"/>
      <point x="212" y="485"/>
      <point x="256" y="485" type="curve" smooth="yes"/>
      <point x="302" y="485" type="line"/>
      <point x="344" y="733" type="line"/>
    </contour>
    <contour>
      <point x="116" y="733" type="line"/>
      <point x="86" y="693"/>
      <point x="25" y="600"/>
      <point x="25" y="542" type="curve" smooth="yes"/>
      <point x="25" y="506"/>
      <point x="42" y="485"/>
      <point x="86" y="485" type="curve" smooth="yes"/>
      <point x="132" y="485" type="line"/>
      <point x="174" y="733" type="line"/>
    </contour>
  </outline>
</glyph>
<glyph name="quotedblbase" format="1">
  <advance width="369"/>
  <unicode hex="201E"/>
  <outline>
    <contour>
      <point x="237" y="145" type="line"/>
      <point x="195" y="-103" type="line"/>
      <point x="253" y="-103" type="line"/>
      <point x="283" y="-63"/>
      <point x="344" y="30"/>
      <point x="344" y="88" type="curve" smooth="yes"/>
      <point x="344" y="124"/>
      <point x="327" y="145"/>
      <point x="283" y="145" type="curve" smooth="yes"/>
    </contour>
    <contour>
      <point x="67" y="145" type="line"/>
      <point x="25" y="-103" type="line"/>
      <point x="83" y="-103" type="line"/>
      <point x="113" y="-63"/>
      <point x="174" y="30"/>
      <point x="174" y="88" type="curve" smooth="yes"/>
      <point x="174" y="124"/>
      <point x="157" y="145"/>
      <point x="113" y="145" type="curve" smooth="yes"/>
    </contour>
  </outline>
</glyph>
<glyph name="daggerdbl" format="1">
  <advance width="391"/>
  <unicode hex="2021"/>
  <outline>
    <contour>
      <point x="126" y="833" type="line"/>
      <point x="126" y="752"/>
      <point x="136" y="661"/>
      <point x="136" y="661" type="curve"/>
      <point x="136" y="661"/>
      <point x="83" y="671"/>
      <point x="18" y="671" type="curve"/>
      <point x="18" y="554" type="line"/>
      <point x="83" y="554"/>
      <point x="136" y="564"/>
      <point x="136" y="564" type="curve"/>
      <point x="134" y="500"/>
      <point x="134" y="309"/>
      <point x="136" y="239" type="curve"/>
      <point x="136" y="239"/>
      <point x="83" y="249"/>
      <point x="18" y="249" type="curve"/>
      <point x="18" y="132" type="line"/>
      <point x="83" y="132"/>
      <point x="136" y="142"/>
      <point x="136" y="142" type="curve"/>
      <point x="136" y="142"/>
      <point x="126" y="85"/>
      <point x="126" y="-30" type="curve"/>
      <point x="266" y="-30" type="line"/>
      <point x="266" y="85"/>
      <point x="256" y="142"/>
      <point x="256" y="142" type="curve"/>
      <point x="256" y="142"/>
      <point x="309" y="132"/>
      <point x="374" y="132" type="curve"/>
      <point x="374" y="249" type="line"/>
      <point x="309" y="249"/>
      <point x="256" y="239"/>
      <point x="256" y="239" type="curve"/>
      <point x="258" y="309"/>
      <point x="258" y="501"/>
      <point x="256" y="564" type="curve"/>
      <point x="256" y="564"/>
      <point x="309" y="554"/>
      <point x="374" y="554" type="curve"/>
      <point x="374" y="671" type="line"/>
      <point x="309" y="671"/>
      <point x="256" y="661"/>
      <point x="256" y="661" type="curve"/>
      <point x="256" y="661"/>
      <point x="266" y="752"/>
      <point x="266" y="833" type="curve"/>
    </contour>
  </outline>
</glyph>
<glyph name="ellipsis" format="1">
  <advance width="738"/>
  <unicode hex="2026"/>
  <outline>
    <contour>
      <point x="524" y="70" type="curve" smooth="yes"/>
      <point x="524" y="28"/>
      <point x="540" y="-5"/>
      <point x="599" y="-5" type="curve" smooth="yes"/>
      <point x="657" y="-5"/>
      <point x="674" y="28"/>
      <point x="674" y="70" type="curve" smooth="yes"/>
      <point x="674" y="112"/>
      <point x="657" y="145"/>
      <point x="599" y="145" type="curve" smooth="yes"/>
      <point x="540" y="145"/>
      <point x="524" y="112"/>
    </contour>
    <contour>
      <point x="32" y="70" type="curve" smooth="yes"/>
      <point x="32" y="28"/>
      <point x="48" y="-5"/>
      <point x="107" y="-5" type="curve" smooth="yes"/>
      <point x="165" y="-5"/>
      <point x="182" y="28"/>
      <point x="182" y="70" type="curve" smooth="yes"/>
      <point x="182" y="112"/>
      <point x="165" y="145"/>
      <point x="107" y="145" type="curve" smooth="yes"/>
      <point x="48" y="145"/>
      <point x="32" y="112"/>
    </contour>
    <contour>
      <point x="278" y="70" type="curve" smooth="yes"/>
      <point x="278" y="28"/>
      <point x="294" y="-5"/>
      <point x="353" y="-5" type="curve" smooth="yes"/>
      <point x="411" y="-5"/>
      <point x="428" y="28"/>
      <point x="428" y="70" type="curve" smooth="yes"/>
      <point x="428" y="112"/>
      <point x="411" y="145"/>
      <point x="353" y="145" type="curve" smooth="yes"/>
      <point x="294" y="145"/>
      <point x="278" y="112"/>
    </contour>
  </outline>
</glyph>
<glyph name="guilsinglleft" format="1">
  <advance width="504"/>
  <unicode hex="2039"/>
  <outline>
    <contour>
      <point x="235" y="505" type="line"/>
      <point x="114" y="322" type="line"/>
      <point x="235" y="139" type="line"/>
      <point x="385" y="139" type="line"/>
      <point x="263" y="322" type="line"/>
      <point x="385" y="505" type="line"/>
    </contour>
  </outline>
</glyph>
<glyph name="guilsinglright" format="1">
  <advance width="472"/>
  <unicode hex="203A"/>
  <outline>
    <contour>
      <point x="114" y="505" type="line"/>
      <point x="236" y="322" type="line"/>
      <point x="114" y="139" type="line"/>
      <point x="264" y="139" type="line"/>
      <point x="385" y="322" type="line"/>
      <point x="264" y="505" type="line"/>
    </contour>
  </outline>
</glyph>
<glyph name="fraction" format="1">
  <advance width="343"/>
  <unicode hex="2044"/>
  <outline>
    <contour>
      <point x="326" y="693" type="line"/>
      <point x="-77" y="0" type="line"/>
      <point x="18" y="0" type="line"/>
      <point x="421" y="693" type="line"/>
    </contour>
  </outline>
</glyph>
<glyph name="indianrupee" format="1">
  <advance width="495"/>
  <unicode hex="20B9"/>
  <outline>
    <contour>
      <point x="208" y="353" type="curve"/>
      <point x="46" y="353" type="line"/>
      <point x="46" y="237" type="line"/>
      <point x="234" y="0" type="line"/>
      <point x="398" y="0" type="line"/>
      <point x="202" y="239" type="line"/>
      <point x="213" y="239" type="line" smooth="yes"/>
      <point x="336" y="239"/>
      <point x="388" y="287"/>
      <point x="388" y="390" type="curve" smooth="yes"/>
      <point x="388" y="510" type="line" smooth="yes"/>
      <point x="388" y="524"/>
      <point x="386" y="541"/>
      <point x="375" y="554" type="curve"/>
      <point x="461" y="554" type="line"/>
      <point x="461" y="671" type="line"/>
      <point x="45" y="671" type="line"/>
      <point x="45" y="554" type="line"/>
      <point x="213" y="554" type="line" smooth="yes"/>
      <point x="246" y="554"/>
      <point x="252" y="538"/>
      <point x="252" y="515" type="curve" smooth="yes"/>
      <point x="252" y="395" type="line" smooth="yes"/>
      <point x="252" y="371"/>
      <point x="243" y="353"/>
    </contour>
    <contour>
      <point x="46" y="403" type="line"/>
      <point x="462" y="403" type="line"/>
      <point x="462" y="504" type="line"/>
      <point x="46" y="504" type="line"/>
    </contour>
  </outline>
</glyph>
<glyph name="partialdiff" format="1">
  <advance width="453"/>
  <unicode hex="2202"/>
  <outline>
    <contour>
      <point x="94" y="693" type="line"/>
      <point x="187" y="586"/>
      <point x="235" y="504"/>
      <point x="257" y="427" type="curve"/>
      <point x="245" y="449"/>
      <point x="217" y="465"/>
      <point x="181" y="465" type="curve" smooth="yes"/>
      <point x="82" y="465"/>
      <point x="40" y="415"/>
      <point x="40" y="319" type="curve" smooth="yes"/>
      <point x="40" y="159" type="line" smooth="yes"/>
      <point x="40" y="56"/>
      <point x="102" y="-5"/>
      <point x="228" y="-5" type="curve" smooth="yes"/>
      <point x="355" y="-5"/>
      <point x="418" y="57"/>
      <point x="418" y="160" type="curve" smooth="yes"/>
      <point x="418" y="310" type="line" smooth="yes"/>
      <point x="418" y="468"/>
      <point x="335" y="610"/>
      <point x="263" y="693" type="curve"/>
    </contour>
    <contour>
      <point x="274" y="346" type="curve"/>
      <point x="274" y="163" type="line"/>
      <point x="274" y="143"/>
      <point x="266" y="125"/>
      <point x="229" y="125" type="curve" smooth="yes"/>
      <point x="192" y="125"/>
      <point x="184" y="145"/>
      <point x="184" y="165" type="curve" smooth="yes"/>
      <point x="184" y="314" type="line" smooth="yes"/>
      <point x="184" y="337"/>
      <point x="197" y="353"/>
      <point x="229" y="353" type="curve"/>
      <point x="255" y="353"/>
      <point x="274" y="346"/>
    </contour>
  </outline>
</glyph>
<glyph name="product" format="1">
  <advance width="512"/>
  <unicode hex="220F"/>
  <outline>
    <contour>
      <point x="45" y="693" type="line"/>
      <point x="45" y="-100" type="line"/>
      <point x="197" y="-100" type="line"/>
      <point x="197" y="560" type="line"/>
      <point x="315" y="560" type="line"/>
      <point x="315" y="-100" type="line"/>
      <point x="467" y="-100" type="line"/>
      <point x="467" y="693" type="line"/>
    </contour>
  </outline>
</glyph>
<glyph name="summation" format="1">
  <advance width="425"/>
  <unicode hex="2211"/>
  <outline>
    <contour>
      <point x="24" y="693" type="line"/>
      <point x="24" y="572" type="line"/>
      <point x="135" y="347" type="line"/>
      <point x="24" y="121" type="line"/>
      <point x="24" y="0" type="line"/>
      <point x="401" y="0" type="line"/>
      <point x="401" y="127" type="line"/>
      <point x="187" y="127" type="line"/>
      <point x="294" y="347" type="line"/>
      <point x="187" y="566" type="line"/>
      <point x="401" y="566" type="line"/>
      <point x="401" y="693" type="line"/>
    </contour>
  </outline>
</glyph>
<glyph name="minus" format="1">
  <advance width="498"/>
  <unicode hex="2212"/>
  <outline>
    <contour>
      <point x="41" y="396" type="line"/>
      <point x="41" y="266" type="line"/>
      <point x="455" y="266" type="line"/>
      <point x="455" y="396" type="line"/>
    </contour>
  </outline>
</glyph>
<glyph name="divisionslash" format="1">
  <advance width="343"/>
  <unicode hex="2215"/>
  <outline>
    <contour>
      <point x="283" y="693" type="line"/>
      <point x="-40" y="0" type="line"/>
      <point x="60" y="0" type="line"/>
      <point x="383" y="693" type="line"/>
    </contour>
  </outline>
</glyph>
<glyph name="integral" format="1">
  <advance width="295"/>
  <unicode hex="222B"/>
  <outline>
    <contour>
      <point x="62" y="690" type="curve" smooth="yes"/>
      <point x="62" y="0" type="line"/>
      <point x="62" y="-28"/>
      <point x="49" y="-37"/>
      <point x="8" y="-37" type="curve"/>
      <point x="8" y="-167" type="line"/>
      <point x="134" y="-173"/>
      <point x="214" y="-118"/>
      <point x="214" y="4" type="curve"/>
      <point x="214" y="694" type="line" smooth="yes"/>
      <point x="214" y="722"/>
      <point x="227" y="731"/>
      <point x="268" y="731" type="curve"/>
      <point x="268" y="861" type="line"/>
      <point x="142" y="867"/>
      <point x="62" y="812"/>
    </contour>
  </outline>
</glyph>
<glyph name="approxequal" format="1">
  <advance width="625"/>
  <unicode hex="2248"/>
  <outline>
    <contour>
      <point x="457" y="315" type="line"/>
      <point x="467" y="258"/>
      <point x="428" y="251"/>
      <point x="382" y="267" type="curve" smooth="yes"/>
      <point x="240" y="315" type="line" smooth="yes"/>
      <point x="131" y="352"/>
      <point x="25" y="325"/>
      <point x="25" y="193" type="curve"/>
      <point x="25" y="162"/>
      <point x="30" y="133"/>
      <point x="30" y="133" type="curve"/>
      <point x="165" y="133" type="line"/>
      <point x="155" y="190"/>
      <point x="194" y="197"/>
      <point x="240" y="181" type="curve"/>
      <point x="382" y="133" type="line"/>
      <point x="491" y="96"/>
      <point x="597" y="123"/>
      <point x="597" y="255" type="curve"/>
      <point x="597" y="289"/>
      <point x="591" y="315"/>
      <point x="591" y="315" type="curve"/>
    </contour>
    <contour>
      <point x="457" y="545" type="line"/>
      <point x="467" y="488"/>
      <point x="428" y="481"/>
      <point x="382" y="497" type="curve" smooth="yes"/>
      <point x="240" y="545" type="line" smooth="yes"/>
      <point x="131" y="582"/>
      <point x="25" y="555"/>
      <point x="25" y="423" type="curve"/>
      <point x="25" y="392"/>
      <point x="30" y="363"/>
      <point x="30" y="363" type="curve"/>
      <point x="165" y="363" type="line"/>
      <point x="155" y="420"/>
      <point x="194" y="427"/>
      <point x="240" y="411" type="curve"/>
      <point x="382" y="363" type="line"/>
      <point x="491" y="326"/>
      <point x="597" y="353"/>
      <point x="597" y="485" type="curve"/>
      <point x="597" y="519"/>
      <point x="591" y="545"/>
      <point x="591" y="545" type="curve"/>
    </contour>
  </outline>
</glyph>
<glyph name="notequal" format="1">
  <advance width="484"/>
  <unicode hex="2260"/>
  <outline>
    <contour>
      <point x="277" y="602" type="line"/>
      <point x="77" y="64" type="line"/>
      <point x="201" y="64" type="line"/>
      <point x="401" y="602" type="line"/>
    </contour>
    <contour>
      <point x="32" y="295" type="line"/>
      <point x="32" y="165" type="line"/>
      <point x="446" y="165" type="line"/>
      <point x="446" y="295" type="line"/>
    </contour>
    <contour>
      <point x="32" y="499" type="line"/>
      <point x="32" y="369" type="line"/>
      <point x="446" y="369" type="line"/>
      <point x="446" y="499" type="line"/>
    </contour>
  </outline>
</glyph>
<glyph name="greaterequal" format="1">
  <advance width="471"/>
  <unicode hex="2265"/>
  <outline>
    <contour>
      <point x="28" y="503" type="line"/>
      <point x="442" y="376" type="line"/>
      <point x="442" y="488" type="line"/>
      <point x="28" y="638" type="line"/>
    </contour>
    <contour>
      <point x="28" y="180" type="line"/>
      <point x="28" y="50" type="line"/>
      <point x="442" y="50" type="line"/>
      <point x="442" y="180" type="line"/>
    </contour>
    <contour>
      <point x="28" y="343" type="line"/>
      <point x="28" y="208" type="line"/>
      <point x="442" y="358" type="line"/>
      <point x="442" y="470" type="line"/>
    </contour>
  </outline>
</glyph>
<glyph name="lozenge" format="1">
  <advance width="456"/>
  <unicode hex="25CA"/>
  <outline>
    <contour>
      <point x="145" y="590" type="line"/>
      <point x="15" y="295" type="line"/>
      <point x="145" y="0" type="line"/>
      <point x="311" y="0" type="line"/>
      <point x="441" y="295" type="line"/>
      <point x="311" y="590" type="line"/>
    </contour>
    <contour>
      <point x="291" y="295" type="line"/>
      <point x="228" y="132" type="line"/>
      <point x="165" y="295" type="line"/>
      <point x="228" y="457" type="line"/>
    </contour>
  </outline>
</glyph>
<glyph name="dvAnusvara.amI" format="1">
  <advance width="0"/>
  <outline>
    <contour>
      <point x="0" y="671" type="move" name="_abvm.i"/>
    </contour>
    <component base="dvAnusvara" xOffset="234" yOffset="10"/>
  </outline>
</glyph>
<glyph name="dvB" format="1">
  <advance width="271"/>
  <outline>
    <contour>
      <point x="-40" y="671" type="line"/>
      <point x="-40" y="554" type="line"/>
      <point x="448" y="554" type="line"/>
      <point x="448" y="671" type="line"/>
    </contour>
    <contour>
      <point x="30" y="328" type="curve" smooth="yes"/>
      <point x="30" y="231" type="line" smooth="yes"/>
      <point x="30" y="117"/>
      <point x="89" y="53"/>
      <point x="232" y="53" type="curve" smooth="yes"/>
      <point x="365" y="53"/>
      <point x="428" y="113"/>
      <point x="428" y="231" type="curve" smooth="yes"/>
      <point x="428" y="328" type="line" smooth="yes"/>
      <point x="428" y="446"/>
      <point x="365" y="506"/>
      <point x="232" y="506" type="curve" smooth="yes"/>
      <point x="79" y="506"/>
      <point x="30" y="442"/>
    </contour>
    <contour>
      <point x="305" y="265" type="line"/>
      <point x="177" y="372" type="line"/>
      <point x="188" y="385"/>
      <point x="206" y="391"/>
      <point x="234" y="391" type="curve" smooth="yes"/>
      <point x="287" y="391"/>
      <point x="305" y="368"/>
      <point x="305" y="322" type="curve" smooth="yes"/>
    </contour>
    <contour>
      <point x="163" y="293" type="line"/>
      <point x="290" y="186" type="line"/>
      <point x="279" y="174"/>
      <point x="261" y="168"/>
      <point x="234" y="168" type="curve" smooth="yes"/>
      <point x="181" y="168"/>
      <point x="163" y="191"/>
      <point x="163" y="237" type="curve" smooth="yes"/>
    </contour>
  </outline>
</glyph>
<glyph name="dvBH_LA" format="1">
  <advance width="1080"/>
  <outline>
    <contour>
      <point x="462" y="182" type="line"/>
      <point x="462" y="59"/>
      <point x="522" y="0"/>
      <point x="665" y="0" type="curve" smooth="yes"/>
      <point x="694" y="0"/>
      <point x="716" y="2"/>
      <point x="732" y="4" type="curve"/>
      <point x="732" y="132" type="line"/>
      <point x="714" y="130"/>
      <point x="695" y="129"/>
      <point x="673" y="129" type="curve" smooth="yes"/>
      <point x="612" y="129"/>
      <point x="602" y="154"/>
      <point x="602" y="188" type="curve" smooth="yes"/>
      <point x="602" y="326" type="line" smooth="yes"/>
      <point x="602" y="349"/>
      <point x="608" y="365"/>
      <point x="641" y="365" type="curve" smooth="yes"/>
      <point x="674" y="365"/>
      <point x="680" y="349"/>
      <point x="680" y="326" type="curve" smooth="yes"/>
      <point x="680" y="212" type="line"/>
      <point x="820" y="212" type="line"/>
      <point x="820" y="326" type="line" smooth="yes"/>
      <point x="820" y="349"/>
      <point x="830" y="365"/>
      <point x="863" y="365" type="curve" smooth="yes"/>
      <point x="883" y="365"/>
      <point x="898" y="360"/>
      <point x="898" y="360" type="curve"/>
      <point x="898" y="0" type="line"/>
      <point x="1038" y="0" type="line"/>
      <point x="1038" y="554" type="line"/>
      <point x="1120" y="554" type="line"/>
      <point x="1120" y="671" type="line"/>
      <point x="440" y="671" type="line"/>
      <point x="440" y="554" type="line"/>
      <point x="898" y="554" type="line"/>
      <point x="898" y="488" type="line"/>
      <point x="898" y="488"/>
      <point x="877" y="493"/>
      <point x="850" y="493" type="curve" smooth="yes"/>
      <point x="792" y="493"/>
      <point x="767" y="469"/>
      <point x="747" y="439" type="curve"/>
      <point x="735" y="463"/>
      <point x="702" y="494"/>
      <point x="636" y="494" type="curve" smooth="yes"/>
      <point x="523" y="494"/>
      <point x="462" y="434"/>
      <point x="462" y="331" type="curve" smooth="yes"/>
    </contour>
    <component base="dvBH"/>
  </outline>
</glyph>
<glyph name="dvBH_NA" format="1">
  <advance width="1035"/>
  <outline>
    <contour>
      <point x="247" y="212" type="line"/>
      <point x="247" y="189"/>
      <point x="241" y="173"/>
      <point x="208" y="173" type="curve" smooth="yes"/>
      <point x="175" y="173"/>
      <point x="169" y="189"/>
      <point x="169" y="212" type="curve" smooth="yes"/>
      <point x="169" y="277" type="line" smooth="yes"/>
      <point x="169" y="300"/>
      <point x="175" y="316"/>
      <point x="208" y="316" type="curve" smooth="yes"/>
      <point x="247" y="316" type="line"/>
    </contour>
    <contour>
      <point x="518" y="434" type="line"/>
      <point x="387" y="434" type="line"/>
      <point x="387" y="513" type="line" smooth="yes"/>
      <point x="387" y="616"/>
      <point x="334" y="676"/>
      <point x="211" y="676" type="curve" smooth="yes"/>
      <point x="88" y="676"/>
      <point x="35" y="616"/>
      <point x="35" y="513" type="curve"/>
      <point x="35" y="492"/>
      <point x="39" y="476"/>
      <point x="39" y="476" type="curve"/>
      <point x="179" y="476" type="line"/>
      <point x="179" y="476"/>
      <point x="175" y="491"/>
      <point x="175" y="508" type="curve"/>
      <point x="175" y="531"/>
      <point x="178" y="547"/>
      <point x="211" y="547" type="curve" smooth="yes"/>
      <point x="244" y="547"/>
      <point x="247" y="531"/>
      <point x="247" y="508" type="curve" smooth="yes"/>
      <point x="247" y="434" type="line"/>
      <point x="208" y="434" type="line" smooth="yes"/>
      <point x="85" y="434"/>
      <point x="35" y="375"/>
      <point x="35" y="282" type="curve" smooth="yes"/>
      <point x="35" y="207" type="line" smooth="yes"/>
      <point x="35" y="114"/>
      <point x="85" y="54"/>
      <point x="208" y="54" type="curve" smooth="yes"/>
      <point x="331" y="54"/>
      <point x="381" y="114"/>
      <point x="381" y="207" type="curve" smooth="yes"/>
      <point x="381" y="316" type="line"/>
      <point x="518" y="316" type="line"/>
    </contour>
    <contour>
      <point x="853" y="362" type="line"/>
      <point x="853" y="0" type="line"/>
      <point x="993" y="0" type="line"/>
      <point x="993" y="554" type="line"/>
      <point x="1075" y="554" type="line"/>
      <point x="1075" y="671" type="line"/>
      <point x="449" y="671" type="line"/>
      <point x="449" y="554" type="line"/>
      <point x="853" y="554" type="line"/>
      <point x="853" y="491" type="line"/>
      <point x="626" y="491" type="line" smooth="yes"/>
      <point x="503" y="491"/>
      <point x="457" y="431"/>
      <point x="457" y="328" type="curve" smooth="yes"/>
      <point x="457" y="215" type="line" smooth="yes"/>
      <point x="457" y="112"/>
      <point x="503" y="52"/>
      <point x="626" y="52" type="curve" smooth="yes"/>
      <point x="749" y="52"/>
      <point x="793" y="112"/>
      <point x="793" y="215" type="curve"/>
      <point x="793" y="306" type="line"/>
      <point x="793" y="326"/>
      <point x="789" y="355"/>
      <point x="787" y="362" type="curve"/>
    </contour>
    <contour>
      <point x="655" y="362" type="line"/>
      <point x="659" y="352"/>
      <point x="662" y="327"/>
      <point x="662" y="301" type="curve"/>
      <point x="662" y="216" type="line" smooth="yes"/>
      <point x="662" y="193"/>
      <point x="657" y="177"/>
      <point x="626" y="177" type="curve" smooth="yes"/>
      <point x="595" y="177"/>
      <point x="590" y="193"/>
      <point x="590" y="216" type="curve" smooth="yes"/>
      <point x="590" y="323" type="line" smooth="yes"/>
      <point x="590" y="346"/>
      <point x="595" y="362"/>
      <point x="626" y="362" type="curve"/>
    </contour>
  </outline>
</glyph>
<glyph name="dvBH_VA" format="1">
  <advance width="876"/>
  <outline>
    <contour>
      <point x="694" y="499" type="line"/>
      <point x="679" y="502"/>
      <point x="655" y="506"/>
      <point x="628" y="506" type="curve"/>
      <point x="509" y="506"/>
      <point x="464" y="449"/>
      <point x="464" y="346" type="curve" smooth="yes"/>
      <point x="464" y="211" type="line" smooth="yes"/>
      <point x="464" y="108"/>
      <point x="505" y="52"/>
      <point x="628" y="52" type="curve"/>
      <point x="657" y="52"/>
      <point x="679" y="56"/>
      <point x="694" y="59" type="curve"/>
      <point x="694" y="0" type="line"/>
      <point x="834" y="0" type="line"/>
      <point x="834" y="554" type="line"/>
      <point x="916" y="554" type="line"/>
      <point x="916" y="671" type="line"/>
      <point x="447" y="671" type="line"/>
      <point x="447" y="554" type="line"/>
      <point x="694" y="554" type="line"/>
    </contour>
    <contour>
      <point x="701" y="177" type="line"/>
      <point x="690" y="173"/>
      <point x="674" y="170"/>
      <point x="654" y="170" type="curve"/>
      <point x="619" y="170"/>
      <point x="600" y="184"/>
      <point x="600" y="214" type="curve"/>
      <point x="600" y="345" type="line" smooth="yes"/>
      <point x="600" y="375"/>
      <point x="618" y="388"/>
      <point x="653" y="388" type="curve"/>
      <point x="671" y="388"/>
      <point x="686" y="386"/>
      <point x="701" y="383" type="curve"/>
    </contour>
    <component base="dvBH"/>
  </outline>
</glyph>
<glyph name="dvBH_YA" format="1">
  <advance width="957"/>
  <outline>
    <contour>
      <point x="248" y="212" type="line"/>
      <point x="248" y="189"/>
      <point x="242" y="173"/>
      <point x="209" y="173" type="curve" smooth="yes"/>
      <point x="176" y="173"/>
      <point x="170" y="189"/>
      <point x="170" y="212" type="curve" smooth="yes"/>
      <point x="170" y="277" type="line" smooth="yes"/>
      <point x="170" y="300"/>
      <point x="176" y="316"/>
      <point x="209" y="316" type="curve" smooth="yes"/>
      <point x="248" y="316" type="line"/>
    </contour>
    <contour>
      <point x="422" y="316" type="line"/>
      <point x="466" y="316"/>
      <point x="486" y="307"/>
      <point x="486" y="274" type="curve"/>
      <point x="581" y="312" type="line"/>
      <point x="581" y="401"/>
      <point x="535" y="434"/>
      <point x="430" y="434" type="curve"/>
      <point x="388" y="434" type="line"/>
      <point x="388" y="513" type="line" smooth="yes"/>
      <point x="388" y="616"/>
      <point x="335" y="676"/>
      <point x="212" y="676" type="curve" smooth="yes"/>
      <point x="89" y="676"/>
      <point x="36" y="616"/>
      <point x="36" y="513" type="curve"/>
      <point x="36" y="493"/>
      <point x="39" y="476"/>
      <point x="39" y="476" type="curve"/>
      <point x="179" y="476" type="line"/>
      <point x="179" y="476"/>
      <point x="176" y="491"/>
      <point x="176" y="508" type="curve"/>
      <point x="176" y="531"/>
      <point x="179" y="547"/>
      <point x="212" y="547" type="curve" smooth="yes"/>
      <point x="245" y="547"/>
      <point x="248" y="531"/>
      <point x="248" y="508" type="curve" smooth="yes"/>
      <point x="248" y="434" type="line"/>
      <point x="209" y="434" type="line" smooth="yes"/>
      <point x="86" y="434"/>
      <point x="36" y="375"/>
      <point x="36" y="282" type="curve" smooth="yes"/>
      <point x="36" y="207" type="line" smooth="yes"/>
      <point x="36" y="114"/>
      <point x="86" y="54"/>
      <point x="209" y="54" type="curve" smooth="yes"/>
      <point x="332" y="54"/>
      <point x="382" y="114"/>
      <point x="382" y="207" type="curve" smooth="yes"/>
      <point x="382" y="316" type="line"/>
    </contour>
    <contour>
      <point x="709" y="507" type="line"/>
      <point x="709" y="534"/>
      <point x="703" y="554"/>
      <point x="703" y="554" type="curve"/>
      <point x="775" y="554" type="line"/>
      <point x="775" y="224" type="line"/>
      <point x="752" y="218"/>
      <point x="728" y="216"/>
      <point x="700" y="216" type="curve"/>
      <point x="629" y="216"/>
      <point x="597" y="243"/>
      <point x="597" y="290" type="curve" smooth="yes"/>
      <point x="597" y="308" type="line"/>
      <point x="674" y="312"/>
      <point x="709" y="353"/>
      <point x="709" y="430" type="curve" smooth="yes"/>
    </contour>
    <contour>
      <point x="566" y="554" type="line"/>
      <point x="566" y="554"/>
      <point x="573" y="541"/>
      <point x="573" y="507" type="curve" smooth="yes"/>
      <point x="573" y="459" type="line"/>
      <point x="573" y="409"/>
      <point x="552" y="396"/>
      <point x="484" y="396" type="curve" smooth="yes"/>
      <point x="460" y="396" type="line"/>
      <point x="460" y="270" type="line" smooth="yes"/>
      <point x="460" y="153"/>
      <point x="553" y="86"/>
      <point x="692" y="86" type="curve"/>
      <point x="725" y="86"/>
      <point x="754" y="89"/>
      <point x="775" y="95" type="curve"/>
      <point x="775" y="0" type="line"/>
      <point x="915" y="0" type="line"/>
      <point x="915" y="554" type="line"/>
      <point x="997" y="554" type="line"/>
      <point x="997" y="671" type="line"/>
      <point x="440" y="671" type="line"/>
      <point x="440" y="554" type="line"/>
    </contour>
  </outline>
</glyph>
<glyph name="dvB_BHA" format="1">
  <advance width="918"/>
  <outline>
    <contour>
      <point x="-40" y="554" type="line"/>
      <point x="261" y="554" type="line"/>
      <point x="261" y="671" type="line"/>
      <point x="-40" y="671" type="line"/>
    </contour>
    <contour>
      <point x="305" y="255" type="line"/>
      <point x="305" y="237" type="line" smooth="yes"/>
      <point x="305" y="191"/>
      <point x="287" y="168"/>
      <point x="234" y="168" type="curve" smooth="yes"/>
      <point x="181" y="168"/>
      <point x="163" y="191"/>
      <point x="163" y="237" type="curve" smooth="yes"/>
      <point x="163" y="322" type="line" smooth="yes"/>
      <point x="163" y="368"/>
      <point x="181" y="391"/>
      <point x="234" y="391" type="curve" smooth="yes"/>
      <point x="249" y="391"/>
      <point x="260" y="389"/>
      <point x="260" y="389" type="curve"/>
      <point x="260" y="504" type="line"/>
      <point x="260" y="504"/>
      <point x="243" y="506"/>
      <point x="222" y="506" type="curve" smooth="yes"/>
      <point x="79" y="506"/>
      <point x="30" y="442"/>
      <point x="30" y="328" type="curve" smooth="yes"/>
      <point x="30" y="231" type="line" smooth="yes"/>
      <point x="30" y="117"/>
      <point x="89" y="53"/>
      <point x="232" y="53" type="curve" smooth="yes"/>
      <point x="355" y="53"/>
      <point x="408" y="123"/>
      <point x="408" y="231" type="curve" smooth="yes"/>
      <point x="408" y="255" type="line"/>
    </contour>
    <contour>
      <point x="166" y="381" type="line"/>
      <point x="112" y="336" type="line"/>
      <point x="311" y="169" type="line"/>
      <point x="365" y="215" type="line"/>
    </contour>
    <contour>
      <point x="518" y="212" type="line"/>
      <point x="518" y="189"/>
      <point x="512" y="173"/>
      <point x="479" y="173" type="curve" smooth="yes"/>
      <point x="446" y="173"/>
      <point x="440" y="189"/>
      <point x="440" y="212" type="curve" smooth="yes"/>
      <point x="440" y="277" type="line" smooth="yes"/>
      <point x="440" y="300"/>
      <point x="446" y="316"/>
      <point x="479" y="316" type="curve" smooth="yes"/>
      <point x="518" y="316" type="line"/>
    </contour>
    <contour>
      <point x="518" y="434" type="line"/>
      <point x="479" y="434" type="line" smooth="yes"/>
      <point x="356" y="434"/>
      <point x="306" y="375"/>
      <point x="306" y="282" type="curve" smooth="yes"/>
      <point x="306" y="207" type="line" smooth="yes"/>
      <point x="306" y="114"/>
      <point x="356" y="54"/>
      <point x="479" y="54" type="curve" smooth="yes"/>
      <point x="602" y="54"/>
      <point x="652" y="114"/>
      <point x="652" y="207" type="curve" smooth="yes"/>
      <point x="652" y="316" type="line"/>
      <point x="736" y="316" type="line"/>
      <point x="736" y="0" type="line"/>
      <point x="876" y="0" type="line"/>
      <point x="876" y="554" type="line"/>
      <point x="958" y="554" type="line"/>
      <point x="958" y="671" type="line"/>
      <point x="736" y="671" type="line"/>
      <point x="736" y="434" type="line"/>
      <point x="658" y="434" type="line"/>
      <point x="658" y="513" type="line" smooth="yes"/>
      <point x="658" y="616"/>
      <point x="605" y="676"/>
      <point x="482" y="676" type="curve" smooth="yes"/>
      <point x="359" y="676"/>
      <point x="306" y="616"/>
      <point x="306" y="513" type="curve"/>
      <point x="306" y="493"/>
      <point x="309" y="476"/>
      <point x="309" y="476" type="curve"/>
      <point x="449" y="476" type="line"/>
      <point x="449" y="476"/>
      <point x="446" y="495"/>
      <point x="446" y="508" type="curve"/>
      <point x="446" y="531"/>
      <point x="449" y="547"/>
      <point x="482" y="547" type="curve" smooth="yes"/>
      <point x="515" y="547"/>
      <point x="518" y="531"/>
      <point x="518" y="508" type="curve" smooth="yes"/>
    </contour>
  </outline>
</glyph>
<glyph name="dvB_DA" format="1">
  <advance width="705"/>
  <outline>
    <contour>
      <point x="667" y="0" type="move" name="blwm.u"/>
    </contour>
    <contour>
      <point x="667" y="0" type="move" name="blwm.virama"/>
    </contour>
    <contour>
      <point x="658" y="671" type="move" name="abvm.e"/>
    </contour>
    <contour>
      <point x="658" y="671" type="move" name="abvm.bindu"/>
    </contour>
    <contour>
      <point x="315" y="255" type="line"/>
      <point x="315" y="237" type="line" smooth="yes"/>
      <point x="315" y="191"/>
      <point x="297" y="168"/>
      <point x="239" y="168" type="curve" smooth="yes"/>
      <point x="181" y="168"/>
      <point x="163" y="191"/>
      <point x="163" y="237" type="curve" smooth="yes"/>
      <point x="163" y="322" type="line" smooth="yes"/>
      <point x="163" y="368"/>
      <point x="181" y="391"/>
      <point x="234" y="391" type="curve" smooth="yes"/>
      <point x="249" y="391"/>
      <point x="260" y="389"/>
      <point x="260" y="389" type="curve"/>
      <point x="260" y="504" type="line"/>
      <point x="260" y="504"/>
      <point x="243" y="506"/>
      <point x="222" y="506" type="curve" smooth="yes"/>
      <point x="79" y="506"/>
      <point x="30" y="442"/>
      <point x="30" y="328" type="curve" smooth="yes"/>
      <point x="30" y="231" type="line" smooth="yes"/>
      <point x="30" y="117"/>
      <point x="89" y="53"/>
      <point x="237" y="53" type="curve" smooth="yes"/>
      <point x="365" y="53"/>
      <point x="408" y="123"/>
      <point x="408" y="231" type="curve" smooth="yes"/>
      <point x="408" y="255" type="line"/>
    </contour>
    <contour>
      <point x="166" y="381" type="line"/>
      <point x="112" y="336" type="line"/>
      <point x="311" y="169" type="line"/>
      <point x="365" y="215" type="line"/>
    </contour>
    <contour>
      <point x="-40" y="554" type="line"/>
      <point x="239" y="554" type="line"/>
      <point x="239" y="671" type="line"/>
      <point x="-40" y="671" type="line"/>
    </contour>
    <component base="dvDA" xOffset="274"/>
  </outline>
</glyph>
<glyph name="dvB_DH_VA" format="1">
  <advance width="1026"/>
  <outline>
    <contour>
      <point x="-40" y="554" type="line"/>
      <point x="447" y="554" type="line"/>
      <point x="447" y="671" type="line"/>
      <point x="-40" y="671" type="line"/>
    </contour>
    <contour>
      <point x="304" y="255" type="line"/>
      <point x="304" y="237" type="line" smooth="yes"/>
      <point x="304" y="191"/>
      <point x="286" y="168"/>
      <point x="233" y="168" type="curve" smooth="yes"/>
      <point x="180" y="168"/>
      <point x="162" y="191"/>
      <point x="162" y="237" type="curve" smooth="yes"/>
      <point x="162" y="322" type="line" smooth="yes"/>
      <point x="162" y="368"/>
      <point x="180" y="391"/>
      <point x="233" y="391" type="curve" smooth="yes"/>
      <point x="248" y="391"/>
      <point x="259" y="389"/>
      <point x="259" y="389" type="curve"/>
      <point x="259" y="504" type="line"/>
      <point x="259" y="504"/>
      <point x="242" y="506"/>
      <point x="221" y="506" type="curve" smooth="yes"/>
      <point x="78" y="506"/>
      <point x="29" y="442"/>
      <point x="29" y="328" type="curve" smooth="yes"/>
      <point x="29" y="231" type="line" smooth="yes"/>
      <point x="29" y="117"/>
      <point x="88" y="53"/>
      <point x="231" y="53" type="curve" smooth="yes"/>
      <point x="354" y="53"/>
      <point x="407" y="123"/>
      <point x="407" y="231" type="curve" smooth="yes"/>
      <point x="407" y="255" type="line"/>
    </contour>
    <contour>
      <point x="165" y="381" type="line"/>
      <point x="111" y="336" type="line"/>
      <point x="310" y="169" type="line"/>
      <point x="364" y="215" type="line"/>
    </contour>
    <component base="dvDH_VA" xOffset="270"/>
  </outline>
</glyph>
<glyph name="dvB_JA" format="1">
  <advance width="931"/>
  <outline>
    <contour>
      <point x="677" y="222" type="curve"/>
      <point x="677" y="324" type="line" smooth="yes"/>
      <point x="677" y="354"/>
      <point x="668" y="371"/>
      <point x="668" y="371" type="curve"/>
      <point x="749" y="371" type="line"/>
      <point x="749" y="0" type="line"/>
      <point x="889" y="0" type="line"/>
      <point x="889" y="554" type="line"/>
      <point x="961" y="554" type="line"/>
      <point x="961" y="671" type="line"/>
      <point x="297" y="671" type="line"/>
      <point x="297" y="554" type="line"/>
      <point x="749" y="554" type="line"/>
      <point x="749" y="491" type="line"/>
      <point x="482" y="491" type="line"/>
      <point x="482" y="362" type="line"/>
      <point x="526" y="362" type="line"/>
      <point x="526" y="362"/>
      <point x="537" y="349"/>
      <point x="537" y="315" type="curve" smooth="yes"/>
      <point x="537" y="227" type="line" smooth="yes"/>
      <point x="537" y="188"/>
      <point x="511" y="175"/>
      <point x="472" y="175" type="curve"/>
      <point x="441" y="175"/>
      <point x="413" y="186"/>
      <point x="391" y="192" type="curve"/>
      <point x="328" y="74" type="line"/>
      <point x="368" y="60"/>
      <point x="417" y="48"/>
      <point x="478" y="48" type="curve"/>
      <point x="603" y="48"/>
      <point x="677" y="103"/>
    </contour>
    <component base="dvB"/>
  </outline>
</glyph>
<glyph name="dvB_LA" format="1">
  <advance width="933"/>
  <outline>
    <contour>
      <point x="315" y="255" type="line"/>
      <point x="315" y="237" type="line" smooth="yes"/>
      <point x="315" y="191"/>
      <point x="297" y="168"/>
      <point x="239" y="168" type="curve" smooth="yes"/>
      <point x="181" y="168"/>
      <point x="163" y="191"/>
      <point x="163" y="237" type="curve" smooth="yes"/>
      <point x="163" y="322" type="line" smooth="yes"/>
      <point x="163" y="368"/>
      <point x="181" y="391"/>
      <point x="234" y="391" type="curve" smooth="yes"/>
      <point x="249" y="391"/>
      <point x="260" y="389"/>
      <point x="260" y="389" type="curve"/>
      <point x="260" y="504" type="line"/>
      <point x="260" y="504"/>
      <point x="243" y="506"/>
      <point x="222" y="506" type="curve" smooth="yes"/>
      <point x="79" y="506"/>
      <point x="30" y="442"/>
      <point x="30" y="328" type="curve" smooth="yes"/>
      <point x="30" y="231" type="line" smooth="yes"/>
      <point x="30" y="117"/>
      <point x="89" y="53"/>
      <point x="237" y="53" type="curve" smooth="yes"/>
      <point x="365" y="53"/>
      <point x="418" y="123"/>
      <point x="418" y="231" type="curve" smooth="yes"/>
      <point x="418" y="255" type="line"/>
    </contour>
    <contour>
      <point x="166" y="381" type="line"/>
      <point x="112" y="336" type="line"/>
      <point x="311" y="169" type="line"/>
      <point x="365" y="215" type="line"/>
    </contour>
    <contour>
      <point x="-40" y="554" type="line"/>
      <point x="448" y="554" type="line"/>
      <point x="448" y="671" type="line"/>
      <point x="-40" y="671" type="line"/>
    </contour>
    <component base="dvLA" xOffset="280"/>
  </outline>
</glyph>
<glyph name="dvB_R" format="1">
  <advance width="271"/>
  <outline>
    <contour>
      <point x="10" y="-86" type="line"/>
      <point x="179" y="-86" type="line"/>
      <point x="316" y="56" type="line" smooth="yes"/>
      <point x="381" y="124"/>
      <point x="428" y="165"/>
      <point x="428" y="251" type="curve" smooth="yes"/>
      <point x="428" y="328" type="line" smooth="yes"/>
      <point x="428" y="446"/>
      <point x="365" y="506"/>
      <point x="232" y="506" type="curve" smooth="yes"/>
      <point x="79" y="506"/>
      <point x="30" y="442"/>
      <point x="30" y="328" type="curve" smooth="yes"/>
      <point x="30" y="251" type="line" smooth="yes"/>
      <point x="30" y="152"/>
      <point x="75" y="97"/>
      <point x="168" y="79" type="curve"/>
    </contour>
    <contour>
      <point x="-40" y="554" type="line"/>
      <point x="451" y="554" type="line"/>
      <point x="451" y="671" type="line"/>
      <point x="-40" y="671" type="line"/>
    </contour>
    <contour>
      <point x="305" y="322" type="curve"/>
      <point x="305" y="257" type="line" smooth="yes"/>
      <point x="305" y="211"/>
      <point x="287" y="188"/>
      <point x="234" y="188" type="curve" smooth="yes"/>
      <point x="181" y="188"/>
      <point x="163" y="211"/>
      <point x="163" y="257" type="curve" smooth="yes"/>
      <point x="163" y="322" type="line" smooth="yes"/>
      <point x="163" y="368"/>
      <point x="181" y="391"/>
      <point x="234" y="391" type="curve" smooth="yes"/>
      <point x="287" y="391"/>
      <point x="305" y="368"/>
    </contour>
    <contour>
      <point x="166" y="381" type="line"/>
      <point x="112" y="336" type="line"/>
      <point x="311" y="189" type="line"/>
      <point x="365" y="235" type="line"/>
    </contour>
  </outline>
</glyph>
<glyph name="dvB_RA" format="1">
  <advance width="471"/>
  <outline>
    <contour>
      <point x="37" y="-37" type="line"/>
      <point x="190" y="-37" type="line"/>
      <point x="354" y="164" type="line"/>
      <point x="201" y="164" type="line"/>
    </contour>
    <contour>
      <point x="296" y="495" type="line"/>
      <point x="278" y="501"/>
      <point x="252" y="506"/>
      <point x="218" y="506" type="curve"/>
      <point x="95" y="506"/>
      <point x="31" y="467"/>
      <point x="31" y="338" type="curve" smooth="yes"/>
      <point x="31" y="229" type="line" smooth="yes"/>
      <point x="31" y="100"/>
      <point x="102" y="85"/>
      <point x="224" y="85" type="curve"/>
      <point x="253" y="85"/>
      <point x="279" y="88"/>
      <point x="296" y="93" type="curve"/>
      <point x="296" y="0" type="line"/>
      <point x="429" y="0" type="line"/>
      <point x="429" y="554" type="line"/>
      <point x="511" y="554" type="line"/>
      <point x="511" y="671" type="line"/>
      <point x="-40" y="671" type="line"/>
      <point x="-40" y="554" type="line"/>
      <point x="296" y="554" type="line"/>
    </contour>
    <contour>
      <point x="173" y="387" type="line"/>
      <point x="119" y="342" type="line"/>
      <point x="303" y="159" type="line"/>
      <point x="357" y="205" type="line"/>
    </contour>
    <contour>
      <point x="296" y="181" type="line"/>
      <point x="276" y="178"/>
      <point x="260" y="176"/>
      <point x="234" y="176" type="curve"/>
      <point x="181" y="176"/>
      <point x="164" y="199"/>
      <point x="164" y="235" type="curve" smooth="yes"/>
      <point x="164" y="332" type="line" smooth="yes"/>
      <point x="164" y="368"/>
      <point x="179" y="391"/>
      <point x="234" y="391" type="curve"/>
      <point x="258" y="391"/>
      <point x="276" y="387"/>
      <point x="296" y="380" type="curve"/>
    </contour>
  </outline>
</glyph>
<glyph name="dvCH" format="1">
  <advance width="555"/>
  <outline>
    <contour>
      <point x="346" y="501" type="curve"/>
      <point x="306" y="501"/>
      <point x="272" y="491"/>
      <point x="272" y="491" type="curve"/>
      <point x="272" y="377" type="line"/>
      <point x="272" y="377"/>
      <point x="291" y="386"/>
      <point x="319" y="386" type="curve" smooth="yes"/>
      <point x="363" y="386"/>
      <point x="384" y="370"/>
      <point x="384" y="322" type="curve" smooth="yes"/>
      <point x="384" y="182" type="line" smooth="yes"/>
      <point x="384" y="142"/>
      <point x="371" y="122"/>
      <point x="282" y="122" type="curve" smooth="yes"/>
      <point x="193" y="122"/>
      <point x="181" y="132"/>
      <point x="181" y="169" type="curve" smooth="yes"/>
      <point x="181" y="169"/>
      <point x="181" y="171"/>
      <point x="181" y="171" type="curve"/>
      <point x="181" y="208"/>
      <point x="196" y="213"/>
      <point x="229" y="213" type="curve" smooth="yes"/>
      <point x="301" y="213" type="line"/>
      <point x="301" y="335" type="line"/>
      <point x="224" y="335" type="line" smooth="yes"/>
      <point x="191" y="335"/>
      <point x="185" y="351"/>
      <point x="185" y="374" type="curve" smooth="yes"/>
      <point x="185" y="495" type="line" smooth="yes"/>
      <point x="185" y="529"/>
      <point x="187" y="554"/>
      <point x="236" y="554" type="curve" smooth="yes"/>
      <point x="595" y="554" type="line"/>
      <point x="595" y="671" type="line"/>
      <point x="-40" y="671" type="line"/>
      <point x="-40" y="554" type="line"/>
      <point x="61" y="554" type="line"/>
      <point x="50" y="538"/>
      <point x="45" y="518"/>
      <point x="45" y="498" type="curve" smooth="yes"/>
      <point x="45" y="368" type="line" smooth="yes"/>
      <point x="45" y="321"/>
      <point x="58" y="291"/>
      <point x="84" y="274" type="curve"/>
      <point x="55" y="256"/>
      <point x="40" y="224"/>
      <point x="40" y="183" type="curve" smooth="yes"/>
      <point x="40" y="160" type="line" smooth="yes"/>
      <point x="40" y="47"/>
      <point x="107" y="-3"/>
      <point x="282" y="-3" type="curve" smooth="yes"/>
      <point x="463" y="-3"/>
      <point x="520" y="52"/>
      <point x="520" y="175" type="curve" smooth="yes"/>
      <point x="520" y="347" type="line" smooth="yes"/>
      <point x="520" y="457"/>
      <point x="448" y="501"/>
    </contour>
  </outline>
</glyph>
<glyph name="dvCH_RA" format="1">
  <advance width="555"/>
  <outline>
    <contour>
      <point x="351" y="-155" type="move" name="blwm.u"/>
    </contour>
    <contour>
      <point x="356" y="-99" type="move" name="blwm.virama"/>
    </contour>
    <contour>
      <point x="461" y="671" type="move" name="abvm.e"/>
    </contour>
    <contour>
      <point x="461" y="671" type="move" name="abvm.bindu"/>
    </contour>
    <component base="dvCHA"/>
    <component base="dvRashtrasign" xOffset="491"/>
  </outline>
</glyph>
<glyph name="dvCH_R_YA" format="1">
  <advance width="1082"/>
  <outline>
    <contour>
      <point x="399" y="502" type="line"/>
      <point x="399" y="375" type="line"/>
      <point x="672" y="375" type="line" smooth="yes"/>
      <point x="699" y="375"/>
      <point x="706" y="367"/>
      <point x="706" y="345" type="curve" smooth="yes"/>
      <point x="706" y="330" type="line" smooth="yes"/>
      <point x="706" y="308"/>
      <point x="699" y="300"/>
      <point x="672" y="300" type="curve" smooth="yes"/>
      <point x="593" y="300" type="line"/>
      <point x="593" y="210" type="line" smooth="yes"/>
      <point x="593" y="97"/>
      <point x="667" y="26"/>
      <point x="806" y="26" type="curve" smooth="yes"/>
      <point x="843" y="26"/>
      <point x="879" y="30"/>
      <point x="908" y="36" type="curve"/>
      <point x="908" y="0" type="line"/>
      <point x="1048" y="0" type="line"/>
      <point x="1048" y="554" type="line"/>
      <point x="1130" y="554" type="line"/>
      <point x="1130" y="671" type="line"/>
      <point x="566" y="671" type="line"/>
      <point x="566" y="554" type="line"/>
      <point x="908" y="554" type="line"/>
      <point x="908" y="166" type="line"/>
      <point x="878" y="159"/>
      <point x="855" y="156"/>
      <point x="818" y="156" type="curve" smooth="yes"/>
      <point x="747" y="156"/>
      <point x="730" y="175"/>
      <point x="730" y="206" type="curve"/>
      <point x="730" y="207" type="line"/>
      <point x="806" y="207"/>
      <point x="842" y="245"/>
      <point x="842" y="322" type="curve" smooth="yes"/>
      <point x="842" y="359" type="line" smooth="yes"/>
      <point x="842" y="462"/>
      <point x="788" y="502"/>
      <point x="667" y="502" type="curve" smooth="yes"/>
    </contour>
    <component base="dvRashtrasign" xOffset="491"/>
    <component base="dvCHA"/>
  </outline>
</glyph>
<glyph name="dvCH_YA" format="1">
  <advance width="1082"/>
  <outline>
    <contour>
      <point x="391" y="494" type="line"/>
      <point x="391" y="367" type="line"/>
      <point x="664" y="367" type="line" smooth="yes"/>
      <point x="691" y="367"/>
      <point x="698" y="359"/>
      <point x="698" y="337" type="curve" smooth="yes"/>
      <point x="698" y="333" type="line" smooth="yes"/>
      <point x="698" y="311"/>
      <point x="691" y="303"/>
      <point x="664" y="303" type="curve" smooth="yes"/>
      <point x="585" y="303" type="line"/>
      <point x="585" y="210" type="line" smooth="yes"/>
      <point x="585" y="97"/>
      <point x="659" y="26"/>
      <point x="798" y="26" type="curve" smooth="yes"/>
      <point x="835" y="26"/>
      <point x="871" y="30"/>
      <point x="900" y="36" type="curve"/>
      <point x="900" y="0" type="line"/>
      <point x="1040" y="0" type="line"/>
      <point x="1040" y="554" type="line"/>
      <point x="1122" y="554" type="line"/>
      <point x="1122" y="671" type="line"/>
      <point x="558" y="671" type="line"/>
      <point x="558" y="554" type="line"/>
      <point x="900" y="554" type="line"/>
      <point x="900" y="166" type="line"/>
      <point x="870" y="159"/>
      <point x="847" y="156"/>
      <point x="810" y="156" type="curve" smooth="yes"/>
      <point x="739" y="156"/>
      <point x="722" y="175"/>
      <point x="722" y="206" type="curve" smooth="yes"/>
      <point x="722" y="210" type="line"/>
      <point x="798" y="210"/>
      <point x="834" y="248"/>
      <point x="834" y="325" type="curve" smooth="yes"/>
      <point x="834" y="351" type="line" smooth="yes"/>
      <point x="834" y="454"/>
      <point x="780" y="494"/>
      <point x="659" y="494" type="curve" smooth="yes"/>
    </contour>
    <contour>
      <point x="346" y="501" type="curve"/>
      <point x="306" y="501"/>
      <point x="272" y="491"/>
      <point x="272" y="491" type="curve"/>
      <point x="272" y="377" type="line"/>
      <point x="272" y="377"/>
      <point x="291" y="386"/>
      <point x="319" y="386" type="curve" smooth="yes"/>
      <point x="363" y="386"/>
      <point x="384" y="370"/>
      <point x="384" y="322" type="curve" smooth="yes"/>
      <point x="384" y="182" type="line" smooth="yes"/>
      <point x="384" y="142"/>
      <point x="371" y="122"/>
      <point x="282" y="122" type="curve" smooth="yes"/>
      <point x="193" y="122"/>
      <point x="181" y="132"/>
      <point x="181" y="169" type="curve" smooth="yes"/>
      <point x="181" y="169"/>
      <point x="181" y="171"/>
      <point x="181" y="171" type="curve"/>
      <point x="181" y="208"/>
      <point x="196" y="213"/>
      <point x="229" y="213" type="curve" smooth="yes"/>
      <point x="301" y="213" type="line"/>
      <point x="301" y="335" type="line"/>
      <point x="224" y="335" type="line" smooth="yes"/>
      <point x="191" y="335"/>
      <point x="185" y="351"/>
      <point x="185" y="374" type="curve" smooth="yes"/>
      <point x="185" y="495" type="line" smooth="yes"/>
      <point x="185" y="529"/>
      <point x="187" y="554"/>
      <point x="236" y="554" type="curve" smooth="yes"/>
      <point x="595" y="554" type="line"/>
      <point x="595" y="671" type="line"/>
      <point x="-40" y="671" type="line"/>
      <point x="-40" y="554" type="line"/>
      <point x="61" y="554" type="line"/>
      <point x="50" y="538"/>
      <point x="45" y="518"/>
      <point x="45" y="498" type="curve" smooth="yes"/>
      <point x="45" y="368" type="line" smooth="yes"/>
      <point x="45" y="321"/>
      <point x="58" y="291"/>
      <point x="84" y="274" type="curve"/>
      <point x="55" y="256"/>
      <point x="40" y="224"/>
      <point x="40" y="183" type="curve" smooth="yes"/>
      <point x="40" y="160" type="line" smooth="yes"/>
      <point x="40" y="47"/>
      <point x="107" y="-3"/>
      <point x="282" y="-3" type="curve" smooth="yes"/>
      <point x="463" y="-3"/>
      <point x="520" y="52"/>
      <point x="520" y="175" type="curve" smooth="yes"/>
      <point x="520" y="347" type="line" smooth="yes"/>
      <point x="520" y="457"/>
      <point x="448" y="501"/>
    </contour>
  </outline>
</glyph>
<glyph name="dvC_CA" format="1">
  <advance width="739"/>
  <outline>
    <contour>
      <point x="457" y="315" type="line"/>
      <point x="457" y="357"/>
      <point x="468" y="371"/>
      <point x="468" y="371" type="curve"/>
      <point x="521" y="371" type="line"/>
      <point x="521" y="491" type="line"/>
      <point x="293" y="491" type="line"/>
      <point x="293" y="371" type="line"/>
      <point x="323" y="371" type="line"/>
      <point x="323" y="371"/>
      <point x="317" y="346"/>
      <point x="317" y="316" type="curve"/>
      <point x="317" y="219" type="line" smooth="yes"/>
      <point x="317" y="106"/>
      <point x="369" y="53"/>
      <point x="484" y="53" type="curve"/>
      <point x="510" y="53"/>
      <point x="537" y="56"/>
      <point x="557" y="61" type="curve"/>
      <point x="557" y="0" type="line"/>
      <point x="697" y="0" type="line"/>
      <point x="697" y="554" type="line"/>
      <point x="778" y="554" type="line"/>
      <point x="778" y="671" type="line"/>
      <point x="210" y="671" type="line"/>
      <point x="210" y="554" type="line"/>
      <point x="557" y="554" type="line"/>
      <point x="557" y="183" type="line"/>
      <point x="545" y="179"/>
      <point x="530" y="176"/>
      <point x="511" y="176" type="curve"/>
      <point x="478" y="176"/>
      <point x="457" y="189"/>
      <point x="457" y="224" type="curve" smooth="yes"/>
    </contour>
    <contour>
      <point x="315" y="671" type="line"/>
      <point x="-40" y="671" type="line"/>
      <point x="-40" y="554" type="line"/>
      <point x="315" y="554" type="line"/>
    </contour>
    <contour>
      <point x="401" y="203" type="line"/>
      <point x="389" y="199"/>
      <point x="339" y="176"/>
      <point x="275" y="176" type="curve" smooth="yes"/>
      <point x="238" y="176"/>
      <point x="207" y="189"/>
      <point x="207" y="224" type="curve" smooth="yes"/>
      <point x="207" y="315" type="line" smooth="yes"/>
      <point x="207" y="357"/>
      <point x="218" y="371"/>
      <point x="218" y="371" type="curve"/>
      <point x="245" y="371" type="line"/>
      <point x="245" y="491" type="line"/>
      <point x="13" y="491" type="line"/>
      <point x="13" y="365" type="line"/>
      <point x="73" y="365" type="line"/>
      <point x="73" y="365"/>
      <point x="67" y="346"/>
      <point x="67" y="316" type="curve" smooth="yes"/>
      <point x="67" y="219" type="line" smooth="yes"/>
      <point x="67" y="106"/>
      <point x="145" y="53"/>
      <point x="260" y="53" type="curve" smooth="yes"/>
      <point x="335" y="53"/>
      <point x="379" y="70"/>
      <point x="401" y="81" type="curve"/>
    </contour>
  </outline>
</glyph>
<glyph name="dvC_R" format="1">
  <advance width="275"/>
  <outline>
    <contour>
      <point x="315" y="671" type="line"/>
      <point x="-40" y="671" type="line"/>
      <point x="-40" y="554" type="line"/>
      <point x="315" y="554" type="line"/>
    </contour>
    <contour>
      <point x="330" y="215" type="line"/>
      <point x="318" y="211"/>
      <point x="299" y="206"/>
      <point x="269" y="206" type="curve" smooth="yes"/>
      <point x="233" y="206"/>
      <point x="207" y="219"/>
      <point x="207" y="254" type="curve" smooth="yes"/>
      <point x="207" y="315" type="line" smooth="yes"/>
      <point x="207" y="357"/>
      <point x="218" y="371"/>
      <point x="218" y="371" type="curve"/>
      <point x="271" y="371" type="line"/>
      <point x="271" y="491" type="line"/>
      <point x="13" y="491" type="line"/>
      <point x="13" y="365" type="line"/>
      <point x="73" y="365" type="line"/>
      <point x="73" y="365"/>
      <point x="67" y="346"/>
      <point x="67" y="316" type="curve" smooth="yes"/>
      <point x="67" y="249" type="line" smooth="yes"/>
      <point x="67" y="136"/>
      <point x="123" y="83"/>
      <point x="238" y="83" type="curve"/>
      <point x="269" y="83"/>
      <point x="303" y="88"/>
      <point x="303" y="88" type="curve"/>
      <point x="195" y="97" type="line"/>
      <point x="16" y="-62" type="line"/>
      <point x="189" y="-62" type="line"/>
      <point x="330" y="72" type="line"/>
    </contour>
  </outline>
</glyph>
<glyph name="dvC_RA" format="1">
  <advance width="492"/>
  <outline>
    <contour>
      <point x="38" y="-10" type="line"/>
      <point x="200" y="-10" type="line"/>
      <point x="366" y="194" type="line"/>
      <point x="204" y="194" type="line"/>
    </contour>
    <contour>
      <point x="210" y="315" type="line"/>
      <point x="210" y="357"/>
      <point x="221" y="371"/>
      <point x="221" y="371" type="curve"/>
      <point x="274" y="371" type="line"/>
      <point x="274" y="491" type="line"/>
      <point x="26" y="491" type="line"/>
      <point x="26" y="365" type="line"/>
      <point x="76" y="365" type="line"/>
      <point x="76" y="365"/>
      <point x="70" y="346"/>
      <point x="70" y="316" type="curve"/>
      <point x="70" y="283" type="line" smooth="yes"/>
      <point x="70" y="170"/>
      <point x="122" y="117"/>
      <point x="237" y="117" type="curve"/>
      <point x="263" y="117"/>
      <point x="290" y="120"/>
      <point x="310" y="125" type="curve"/>
      <point x="310" y="0" type="line"/>
      <point x="450" y="0" type="line"/>
      <point x="450" y="554" type="line"/>
      <point x="532" y="554" type="line"/>
      <point x="532" y="671" type="line"/>
      <point x="-40" y="671" type="line"/>
      <point x="-40" y="554" type="line"/>
      <point x="310" y="554" type="line"/>
      <point x="310" y="234" type="line"/>
      <point x="298" y="230"/>
      <point x="283" y="227"/>
      <point x="264" y="227" type="curve"/>
      <point x="231" y="227"/>
      <point x="210" y="240"/>
      <point x="210" y="275" type="curve" smooth="yes"/>
    </contour>
  </outline>
</glyph>
<glyph name="dvDA_mvR" format="1">
  <advance width="430"/>
  <outline>
    <contour>
      <point x="383" y="671" type="move" name="abvm.bindu"/>
    </contour>
    <contour>
      <point x="392" y="54" type="line"/>
      <point x="277" y="54" type="line" smooth="yes"/>
      <point x="154" y="54"/>
      <point x="100" y="-6"/>
      <point x="100" y="-114" type="curve" smooth="yes"/>
      <point x="100" y="-222"/>
      <point x="170" y="-282"/>
      <point x="293" y="-282" type="curve"/>
      <point x="328" y="-282"/>
      <point x="357" y="-280"/>
      <point x="393" y="-274" type="curve"/>
      <point x="393" y="-146" type="line"/>
      <point x="360" y="-151"/>
      <point x="334" y="-154"/>
      <point x="298" y="-154" type="curve"/>
      <point x="261" y="-154"/>
      <point x="238" y="-147"/>
      <point x="238" y="-114" type="curve" smooth="yes"/>
      <point x="238" y="-81"/>
      <point x="262" y="-74"/>
      <point x="299" y="-74" type="curve"/>
      <point x="332" y="-74"/>
      <point x="348" y="-77"/>
      <point x="392" y="-82" type="curve"/>
    </contour>
    <contour>
      <point x="30" y="247" type="line"/>
      <point x="30" y="144"/>
      <point x="78" y="91"/>
      <point x="191" y="91" type="curve"/>
      <point x="208" y="91"/>
      <point x="237" y="94"/>
      <point x="254" y="99" type="curve"/>
      <point x="254" y="30" type="line"/>
      <point x="392" y="30" type="line"/>
      <point x="392" y="278" type="line"/>
      <point x="252" y="278" type="line"/>
      <point x="252" y="221" type="line"/>
      <point x="252" y="221"/>
      <point x="233" y="214"/>
      <point x="211" y="214" type="curve"/>
      <point x="176" y="214"/>
      <point x="170" y="228"/>
      <point x="170" y="252" type="curve" smooth="yes"/>
      <point x="170" y="331" type="line" smooth="yes"/>
      <point x="170" y="355"/>
      <point x="176" y="368"/>
      <point x="211" y="368" type="curve" smooth="yes"/>
      <point x="383" y="368" type="line"/>
      <point x="383" y="554" type="line"/>
      <point x="470" y="554" type="line"/>
      <point x="470" y="671" type="line"/>
      <point x="-40" y="671" type="line"/>
      <point x="-40" y="554" type="line"/>
      <point x="243" y="554" type="line"/>
      <point x="243" y="495" type="line"/>
      <point x="211" y="495" type="line" smooth="yes"/>
      <point x="88" y="495"/>
      <point x="30" y="456"/>
      <point x="30" y="336" type="curve" smooth="yes"/>
    </contour>
  </outline>
</glyph>
<glyph name="dvDDH_DDHA" format="1">
  <advance width="472"/>
  <outline>
    <contour>
      <point x="324" y="-363" type="move" name="blwm.u"/>
    </contour>
    <contour>
      <point x="325" y="-311" type="move" name="blwm.virama"/>
    </contour>
    <contour>
      <point x="391" y="671" type="move" name="abvm.e"/>
    </contour>
    <contour>
      <point x="391" y="671" type="move" name="abvm.bindu"/>
    </contour>
    <contour>
      <point x="219" y="499" type="line"/>
      <point x="93" y="499"/>
      <point x="42" y="455"/>
      <point x="42" y="350" type="curve" smooth="yes"/>
      <point x="42" y="197" type="line" smooth="yes"/>
      <point x="42" y="89"/>
      <point x="110" y="35"/>
      <point x="240" y="35" type="curve" smooth="yes"/>
      <point x="370" y="35"/>
      <point x="434" y="84"/>
      <point x="434" y="192" type="curve" smooth="yes"/>
      <point x="434" y="205" type="line" smooth="yes"/>
      <point x="434" y="298"/>
      <point x="379" y="337"/>
      <point x="286" y="337" type="curve" smooth="yes"/>
      <point x="255" y="337"/>
      <point x="231" y="329"/>
      <point x="231" y="329" type="curve"/>
      <point x="231" y="226" type="line"/>
      <point x="231" y="226"/>
      <point x="243" y="234"/>
      <point x="262" y="234" type="curve" smooth="yes"/>
      <point x="286" y="234"/>
      <point x="300" y="228"/>
      <point x="300" y="200" type="curve"/>
      <point x="300" y="199" type="line"/>
      <point x="300" y="172"/>
      <point x="292" y="153"/>
      <point x="240" y="153" type="curve" smooth="yes"/>
      <point x="188" y="153"/>
      <point x="180" y="174"/>
      <point x="180" y="201" type="curve" smooth="yes"/>
      <point x="180" y="345" type="line" smooth="yes"/>
      <point x="180" y="373"/>
      <point x="188" y="382"/>
      <point x="219" y="382" type="curve" smooth="yes"/>
      <point x="391" y="382" type="line"/>
      <point x="391" y="554" type="line"/>
      <point x="512" y="554" type="line"/>
      <point x="512" y="671" type="line"/>
      <point x="-40" y="671" type="line"/>
      <point x="-40" y="554" type="line"/>
      <point x="253" y="554" type="line"/>
      <point x="253" y="499" type="line"/>
    </contour>
    <contour>
      <point x="240" y="35" type="line"/>
      <point x="240" y="132" type="line"/>
      <point x="230" y="132" type="line" smooth="yes"/>
      <point x="97" y="132"/>
      <point x="39" y="86"/>
      <point x="39" y="-17" type="curve" smooth="yes"/>
      <point x="39" y="-150" type="line" smooth="yes"/>
      <point x="39" y="-258"/>
      <point x="107" y="-312"/>
      <point x="237" y="-312" type="curve" smooth="yes"/>
      <point x="367" y="-312"/>
      <point x="431" y="-263"/>
      <point x="431" y="-155" type="curve" smooth="yes"/>
      <point x="431" y="-142" type="line" smooth="yes"/>
      <point x="431" y="-49"/>
      <point x="376" y="-10"/>
      <point x="283" y="-10" type="curve" smooth="yes"/>
      <point x="252" y="-10"/>
      <point x="228" y="-18"/>
      <point x="228" y="-18" type="curve"/>
      <point x="228" y="-121" type="line"/>
      <point x="228" y="-121"/>
      <point x="240" y="-113"/>
      <point x="259" y="-113" type="curve" smooth="yes"/>
      <point x="283" y="-113"/>
      <point x="297" y="-119"/>
      <point x="297" y="-147" type="curve"/>
      <point x="297" y="-148" type="line"/>
      <point x="297" y="-175"/>
      <point x="289" y="-194"/>
      <point x="237" y="-194" type="curve" smooth="yes"/>
      <point x="185" y="-194"/>
      <point x="177" y="-173"/>
      <point x="177" y="-146" type="curve" smooth="yes"/>
      <point x="177" y="-22" type="line" smooth="yes"/>
      <point x="177" y="21"/>
      <point x="187" y="35"/>
      <point x="230" y="35" type="curve"/>
    </contour>
  </outline>
</glyph>
<glyph name="dvDD_DDHA" format="1">
  <advance width="453"/>
  <outline>
    <contour>
      <point x="299" y="-342" type="move" name="blwm.u"/>
    </contour>
    <contour>
      <point x="311" y="-304" type="move" name="blwm.virama"/>
    </contour>
    <contour>
      <point x="401" y="671" type="move" name="abvm.e"/>
    </contour>
    <contour>
      <point x="401" y="671" type="move" name="abvm.bindu"/>
    </contour>
    <contour>
      <point x="207" y="50" type="curve"/>
      <point x="228" y="137" type="line"/>
      <point x="95" y="137"/>
      <point x="37" y="71"/>
      <point x="37" y="-32" type="curve" smooth="yes"/>
      <point x="37" y="-135" type="line" smooth="yes"/>
      <point x="37" y="-243"/>
      <point x="105" y="-297"/>
      <point x="235" y="-297" type="curve" smooth="yes"/>
      <point x="365" y="-297"/>
      <point x="429" y="-248"/>
      <point x="429" y="-140" type="curve" smooth="yes"/>
      <point x="429" y="-127" type="line" smooth="yes"/>
      <point x="429" y="-34"/>
      <point x="374" y="5"/>
      <point x="281" y="5" type="curve" smooth="yes"/>
      <point x="250" y="5"/>
      <point x="226" y="-3"/>
      <point x="226" y="-3" type="curve"/>
      <point x="226" y="-106" type="line"/>
      <point x="226" y="-106"/>
      <point x="238" y="-98"/>
      <point x="257" y="-98" type="curve" smooth="yes"/>
      <point x="281" y="-98"/>
      <point x="295" y="-106"/>
      <point x="295" y="-129" type="curve"/>
      <point x="295" y="-133" type="line"/>
      <point x="295" y="-160"/>
      <point x="287" y="-179"/>
      <point x="235" y="-179" type="curve" smooth="yes"/>
      <point x="183" y="-179"/>
      <point x="175" y="-158"/>
      <point x="175" y="-131" type="curve" smooth="yes"/>
      <point x="175" y="-7" type="line" smooth="yes"/>
      <point x="175" y="31"/>
      <point x="182" y="47"/>
    </contour>
    <contour>
      <point x="28" y="72" type="line"/>
      <point x="75" y="61"/>
      <point x="148" y="50"/>
      <point x="207" y="50" type="curve" smooth="yes"/>
      <point x="355" y="50"/>
      <point x="429" y="92"/>
      <point x="429" y="193" type="curve"/>
      <point x="429" y="200" type="line"/>
      <point x="429" y="306"/>
      <point x="371" y="342"/>
      <point x="243" y="342" type="curve" smooth="yes"/>
      <point x="219" y="342" type="line" smooth="yes"/>
      <point x="195" y="342"/>
      <point x="187" y="348"/>
      <point x="187" y="368" type="curve" smooth="yes"/>
      <point x="187" y="387"/>
      <point x="196" y="395"/>
      <point x="219" y="395" type="curve" smooth="yes"/>
      <point x="398" y="395" type="line"/>
      <point x="398" y="554" type="line"/>
      <point x="493" y="554" type="line"/>
      <point x="493" y="671" type="line"/>
      <point x="-40" y="671" type="line"/>
      <point x="-40" y="554" type="line"/>
      <point x="252" y="554" type="line"/>
      <point x="252" y="499" type="line"/>
      <point x="227" y="499" type="line" smooth="yes"/>
      <point x="99" y="499"/>
      <point x="41" y="456"/>
      <point x="41" y="363" type="curve"/>
      <point x="41" y="357" type="line"/>
      <point x="41" y="252"/>
      <point x="113" y="233"/>
      <point x="223" y="233" type="curve" smooth="yes"/>
      <point x="243" y="233" type="line" smooth="yes"/>
      <point x="274" y="233"/>
      <point x="284" y="222"/>
      <point x="284" y="205" type="curve"/>
      <point x="284" y="199" type="line"/>
      <point x="284" y="167"/>
      <point x="250" y="165"/>
      <point x="207" y="165" type="curve" smooth="yes"/>
      <point x="151" y="165"/>
      <point x="68" y="176"/>
      <point x="28" y="185" type="curve"/>
    </contour>
  </outline>
</glyph>
<glyph name="dvDD_RA" format="1">
  <advance width="430"/>
  <outline>
    <contour>
      <point x="300" y="-155" type="move" name="blwm.u"/>
    </contour>
    <contour>
      <point x="298" y="-99" type="move" name="blwm.virama"/>
    </contour>
    <contour>
      <point x="377" y="671" type="move" name="abvm.e"/>
    </contour>
    <contour>
      <point x="377" y="671" type="move" name="abvm.bindu"/>
    </contour>
    <component base="dvDDA"/>
    <component base="dvRashtrasign" xOffset="438"/>
  </outline>
</glyph>
<glyph name="dvDH_MA" format="1">
  <advance width="943"/>
  <outline>
    <contour>
      <point x="423" y="217" type="line"/>
      <point x="370" y="198"/>
      <point x="320" y="182"/>
      <point x="255" y="182" type="curve" smooth="yes"/>
      <point x="202" y="182"/>
      <point x="175" y="194"/>
      <point x="175" y="235" type="curve" smooth="yes"/>
      <point x="175" y="263" type="line" smooth="yes"/>
      <point x="175" y="286"/>
      <point x="181" y="302"/>
      <point x="214" y="302" type="curve" smooth="yes"/>
      <point x="264" y="302" type="line"/>
      <point x="264" y="431" type="line"/>
      <point x="220" y="431" type="line" smooth="yes"/>
      <point x="187" y="431"/>
      <point x="181" y="447"/>
      <point x="181" y="470" type="curve" smooth="yes"/>
      <point x="181" y="507" type="line" smooth="yes"/>
      <point x="181" y="541"/>
      <point x="191" y="554"/>
      <point x="191" y="554" type="curve"/>
      <point x="229" y="554" type="line"/>
      <point x="229" y="671" type="line"/>
      <point x="-40" y="671" type="line"/>
      <point x="-40" y="554" type="line"/>
      <point x="47" y="554" type="line"/>
      <point x="47" y="554"/>
      <point x="41" y="538"/>
      <point x="41" y="507" type="curve" smooth="yes"/>
      <point x="41" y="465" type="line" smooth="yes"/>
      <point x="41" y="419"/>
      <point x="54" y="389"/>
      <point x="79" y="370" type="curve"/>
      <point x="50" y="353"/>
      <point x="35" y="322"/>
      <point x="35" y="268" type="curve" smooth="yes"/>
      <point x="35" y="217" type="line" smooth="yes"/>
      <point x="35" y="125"/>
      <point x="96" y="57"/>
      <point x="247" y="57" type="curve" smooth="yes"/>
      <point x="329" y="57"/>
      <point x="381" y="79"/>
      <point x="423" y="92" type="curve"/>
    </contour>
    <contour>
      <point x="556" y="213" type="line"/>
      <point x="556" y="190"/>
      <point x="550" y="174"/>
      <point x="517" y="174" type="curve" smooth="yes"/>
      <point x="484" y="174"/>
      <point x="478" y="190"/>
      <point x="478" y="213" type="curve" smooth="yes"/>
      <point x="478" y="289" type="line" smooth="yes"/>
      <point x="478" y="312"/>
      <point x="484" y="328"/>
      <point x="517" y="328" type="curve" smooth="yes"/>
      <point x="556" y="328" type="line"/>
    </contour>
    <contour>
      <point x="690" y="446" type="line"/>
      <point x="690" y="554" type="line"/>
      <point x="764" y="554" type="line"/>
      <point x="764" y="446" type="line"/>
    </contour>
    <contour>
      <point x="764" y="0" type="line"/>
      <point x="901" y="0" type="line"/>
      <point x="901" y="554" type="line"/>
      <point x="983" y="554" type="line"/>
      <point x="983" y="671" type="line"/>
      <point x="331" y="671" type="line"/>
      <point x="331" y="554" type="line"/>
      <point x="556" y="554" type="line"/>
      <point x="556" y="446" type="line"/>
      <point x="517" y="446" type="line" smooth="yes"/>
      <point x="394" y="446"/>
      <point x="344" y="387"/>
      <point x="344" y="294" type="curve" smooth="yes"/>
      <point x="344" y="208" type="line" smooth="yes"/>
      <point x="344" y="115"/>
      <point x="394" y="55"/>
      <point x="517" y="55" type="curve" smooth="yes"/>
      <point x="640" y="55"/>
      <point x="690" y="115"/>
      <point x="690" y="208" type="curve" smooth="yes"/>
      <point x="690" y="328" type="line"/>
      <point x="764" y="328" type="line"/>
    </contour>
  </outline>
</glyph>
<glyph name="dvDH_R" format="1">
  <advance width="282"/>
  <outline>
    <contour>
      <point x="35" y="246" type="line"/>
      <point x="35" y="154"/>
      <point x="96" y="86"/>
      <point x="227" y="86" type="curve"/>
      <point x="262" y="86"/>
      <point x="290" y="95"/>
      <point x="290" y="95" type="curve"/>
      <point x="195" y="107" type="line"/>
      <point x="16" y="-52" type="line"/>
      <point x="189" y="-52" type="line"/>
      <point x="333" y="85" type="line"/>
      <point x="333" y="221" type="line"/>
      <point x="306" y="213"/>
      <point x="272" y="211"/>
      <point x="247" y="211" type="curve" smooth="yes"/>
      <point x="202" y="211"/>
      <point x="175" y="223"/>
      <point x="175" y="264" type="curve" smooth="yes"/>
      <point x="175" y="280" type="line" smooth="yes"/>
      <point x="175" y="303"/>
      <point x="181" y="319"/>
      <point x="214" y="319" type="curve" smooth="yes"/>
      <point x="264" y="319" type="line"/>
      <point x="264" y="448" type="line"/>
      <point x="220" y="448" type="line" smooth="yes"/>
      <point x="187" y="448"/>
      <point x="181" y="464"/>
      <point x="181" y="487" type="curve" smooth="yes"/>
      <point x="181" y="507" type="line" smooth="yes"/>
      <point x="181" y="541"/>
      <point x="191" y="554"/>
      <point x="191" y="554" type="curve"/>
      <point x="249" y="554" type="line"/>
      <point x="249" y="671" type="line"/>
      <point x="-40" y="671" type="line"/>
      <point x="-40" y="554" type="line"/>
      <point x="47" y="554" type="line"/>
      <point x="47" y="554"/>
      <point x="41" y="538"/>
      <point x="41" y="507" type="curve" smooth="yes"/>
      <point x="41" y="482" type="line" smooth="yes"/>
      <point x="41" y="436"/>
      <point x="54" y="406"/>
      <point x="79" y="387" type="curve"/>
      <point x="50" y="370"/>
      <point x="35" y="339"/>
      <point x="35" y="285" type="curve" smooth="yes"/>
    </contour>
  </outline>
</glyph>
